G04 #@! TF.FileFunction,Copper,L2,Bot,Signal*
%FSLAX46Y46*%
G04 Gerber Fmt 4.6, Leading zero omitted, Abs format (unit mm)*
G04 Created by KiCad (PCBNEW 4.0.2+dfsg1-stable) date Mi 16 Aug 2017 11:46:23 CEST*
%MOMM*%
G01*
G04 APERTURE LIST*
%ADD10C,0.100000*%
%ADD11C,1.524000*%
%ADD12R,1.397000X1.397000*%
%ADD13C,1.397000*%
%ADD14R,2.000000X2.000000*%
%ADD15C,2.000000*%
%ADD16C,1.998980*%
%ADD17R,1.998980X1.998980*%
%ADD18C,10.000000*%
%ADD19C,1.501140*%
%ADD20C,2.999740*%
%ADD21R,1.778000X1.778000*%
%ADD22C,1.778000*%
%ADD23O,3.000000X4.000000*%
%ADD24R,9.000000X4.000000*%
%ADD25C,3.649980*%
%ADD26R,1.501140X1.501140*%
%ADD27R,4.000000X2.000000*%
%ADD28C,0.600000*%
%ADD29C,1.000000*%
%ADD30C,0.254000*%
G04 APERTURE END LIST*
D10*
D11*
X108495281Y-50030000D03*
X104252641Y-54272641D03*
X100010000Y-50030000D03*
X104252641Y-45787359D03*
D12*
X97000000Y-44190000D03*
D13*
X97000000Y-51810000D03*
D12*
X97000000Y-40810000D03*
D13*
X97000000Y-33190000D03*
D12*
X94000000Y-44190000D03*
D13*
X94000000Y-51810000D03*
D14*
X90000000Y-46000000D03*
D15*
X90000000Y-48540000D03*
D14*
X90000000Y-35000000D03*
D15*
X90000000Y-37540000D03*
D12*
X94000000Y-40810000D03*
D13*
X94000000Y-33190000D03*
D11*
X108495281Y-33520000D03*
X104252641Y-37762641D03*
X100010000Y-33520000D03*
X104252641Y-29277359D03*
D12*
X83190000Y-64000000D03*
D13*
X90810000Y-64000000D03*
D16*
X106000000Y-70000000D03*
D17*
X108540000Y-70000000D03*
D16*
X103460000Y-70000000D03*
D18*
X76000000Y-33000000D03*
X38000000Y-33000000D03*
X76000000Y-72000000D03*
X38000000Y-72000000D03*
D19*
X55887140Y-35002120D03*
X58427140Y-35002120D03*
X60459140Y-35002120D03*
X62999140Y-35002120D03*
D20*
X52839140Y-32335120D03*
X66555140Y-32335120D03*
D21*
X84000000Y-57540000D03*
D22*
X84000000Y-52460000D03*
D23*
X107000000Y-77000000D03*
X103000000Y-77000000D03*
X99000000Y-77000000D03*
D16*
X83000000Y-29000000D03*
X98000000Y-29000000D03*
X90000000Y-58000000D03*
X105000000Y-58000000D03*
X111000000Y-29000000D03*
X126000000Y-29000000D03*
X112000000Y-55000000D03*
X127000000Y-55000000D03*
X93000000Y-64000000D03*
X108000000Y-64000000D03*
X108000000Y-61000000D03*
X93000000Y-61000000D03*
D24*
X48500000Y-59000000D03*
D25*
X123000000Y-36061480D03*
X123000000Y-47930900D03*
D26*
X116650000Y-46445000D03*
D19*
X114110000Y-45175000D03*
X116650000Y-43905000D03*
X114110000Y-42635000D03*
X116650000Y-41365000D03*
X114110000Y-40095000D03*
X116650000Y-38825000D03*
X114110000Y-37555000D03*
D27*
X127000000Y-34250000D03*
X127000000Y-49750000D03*
D11*
X54000000Y-65530000D03*
X56540000Y-65530000D03*
D28*
X32900000Y-38500000D03*
X80600000Y-44500000D03*
X70100000Y-28900000D03*
X114400000Y-77600000D03*
X112500000Y-66200000D03*
D29*
X114110000Y-37555000D02*
X113445000Y-37555000D01*
X113445000Y-37555000D02*
X110000000Y-41000000D01*
X112000000Y-49000000D02*
X112000000Y-55000000D01*
X110000000Y-47000000D02*
X112000000Y-49000000D01*
X110000000Y-41000000D02*
X110000000Y-47000000D01*
X114110000Y-37555000D02*
X115380000Y-37555000D01*
X115380000Y-37555000D02*
X116650000Y-38825000D01*
X114110000Y-42635000D02*
X113365000Y-42635000D01*
X113365000Y-42635000D02*
X112000000Y-44000000D01*
X112000000Y-44000000D02*
X112000000Y-46000000D01*
X112000000Y-46000000D02*
X117000000Y-51000000D01*
X117000000Y-51000000D02*
X123000000Y-51000000D01*
X123000000Y-51000000D02*
X127000000Y-55000000D01*
X116650000Y-41365000D02*
X115380000Y-41365000D01*
X115380000Y-41365000D02*
X114110000Y-42635000D01*
X106000000Y-70000000D02*
X106000000Y-76000000D01*
X106000000Y-76000000D02*
X107000000Y-77000000D01*
X106000000Y-76000000D02*
X107000000Y-77000000D01*
X106000000Y-76000000D02*
X107000000Y-77000000D01*
X100010000Y-50030000D02*
X100010000Y-51990000D01*
X86540000Y-55000000D02*
X84000000Y-57540000D01*
X97000000Y-55000000D02*
X86540000Y-55000000D01*
X100010000Y-51990000D02*
X97000000Y-55000000D01*
X100000000Y-50040000D02*
X100010000Y-50030000D01*
X100010000Y-33520000D02*
X100010000Y-50030000D01*
X108495281Y-50030000D02*
X108495281Y-57504719D01*
X103460000Y-62540000D02*
X103460000Y-70000000D01*
X108495281Y-57504719D02*
X103460000Y-62540000D01*
X103460000Y-70000000D02*
X103460000Y-76540000D01*
X103460000Y-76540000D02*
X103000000Y-77000000D01*
X108495281Y-50030000D02*
X108495281Y-33520000D01*
X120000000Y-31500000D02*
X124250000Y-31500000D01*
X97500000Y-31500000D02*
X97000000Y-31000000D01*
X97000000Y-31000000D02*
X90000000Y-31000000D01*
X98000000Y-31500000D02*
X100000000Y-31500000D01*
X120000000Y-31500000D02*
X115000000Y-31500000D01*
X115000000Y-31500000D02*
X100000000Y-31500000D01*
X98000000Y-31500000D02*
X97500000Y-31500000D01*
X73500000Y-40500000D02*
X79000000Y-40500000D01*
X66555140Y-33555140D02*
X73500000Y-40500000D01*
X80500000Y-40500000D02*
X90000000Y-31000000D01*
X79000000Y-40500000D02*
X80500000Y-40500000D01*
X124250000Y-31500000D02*
X127000000Y-34250000D01*
X66555140Y-32335120D02*
X66555140Y-33555140D01*
X52839140Y-32335120D02*
X66555140Y-32335120D01*
X127000000Y-49750000D02*
X127000000Y-34250000D01*
D30*
G36*
X81661086Y-27334727D02*
X81363132Y-27626505D01*
X81127526Y-27970599D01*
X80963242Y-28353902D01*
X80876538Y-28761816D01*
X80870715Y-29178801D01*
X80945996Y-29588976D01*
X81099514Y-29976717D01*
X81325420Y-30327256D01*
X81615111Y-30627239D01*
X81957552Y-30865242D01*
X82339699Y-31032198D01*
X82746997Y-31121748D01*
X83163932Y-31130481D01*
X83574622Y-31058066D01*
X83963426Y-30907259D01*
X84315533Y-30683805D01*
X84617531Y-30396215D01*
X84857919Y-30055445D01*
X85027538Y-29674472D01*
X85119930Y-29267809D01*
X85126581Y-28791487D01*
X85045580Y-28382403D01*
X84886664Y-27996843D01*
X84655885Y-27649493D01*
X84362034Y-27353583D01*
X84137303Y-27202000D01*
X96863915Y-27202000D01*
X96661086Y-27334727D01*
X96363132Y-27626505D01*
X96127526Y-27970599D01*
X95963242Y-28353902D01*
X95876538Y-28761816D01*
X95870715Y-29178801D01*
X95906357Y-29373000D01*
X90000000Y-29373000D01*
X89850449Y-29387664D01*
X89700711Y-29400764D01*
X89692494Y-29403151D01*
X89683981Y-29403986D01*
X89540119Y-29447421D01*
X89395784Y-29489354D01*
X89388188Y-29493291D01*
X89379998Y-29495764D01*
X89247302Y-29566320D01*
X89113872Y-29635483D01*
X89107186Y-29640821D01*
X89099632Y-29644837D01*
X88983147Y-29739840D01*
X88865712Y-29833587D01*
X88853806Y-29845327D01*
X88853560Y-29845528D01*
X88853372Y-29845756D01*
X88849537Y-29849537D01*
X79826074Y-38873000D01*
X74173926Y-38873000D01*
X73180905Y-37879979D01*
X73745368Y-38194024D01*
X74801994Y-38534079D01*
X75904659Y-38661462D01*
X77010987Y-38571279D01*
X78078464Y-38266994D01*
X79066067Y-37760302D01*
X79224613Y-37654365D01*
X79800734Y-36980339D01*
X76000000Y-33179605D01*
X75985858Y-33193748D01*
X75806253Y-33014143D01*
X75820395Y-33000000D01*
X76179605Y-33000000D01*
X79980339Y-36800734D01*
X80654365Y-36224613D01*
X81194024Y-35254632D01*
X81534079Y-34198006D01*
X81661462Y-33095341D01*
X81571279Y-31989013D01*
X81266994Y-30921536D01*
X80760302Y-29933933D01*
X80654365Y-29775387D01*
X79980339Y-29199266D01*
X76179605Y-33000000D01*
X75820395Y-33000000D01*
X72019661Y-29199266D01*
X71345635Y-29775387D01*
X70805976Y-30745368D01*
X70465921Y-31801994D01*
X70338538Y-32904659D01*
X70428721Y-34010987D01*
X70733006Y-35078464D01*
X71105579Y-35804653D01*
X68877845Y-33576919D01*
X69059774Y-33168301D01*
X69173906Y-32665947D01*
X69182122Y-32077542D01*
X69082061Y-31572197D01*
X68885751Y-31095912D01*
X68600668Y-30666828D01*
X68237672Y-30301289D01*
X67810588Y-30013217D01*
X67335685Y-29813586D01*
X66831051Y-29710000D01*
X66315908Y-29706403D01*
X65809877Y-29802934D01*
X65332233Y-29995915D01*
X64901169Y-30277995D01*
X64533104Y-30638431D01*
X64485387Y-30708120D01*
X54912102Y-30708120D01*
X54884668Y-30666828D01*
X54521672Y-30301289D01*
X54094588Y-30013217D01*
X53619685Y-29813586D01*
X53115051Y-29710000D01*
X52599908Y-29706403D01*
X52093877Y-29802934D01*
X51616233Y-29995915D01*
X51185169Y-30277995D01*
X50817104Y-30638431D01*
X50526058Y-31063493D01*
X50323117Y-31536990D01*
X50216010Y-32040889D01*
X50208817Y-32555994D01*
X50301813Y-33062687D01*
X50491454Y-33541667D01*
X50770518Y-33974689D01*
X51128376Y-34345261D01*
X51551395Y-34639268D01*
X52023465Y-34845510D01*
X52526603Y-34956132D01*
X53041646Y-34966921D01*
X53548975Y-34877465D01*
X54029267Y-34691172D01*
X54464228Y-34415137D01*
X54837289Y-34059876D01*
X54906248Y-33962120D01*
X55132021Y-33962120D01*
X55109344Y-34044719D01*
X55887140Y-34822515D01*
X55901283Y-34808373D01*
X56080888Y-34987978D01*
X56066745Y-35002120D01*
X56080888Y-35016263D01*
X55901283Y-35195868D01*
X55887140Y-35181725D01*
X55109344Y-35959521D01*
X55174939Y-36198446D01*
X55422015Y-36314403D01*
X55686967Y-36379929D01*
X55959610Y-36392507D01*
X56229469Y-36351653D01*
X56486172Y-36258937D01*
X56599341Y-36198446D01*
X56664935Y-35959523D01*
X56781388Y-36075976D01*
X56844639Y-36012725D01*
X56948581Y-36174012D01*
X57204361Y-36438880D01*
X57506717Y-36649023D01*
X57844132Y-36796436D01*
X58203753Y-36875503D01*
X58571882Y-36883215D01*
X58934499Y-36819275D01*
X59277790Y-36686121D01*
X59442081Y-36581859D01*
X59538717Y-36649023D01*
X59876132Y-36796436D01*
X60235753Y-36875503D01*
X60603882Y-36883215D01*
X60966499Y-36819275D01*
X61309790Y-36686121D01*
X61620681Y-36488824D01*
X61726906Y-36387668D01*
X61776361Y-36438880D01*
X62078717Y-36649023D01*
X62416132Y-36796436D01*
X62775753Y-36875503D01*
X63143882Y-36883215D01*
X63506499Y-36819275D01*
X63849790Y-36686121D01*
X64160681Y-36488824D01*
X64427329Y-36234899D01*
X64639577Y-35934018D01*
X64789342Y-35597641D01*
X64870918Y-35238581D01*
X64876791Y-34818015D01*
X64805272Y-34456817D01*
X64695934Y-34191546D01*
X64844376Y-34345261D01*
X65267395Y-34639268D01*
X65393662Y-34694433D01*
X65400467Y-34701334D01*
X65400668Y-34701580D01*
X65400896Y-34701768D01*
X65404677Y-34705603D01*
X72349537Y-41650463D01*
X72465672Y-41745857D01*
X72580799Y-41842460D01*
X72588299Y-41846583D01*
X72594907Y-41852011D01*
X72727332Y-41923017D01*
X72859057Y-41995433D01*
X72867211Y-41998020D01*
X72874752Y-42002063D01*
X73018490Y-42046008D01*
X73161728Y-42091446D01*
X73170229Y-42092400D01*
X73178411Y-42094901D01*
X73327954Y-42110091D01*
X73477284Y-42126841D01*
X73494005Y-42126958D01*
X73494320Y-42126990D01*
X73494613Y-42126962D01*
X73500000Y-42127000D01*
X80500000Y-42127000D01*
X80649551Y-42112336D01*
X80799289Y-42099236D01*
X80807506Y-42096849D01*
X80816019Y-42096014D01*
X80959881Y-42052579D01*
X81104216Y-42010646D01*
X81111812Y-42006709D01*
X81120002Y-42004236D01*
X81252698Y-41933680D01*
X81386128Y-41864517D01*
X81392814Y-41859179D01*
X81400368Y-41855163D01*
X81516853Y-41760160D01*
X81634288Y-41666413D01*
X81646194Y-41654673D01*
X81646440Y-41654472D01*
X81646628Y-41654244D01*
X81650463Y-41650463D01*
X87867547Y-35433379D01*
X87867547Y-36000000D01*
X87881859Y-36179471D01*
X87976126Y-36483872D01*
X88074464Y-36633106D01*
X87962753Y-36893747D01*
X87876028Y-37301758D01*
X87870204Y-37718844D01*
X87945503Y-38129118D01*
X88099058Y-38516952D01*
X88325018Y-38867574D01*
X88614779Y-39167630D01*
X88957301Y-39405689D01*
X89339540Y-39572685D01*
X89746936Y-39662257D01*
X90163971Y-39670993D01*
X90574760Y-39598560D01*
X90963657Y-39447717D01*
X91315848Y-39224209D01*
X91617919Y-38936551D01*
X91858365Y-38595698D01*
X92028025Y-38214634D01*
X92120439Y-37807874D01*
X92127092Y-37331437D01*
X92046071Y-36922255D01*
X91929068Y-36638384D01*
X91956664Y-36606006D01*
X92087618Y-36315494D01*
X92132453Y-36000000D01*
X92132453Y-34000000D01*
X92118141Y-33820529D01*
X92023874Y-33516128D01*
X91848534Y-33250040D01*
X91606006Y-33043336D01*
X91315494Y-32912382D01*
X91000000Y-32867547D01*
X90433379Y-32867547D01*
X90673926Y-32627000D01*
X92255111Y-32627000D01*
X92251531Y-32635353D01*
X92177099Y-32985529D01*
X92172100Y-33343493D01*
X92236726Y-33695611D01*
X92368514Y-34028470D01*
X92562445Y-34329392D01*
X92811132Y-34586915D01*
X93105103Y-34791230D01*
X93433160Y-34934554D01*
X93782808Y-35011429D01*
X94140728Y-35018927D01*
X94493289Y-34956761D01*
X94827060Y-34827300D01*
X95129328Y-34635474D01*
X95388581Y-34388591D01*
X95499376Y-34231529D01*
X95562445Y-34329392D01*
X95811132Y-34586915D01*
X96105103Y-34791230D01*
X96433160Y-34934554D01*
X96782808Y-35011429D01*
X97140728Y-35018927D01*
X97493289Y-34956761D01*
X97827060Y-34827300D01*
X98129328Y-34635474D01*
X98347556Y-34427659D01*
X98383000Y-34482657D01*
X98383000Y-39221736D01*
X98304506Y-39154836D01*
X98013994Y-39023882D01*
X97698500Y-38979047D01*
X96301500Y-38979047D01*
X96122029Y-38993359D01*
X95817628Y-39087626D01*
X95551540Y-39262966D01*
X95500980Y-39322289D01*
X95304506Y-39154836D01*
X95013994Y-39023882D01*
X94698500Y-38979047D01*
X93301500Y-38979047D01*
X93122029Y-38993359D01*
X92817628Y-39087626D01*
X92551540Y-39262966D01*
X92344836Y-39505494D01*
X92213882Y-39796006D01*
X92169047Y-40111500D01*
X92169047Y-41508500D01*
X92183359Y-41687971D01*
X92277626Y-41992372D01*
X92452966Y-42258460D01*
X92695494Y-42465164D01*
X92770236Y-42498855D01*
X92551540Y-42642966D01*
X92344836Y-42885494D01*
X92213882Y-43176006D01*
X92169047Y-43491500D01*
X92169047Y-44888500D01*
X92183359Y-45067971D01*
X92277626Y-45372372D01*
X92452966Y-45638460D01*
X92695494Y-45845164D01*
X92986006Y-45976118D01*
X93301500Y-46020953D01*
X94698500Y-46020953D01*
X94877971Y-46006641D01*
X95182372Y-45912374D01*
X95448460Y-45737034D01*
X95499020Y-45677711D01*
X95695494Y-45845164D01*
X95986006Y-45976118D01*
X96301500Y-46020953D01*
X97698500Y-46020953D01*
X97877971Y-46006641D01*
X98182372Y-45912374D01*
X98383000Y-45780169D01*
X98383000Y-49062472D01*
X98346647Y-49115564D01*
X98200711Y-49456060D01*
X98123689Y-49818416D01*
X98118517Y-50188832D01*
X98154874Y-50386927D01*
X97872453Y-50196432D01*
X97542427Y-50057701D01*
X97191740Y-49985716D01*
X96833750Y-49983216D01*
X96482092Y-50050299D01*
X96150161Y-50184408D01*
X95850600Y-50380435D01*
X95594819Y-50630913D01*
X95500203Y-50769096D01*
X95421506Y-50650648D01*
X95169248Y-50396622D01*
X94872453Y-50196432D01*
X94542427Y-50057701D01*
X94191740Y-49985716D01*
X93833750Y-49983216D01*
X93482092Y-50050299D01*
X93150161Y-50184408D01*
X92850600Y-50380435D01*
X92594819Y-50630913D01*
X92392562Y-50926303D01*
X92251531Y-51255353D01*
X92177099Y-51605529D01*
X92172100Y-51963493D01*
X92236726Y-52315611D01*
X92368514Y-52648470D01*
X92562445Y-52949392D01*
X92811132Y-53206915D01*
X93050097Y-53373000D01*
X86540000Y-53373000D01*
X86390412Y-53387667D01*
X86240710Y-53400764D01*
X86232492Y-53403151D01*
X86223981Y-53403986D01*
X86080131Y-53447417D01*
X85935784Y-53489354D01*
X85928189Y-53493291D01*
X85919998Y-53495764D01*
X85787262Y-53566341D01*
X85653872Y-53635484D01*
X85647189Y-53640819D01*
X85639632Y-53644837D01*
X85523120Y-53739862D01*
X85405712Y-53833587D01*
X85393810Y-53845324D01*
X85393560Y-53845528D01*
X85393368Y-53845760D01*
X85389537Y-53849538D01*
X83720527Y-55518547D01*
X83111000Y-55518547D01*
X82931529Y-55532859D01*
X82627128Y-55627126D01*
X82361040Y-55802466D01*
X82154336Y-56044994D01*
X82023382Y-56335506D01*
X81978547Y-56651000D01*
X81978547Y-58429000D01*
X81992859Y-58608471D01*
X82087126Y-58912872D01*
X82262466Y-59178960D01*
X82504994Y-59385664D01*
X82795506Y-59516618D01*
X83111000Y-59561453D01*
X84889000Y-59561453D01*
X85068471Y-59547141D01*
X85372872Y-59452874D01*
X85638960Y-59277534D01*
X85845664Y-59035006D01*
X85976618Y-58744494D01*
X86021453Y-58429000D01*
X86021453Y-57819473D01*
X87213925Y-56627000D01*
X88362793Y-56627000D01*
X88127526Y-56970599D01*
X87963242Y-57353902D01*
X87876538Y-57761816D01*
X87870715Y-58178801D01*
X87945996Y-58588976D01*
X88099514Y-58976717D01*
X88325420Y-59327256D01*
X88615111Y-59627239D01*
X88957552Y-59865242D01*
X89339699Y-60032198D01*
X89746997Y-60121748D01*
X90163932Y-60130481D01*
X90574622Y-60058066D01*
X90963426Y-59907259D01*
X91315533Y-59683805D01*
X91339573Y-59660912D01*
X91127526Y-59970599D01*
X90963242Y-60353902D01*
X90876538Y-60761816D01*
X90870715Y-61178801D01*
X90945996Y-61588976D01*
X91099514Y-61976717D01*
X91262217Y-62229184D01*
X91001740Y-62175716D01*
X90643750Y-62173216D01*
X90292092Y-62240299D01*
X89960161Y-62374408D01*
X89660600Y-62570435D01*
X89404819Y-62820913D01*
X89202562Y-63116303D01*
X89061531Y-63445353D01*
X88987099Y-63795529D01*
X88982100Y-64153493D01*
X89046726Y-64505611D01*
X89178514Y-64838470D01*
X89372445Y-65139392D01*
X89621132Y-65396915D01*
X89915103Y-65601230D01*
X90243160Y-65744554D01*
X90592808Y-65821429D01*
X90950728Y-65828927D01*
X91303289Y-65766761D01*
X91632264Y-65639160D01*
X91957552Y-65865242D01*
X92339699Y-66032198D01*
X92746997Y-66121748D01*
X93163932Y-66130481D01*
X93574622Y-66058066D01*
X93963426Y-65907259D01*
X94315533Y-65683805D01*
X94617531Y-65396215D01*
X94857919Y-65055445D01*
X95027538Y-64674472D01*
X95119930Y-64267809D01*
X95126581Y-63791487D01*
X95045580Y-63382403D01*
X94886664Y-62996843D01*
X94655885Y-62649493D01*
X94507974Y-62500545D01*
X94617531Y-62396215D01*
X94857919Y-62055445D01*
X95027538Y-61674472D01*
X95119930Y-61267809D01*
X95126581Y-60791487D01*
X95045580Y-60382403D01*
X94886664Y-59996843D01*
X94655885Y-59649493D01*
X94362034Y-59353583D01*
X94016304Y-59120385D01*
X93631863Y-58958781D01*
X93223354Y-58874926D01*
X92806338Y-58872015D01*
X92396699Y-58950158D01*
X92010039Y-59106379D01*
X91661086Y-59334727D01*
X91660505Y-59335296D01*
X91857919Y-59055445D01*
X92027538Y-58674472D01*
X92119930Y-58267809D01*
X92126581Y-57791487D01*
X92045580Y-57382403D01*
X91886664Y-56996843D01*
X91655885Y-56649493D01*
X91633549Y-56627000D01*
X97000000Y-56627000D01*
X97149551Y-56612336D01*
X97299289Y-56599236D01*
X97307506Y-56596849D01*
X97316019Y-56596014D01*
X97459881Y-56552579D01*
X97604216Y-56510646D01*
X97611812Y-56506709D01*
X97620002Y-56504236D01*
X97752698Y-56433680D01*
X97886128Y-56364517D01*
X97892814Y-56359179D01*
X97900368Y-56355163D01*
X98016853Y-56260160D01*
X98134288Y-56166413D01*
X98146194Y-56154673D01*
X98146440Y-56154472D01*
X98146628Y-56154244D01*
X98150463Y-56150463D01*
X101160463Y-53140463D01*
X101255879Y-53024301D01*
X101352460Y-52909201D01*
X101356581Y-52901705D01*
X101362012Y-52895093D01*
X101433038Y-52762629D01*
X101505433Y-52630943D01*
X101508020Y-52622789D01*
X101512063Y-52615248D01*
X101556008Y-52471510D01*
X101601446Y-52328272D01*
X101602400Y-52319771D01*
X101604901Y-52311589D01*
X101620096Y-52162006D01*
X101636841Y-52012716D01*
X101636958Y-51996004D01*
X101636991Y-51995679D01*
X101636962Y-51995376D01*
X101637000Y-51990000D01*
X101637000Y-51000775D01*
X101660423Y-50967571D01*
X101811100Y-50629146D01*
X101893173Y-50267900D01*
X101899081Y-49844774D01*
X101827126Y-49481377D01*
X101685958Y-49138877D01*
X101637000Y-49065189D01*
X101637000Y-45946191D01*
X102361158Y-45946191D01*
X102428032Y-46310557D01*
X102564404Y-46654995D01*
X102765081Y-46966384D01*
X103022419Y-47232865D01*
X103326615Y-47444287D01*
X103666083Y-47592597D01*
X104027894Y-47672147D01*
X104398264Y-47679905D01*
X104763088Y-47615576D01*
X105108470Y-47481612D01*
X105421253Y-47283114D01*
X105689524Y-47027643D01*
X105903064Y-46724930D01*
X106053741Y-46386505D01*
X106135814Y-46025259D01*
X106141722Y-45602133D01*
X106069767Y-45238736D01*
X105928599Y-44896236D01*
X105723594Y-44587679D01*
X105462561Y-44324817D01*
X105155442Y-44117663D01*
X104813936Y-43974107D01*
X104451051Y-43899617D01*
X104080608Y-43897031D01*
X103716717Y-43966447D01*
X103373240Y-44105221D01*
X103063259Y-44308066D01*
X102798581Y-44567258D01*
X102589288Y-44872923D01*
X102443352Y-45213419D01*
X102366330Y-45575775D01*
X102361158Y-45946191D01*
X101637000Y-45946191D01*
X101637000Y-37921473D01*
X102361158Y-37921473D01*
X102428032Y-38285839D01*
X102564404Y-38630277D01*
X102765081Y-38941666D01*
X103022419Y-39208147D01*
X103326615Y-39419569D01*
X103666083Y-39567879D01*
X104027894Y-39647429D01*
X104398264Y-39655187D01*
X104763088Y-39590858D01*
X105108470Y-39456894D01*
X105421253Y-39258396D01*
X105689524Y-39002925D01*
X105903064Y-38700212D01*
X106053741Y-38361787D01*
X106135814Y-38000541D01*
X106141722Y-37577415D01*
X106069767Y-37214018D01*
X105928599Y-36871518D01*
X105723594Y-36562961D01*
X105462561Y-36300099D01*
X105155442Y-36092945D01*
X104813936Y-35949389D01*
X104451051Y-35874899D01*
X104080608Y-35872313D01*
X103716717Y-35941729D01*
X103373240Y-36080503D01*
X103063259Y-36283348D01*
X102798581Y-36542540D01*
X102589288Y-36848205D01*
X102443352Y-37188701D01*
X102366330Y-37551057D01*
X102361158Y-37921473D01*
X101637000Y-37921473D01*
X101637000Y-34490775D01*
X101660423Y-34457571D01*
X101811100Y-34119146D01*
X101893173Y-33757900D01*
X101899081Y-33334774D01*
X101857940Y-33127000D01*
X106647532Y-33127000D01*
X106608970Y-33308416D01*
X106603798Y-33678832D01*
X106670672Y-34043198D01*
X106807044Y-34387636D01*
X106868281Y-34482657D01*
X106868281Y-49062472D01*
X106831928Y-49115564D01*
X106685992Y-49456060D01*
X106608970Y-49818416D01*
X106603798Y-50188832D01*
X106670672Y-50553198D01*
X106807044Y-50897636D01*
X106868281Y-50992657D01*
X106868281Y-56830793D01*
X106813042Y-56886032D01*
X106655885Y-56649493D01*
X106362034Y-56353583D01*
X106016304Y-56120385D01*
X105631863Y-55958781D01*
X105246048Y-55879584D01*
X105421253Y-55768396D01*
X105689524Y-55512925D01*
X105903064Y-55210212D01*
X106053741Y-54871787D01*
X106135814Y-54510541D01*
X106141722Y-54087415D01*
X106069767Y-53724018D01*
X105928599Y-53381518D01*
X105723594Y-53072961D01*
X105462561Y-52810099D01*
X105155442Y-52602945D01*
X104813936Y-52459389D01*
X104451051Y-52384899D01*
X104080608Y-52382313D01*
X103716717Y-52451729D01*
X103373240Y-52590503D01*
X103063259Y-52793348D01*
X102798581Y-53052540D01*
X102589288Y-53358205D01*
X102443352Y-53698701D01*
X102366330Y-54061057D01*
X102361158Y-54431473D01*
X102428032Y-54795839D01*
X102564404Y-55140277D01*
X102765081Y-55451666D01*
X103022419Y-55718147D01*
X103326615Y-55929569D01*
X103666083Y-56077879D01*
X103956136Y-56141652D01*
X103661086Y-56334727D01*
X103363132Y-56626505D01*
X103127526Y-56970599D01*
X102963242Y-57353902D01*
X102876538Y-57761816D01*
X102870715Y-58178801D01*
X102945996Y-58588976D01*
X103099514Y-58976717D01*
X103325420Y-59327256D01*
X103615111Y-59627239D01*
X103884562Y-59814512D01*
X102309537Y-61389537D01*
X102214121Y-61505699D01*
X102117540Y-61620799D01*
X102113419Y-61628295D01*
X102107988Y-61634907D01*
X102036962Y-61767371D01*
X101964567Y-61899057D01*
X101961980Y-61907211D01*
X101957937Y-61914752D01*
X101913992Y-62058490D01*
X101868554Y-62201728D01*
X101867600Y-62210229D01*
X101865099Y-62218411D01*
X101849909Y-62367949D01*
X101833159Y-62517284D01*
X101833042Y-62534006D01*
X101833010Y-62534321D01*
X101833038Y-62534614D01*
X101833000Y-62540000D01*
X101833000Y-68616842D01*
X101823132Y-68626505D01*
X101587526Y-68970599D01*
X101423242Y-69353902D01*
X101336538Y-69761816D01*
X101330715Y-70178801D01*
X101405996Y-70588976D01*
X101559514Y-70976717D01*
X101785420Y-71327256D01*
X101833000Y-71376526D01*
X101833000Y-74144780D01*
X101561551Y-74286690D01*
X101161984Y-74607950D01*
X101000206Y-74800750D01*
X100864042Y-74633796D01*
X100469000Y-74306988D01*
X100018003Y-74063136D01*
X99528232Y-73911526D01*
X99018340Y-73857934D01*
X98507749Y-73904401D01*
X98015908Y-74049158D01*
X97561551Y-74286690D01*
X97161984Y-74607950D01*
X96832427Y-75000702D01*
X96585431Y-75449985D01*
X96430406Y-75938686D01*
X96373256Y-76448191D01*
X96373000Y-76484870D01*
X96373000Y-77515130D01*
X96423031Y-78025384D01*
X96571218Y-78516202D01*
X96811916Y-78968890D01*
X97135958Y-79366204D01*
X97531000Y-79693012D01*
X97981997Y-79936864D01*
X98471768Y-80088474D01*
X98981660Y-80142066D01*
X99492251Y-80095599D01*
X99984092Y-79950842D01*
X100438449Y-79713310D01*
X100838016Y-79392050D01*
X100999794Y-79199250D01*
X101135958Y-79366204D01*
X101531000Y-79693012D01*
X101981997Y-79936864D01*
X102471768Y-80088474D01*
X102981660Y-80142066D01*
X103492251Y-80095599D01*
X103984092Y-79950842D01*
X104438449Y-79713310D01*
X104838016Y-79392050D01*
X105167573Y-78999298D01*
X105288150Y-78779970D01*
X105295370Y-78791739D01*
X105580130Y-79099475D01*
X105919454Y-79345744D01*
X106300303Y-79521083D01*
X106541167Y-79585113D01*
X106873000Y-79472165D01*
X106873000Y-77127000D01*
X107127000Y-77127000D01*
X107127000Y-79472165D01*
X107458833Y-79585113D01*
X107699697Y-79521083D01*
X108080546Y-79345744D01*
X108419870Y-79099475D01*
X108704630Y-78791739D01*
X108923882Y-78434362D01*
X109069200Y-78041078D01*
X109135000Y-77627000D01*
X109135000Y-77127000D01*
X107127000Y-77127000D01*
X106873000Y-77127000D01*
X106853000Y-77127000D01*
X106853000Y-76873000D01*
X106873000Y-76873000D01*
X106873000Y-74527835D01*
X107127000Y-74527835D01*
X107127000Y-76873000D01*
X109135000Y-76873000D01*
X109135000Y-76373000D01*
X109069200Y-75958922D01*
X108923882Y-75565638D01*
X108704630Y-75208261D01*
X108419870Y-74900525D01*
X108080546Y-74654256D01*
X107699697Y-74478917D01*
X107458833Y-74414887D01*
X107127000Y-74527835D01*
X106873000Y-74527835D01*
X106541167Y-74414887D01*
X106300303Y-74478917D01*
X105919454Y-74654256D01*
X105580130Y-74900525D01*
X105295370Y-75208261D01*
X105288356Y-75219694D01*
X105188084Y-75031110D01*
X105087000Y-74907169D01*
X105087000Y-71382792D01*
X105118222Y-71338532D01*
X105140258Y-71399399D01*
X105429787Y-71540238D01*
X105741229Y-71621885D01*
X106062615Y-71641205D01*
X106381595Y-71597454D01*
X106552832Y-71538292D01*
X106691976Y-71749450D01*
X106934504Y-71956154D01*
X107225016Y-72087108D01*
X107540510Y-72131943D01*
X109539490Y-72131943D01*
X109718961Y-72117631D01*
X110023362Y-72023364D01*
X110289450Y-71848024D01*
X110496154Y-71605496D01*
X110627108Y-71314984D01*
X110671943Y-70999490D01*
X110671943Y-69000510D01*
X110657631Y-68821039D01*
X110563364Y-68516638D01*
X110388024Y-68250550D01*
X110145496Y-68043846D01*
X109854984Y-67912892D01*
X109539490Y-67868057D01*
X107540510Y-67868057D01*
X107361039Y-67882369D01*
X107056638Y-67976636D01*
X106790550Y-68151976D01*
X106583846Y-68394504D01*
X106556098Y-68456062D01*
X106258771Y-68378115D01*
X105937385Y-68358795D01*
X105618405Y-68402546D01*
X105314089Y-68507686D01*
X105140258Y-68600601D01*
X105120204Y-68655994D01*
X105115885Y-68649493D01*
X105087000Y-68620406D01*
X105087000Y-63213926D01*
X106187571Y-62113355D01*
X106325420Y-62327256D01*
X106492275Y-62500039D01*
X106363132Y-62626505D01*
X106127526Y-62970599D01*
X105963242Y-63353902D01*
X105876538Y-63761816D01*
X105870715Y-64178801D01*
X105945996Y-64588976D01*
X106099514Y-64976717D01*
X106325420Y-65327256D01*
X106615111Y-65627239D01*
X106957552Y-65865242D01*
X107339699Y-66032198D01*
X107746997Y-66121748D01*
X108163932Y-66130481D01*
X108574622Y-66058066D01*
X108963426Y-65907259D01*
X109315533Y-65683805D01*
X109617531Y-65396215D01*
X109857919Y-65055445D01*
X110027538Y-64674472D01*
X110119930Y-64267809D01*
X110126581Y-63791487D01*
X110045580Y-63382403D01*
X109886664Y-62996843D01*
X109655885Y-62649493D01*
X109507974Y-62500545D01*
X109617531Y-62396215D01*
X109857919Y-62055445D01*
X110027538Y-61674472D01*
X110119930Y-61267809D01*
X110126581Y-60791487D01*
X110045580Y-60382403D01*
X109886664Y-59996843D01*
X109655885Y-59649493D01*
X109362034Y-59353583D01*
X109114385Y-59186541D01*
X109645744Y-58655182D01*
X109741160Y-58539020D01*
X109837741Y-58423920D01*
X109841862Y-58416424D01*
X109847293Y-58409812D01*
X109918319Y-58277348D01*
X109990714Y-58145662D01*
X109993301Y-58137508D01*
X109997344Y-58129967D01*
X110041285Y-57986242D01*
X110086727Y-57842991D01*
X110087681Y-57834488D01*
X110090182Y-57826307D01*
X110105376Y-57676730D01*
X110122122Y-57527435D01*
X110122239Y-57510723D01*
X110122272Y-57510398D01*
X110122243Y-57510095D01*
X110122281Y-57504719D01*
X110122281Y-56012045D01*
X110325420Y-56327256D01*
X110615111Y-56627239D01*
X110957552Y-56865242D01*
X111339699Y-57032198D01*
X111746997Y-57121748D01*
X112163932Y-57130481D01*
X112574622Y-57058066D01*
X112963426Y-56907259D01*
X113315533Y-56683805D01*
X113617531Y-56396215D01*
X113857919Y-56055445D01*
X114027538Y-55674472D01*
X114119930Y-55267809D01*
X114126581Y-54791487D01*
X114045580Y-54382403D01*
X113886664Y-53996843D01*
X113655885Y-53649493D01*
X113627000Y-53620406D01*
X113627000Y-50044234D01*
X113741873Y-50097041D01*
X113812805Y-50113731D01*
X115849537Y-52150463D01*
X115965699Y-52245879D01*
X116080799Y-52342460D01*
X116088295Y-52346581D01*
X116094907Y-52352012D01*
X116227371Y-52423038D01*
X116359057Y-52495433D01*
X116367211Y-52498020D01*
X116374752Y-52502063D01*
X116518477Y-52546004D01*
X116661728Y-52591446D01*
X116670231Y-52592400D01*
X116678412Y-52594901D01*
X116827989Y-52610095D01*
X116977284Y-52626841D01*
X116993996Y-52626958D01*
X116994321Y-52626991D01*
X116994624Y-52626962D01*
X117000000Y-52627000D01*
X122326074Y-52627000D01*
X124870814Y-55171740D01*
X124870715Y-55178801D01*
X124945996Y-55588976D01*
X125099514Y-55976717D01*
X125325420Y-56327256D01*
X125615111Y-56627239D01*
X125957552Y-56865242D01*
X126339699Y-57032198D01*
X126746997Y-57121748D01*
X127163932Y-57130481D01*
X127574622Y-57058066D01*
X127963426Y-56907259D01*
X128315533Y-56683805D01*
X128375184Y-56627000D01*
X128798000Y-56627000D01*
X128798000Y-80798000D01*
X31202000Y-80798000D01*
X31202000Y-72515175D01*
X31864946Y-72515175D01*
X32081852Y-73697002D01*
X32524178Y-74814190D01*
X33175077Y-75824187D01*
X34009755Y-76688522D01*
X34996421Y-77374272D01*
X36097492Y-77855318D01*
X37271029Y-78113337D01*
X38472332Y-78138501D01*
X39655644Y-77929851D01*
X40775893Y-77495335D01*
X41790410Y-76851503D01*
X42660551Y-76022879D01*
X43353172Y-75041025D01*
X43841894Y-73943339D01*
X44108099Y-72771632D01*
X44111680Y-72515175D01*
X69864946Y-72515175D01*
X70081852Y-73697002D01*
X70524178Y-74814190D01*
X71175077Y-75824187D01*
X72009755Y-76688522D01*
X72996421Y-77374272D01*
X74097492Y-77855318D01*
X75271029Y-78113337D01*
X76472332Y-78138501D01*
X77655644Y-77929851D01*
X78775893Y-77495335D01*
X79790410Y-76851503D01*
X80660551Y-76022879D01*
X81353172Y-75041025D01*
X81841894Y-73943339D01*
X82108099Y-72771632D01*
X82127263Y-71399217D01*
X81893877Y-70220534D01*
X81435996Y-69109630D01*
X80771059Y-68108819D01*
X79924394Y-67256223D01*
X78928250Y-66584315D01*
X77820570Y-66118689D01*
X76643545Y-65877081D01*
X75442007Y-65868692D01*
X74261724Y-66093843D01*
X73147650Y-66543958D01*
X72142222Y-67201892D01*
X71283736Y-68042584D01*
X70604890Y-69034013D01*
X70131542Y-70138416D01*
X69881723Y-71313725D01*
X69864946Y-72515175D01*
X44111680Y-72515175D01*
X44127263Y-71399217D01*
X43893877Y-70220534D01*
X43435996Y-69109630D01*
X42771059Y-68108819D01*
X41924394Y-67256223D01*
X40928250Y-66584315D01*
X39820570Y-66118689D01*
X38643545Y-65877081D01*
X37442007Y-65868692D01*
X36261724Y-66093843D01*
X35147650Y-66543958D01*
X34142222Y-67201892D01*
X33283736Y-68042584D01*
X32604890Y-69034013D01*
X32131542Y-70138416D01*
X31881723Y-71313725D01*
X31864946Y-72515175D01*
X31202000Y-72515175D01*
X31202000Y-65688832D01*
X52108517Y-65688832D01*
X52175391Y-66053198D01*
X52311763Y-66397636D01*
X52512440Y-66709025D01*
X52769778Y-66975506D01*
X53073974Y-67186928D01*
X53413442Y-67335238D01*
X53775253Y-67414788D01*
X54145623Y-67422546D01*
X54510447Y-67358217D01*
X54855829Y-67224253D01*
X55168612Y-67025755D01*
X55436883Y-66770284D01*
X55585400Y-66559746D01*
X55637631Y-66611977D01*
X55754041Y-66495567D01*
X55821020Y-66735656D01*
X56070048Y-66852756D01*
X56337135Y-66919023D01*
X56612017Y-66931910D01*
X56884133Y-66890922D01*
X57143023Y-66797636D01*
X57258980Y-66735656D01*
X57325960Y-66495565D01*
X56540000Y-65709605D01*
X56525858Y-65723748D01*
X56346253Y-65544143D01*
X56360395Y-65530000D01*
X56719605Y-65530000D01*
X57505565Y-66315960D01*
X57745656Y-66248980D01*
X57862756Y-65999952D01*
X57929023Y-65732865D01*
X57941910Y-65457983D01*
X57900922Y-65185867D01*
X57807636Y-64926977D01*
X57745656Y-64811020D01*
X57505565Y-64744040D01*
X56719605Y-65530000D01*
X56360395Y-65530000D01*
X56346253Y-65515858D01*
X56525858Y-65336253D01*
X56540000Y-65350395D01*
X57325960Y-64564435D01*
X57258980Y-64324344D01*
X57009952Y-64207244D01*
X56742865Y-64140977D01*
X56467983Y-64128090D01*
X56195867Y-64169078D01*
X55936977Y-64262364D01*
X55821020Y-64324344D01*
X55754041Y-64564433D01*
X55637631Y-64448023D01*
X55584473Y-64501181D01*
X55470953Y-64330320D01*
X55209920Y-64067458D01*
X54902801Y-63860304D01*
X54561295Y-63716748D01*
X54198410Y-63642258D01*
X53827967Y-63639672D01*
X53464076Y-63709088D01*
X53120599Y-63847862D01*
X52810618Y-64050707D01*
X52545940Y-64309899D01*
X52336647Y-64615564D01*
X52190711Y-64956060D01*
X52113689Y-65318416D01*
X52108517Y-65688832D01*
X31202000Y-65688832D01*
X31202000Y-63301500D01*
X81359047Y-63301500D01*
X81359047Y-64698500D01*
X81373359Y-64877971D01*
X81467626Y-65182372D01*
X81642966Y-65448460D01*
X81885494Y-65655164D01*
X82176006Y-65786118D01*
X82491500Y-65830953D01*
X83888500Y-65830953D01*
X84067971Y-65816641D01*
X84372372Y-65722374D01*
X84638460Y-65547034D01*
X84845164Y-65304506D01*
X84976118Y-65013994D01*
X85020953Y-64698500D01*
X85020953Y-63301500D01*
X85006641Y-63122029D01*
X84912374Y-62817628D01*
X84737034Y-62551540D01*
X84494506Y-62344836D01*
X84203994Y-62213882D01*
X83888500Y-62169047D01*
X82491500Y-62169047D01*
X82312029Y-62183359D01*
X82007628Y-62277626D01*
X81741540Y-62452966D01*
X81534836Y-62695494D01*
X81403882Y-62986006D01*
X81359047Y-63301500D01*
X31202000Y-63301500D01*
X31202000Y-57000000D01*
X42867547Y-57000000D01*
X42867547Y-61000000D01*
X42881859Y-61179471D01*
X42976126Y-61483872D01*
X43151466Y-61749960D01*
X43393994Y-61956664D01*
X43684506Y-62087618D01*
X44000000Y-62132453D01*
X53000000Y-62132453D01*
X53179471Y-62118141D01*
X53483872Y-62023874D01*
X53749960Y-61848534D01*
X53956664Y-61606006D01*
X54087618Y-61315494D01*
X54132453Y-61000000D01*
X54132453Y-57000000D01*
X54118141Y-56820529D01*
X54023874Y-56516128D01*
X53848534Y-56250040D01*
X53606006Y-56043336D01*
X53315494Y-55912382D01*
X53000000Y-55867547D01*
X44000000Y-55867547D01*
X43820529Y-55881859D01*
X43516128Y-55976126D01*
X43250040Y-56151466D01*
X43043336Y-56393994D01*
X42912382Y-56684506D01*
X42867547Y-57000000D01*
X31202000Y-57000000D01*
X31202000Y-53516231D01*
X83123374Y-53516231D01*
X83205727Y-53769289D01*
X83476418Y-53899086D01*
X83767230Y-53973580D01*
X84066988Y-53989908D01*
X84364171Y-53947443D01*
X84647359Y-53847816D01*
X84794273Y-53769289D01*
X84876626Y-53516231D01*
X84000000Y-52639605D01*
X83123374Y-53516231D01*
X31202000Y-53516231D01*
X31202000Y-52526988D01*
X82470092Y-52526988D01*
X82512557Y-52824171D01*
X82612184Y-53107359D01*
X82690711Y-53254273D01*
X82943769Y-53336626D01*
X83820395Y-52460000D01*
X84179605Y-52460000D01*
X85056231Y-53336626D01*
X85309289Y-53254273D01*
X85439086Y-52983582D01*
X85513580Y-52692770D01*
X85529908Y-52393012D01*
X85487443Y-52095829D01*
X85387816Y-51812641D01*
X85309289Y-51665727D01*
X85056231Y-51583374D01*
X84179605Y-52460000D01*
X83820395Y-52460000D01*
X82943769Y-51583374D01*
X82690711Y-51665727D01*
X82560914Y-51936418D01*
X82486420Y-52227230D01*
X82470092Y-52526988D01*
X31202000Y-52526988D01*
X31202000Y-51403769D01*
X83123374Y-51403769D01*
X84000000Y-52280395D01*
X84876626Y-51403769D01*
X84794273Y-51150711D01*
X84523582Y-51020914D01*
X84232770Y-50946420D01*
X83933012Y-50930092D01*
X83635829Y-50972557D01*
X83352641Y-51072184D01*
X83205727Y-51150711D01*
X83123374Y-51403769D01*
X31202000Y-51403769D01*
X31202000Y-45000000D01*
X87867547Y-45000000D01*
X87867547Y-47000000D01*
X87881859Y-47179471D01*
X87976126Y-47483872D01*
X88074464Y-47633106D01*
X87962753Y-47893747D01*
X87876028Y-48301758D01*
X87870204Y-48718844D01*
X87945503Y-49129118D01*
X88099058Y-49516952D01*
X88325018Y-49867574D01*
X88614779Y-50167630D01*
X88957301Y-50405689D01*
X89339540Y-50572685D01*
X89746936Y-50662257D01*
X90163971Y-50670993D01*
X90574760Y-50598560D01*
X90963657Y-50447717D01*
X91315848Y-50224209D01*
X91617919Y-49936551D01*
X91858365Y-49595698D01*
X92028025Y-49214634D01*
X92120439Y-48807874D01*
X92127092Y-48331437D01*
X92046071Y-47922255D01*
X91929068Y-47638384D01*
X91956664Y-47606006D01*
X92087618Y-47315494D01*
X92132453Y-47000000D01*
X92132453Y-45000000D01*
X92118141Y-44820529D01*
X92023874Y-44516128D01*
X91848534Y-44250040D01*
X91606006Y-44043336D01*
X91315494Y-43912382D01*
X91000000Y-43867547D01*
X89000000Y-43867547D01*
X88820529Y-43881859D01*
X88516128Y-43976126D01*
X88250040Y-44151466D01*
X88043336Y-44393994D01*
X87912382Y-44684506D01*
X87867547Y-45000000D01*
X31202000Y-45000000D01*
X31202000Y-36980339D01*
X34199266Y-36980339D01*
X34775387Y-37654365D01*
X35745368Y-38194024D01*
X36801994Y-38534079D01*
X37904659Y-38661462D01*
X39010987Y-38571279D01*
X40078464Y-38266994D01*
X41066067Y-37760302D01*
X41224613Y-37654365D01*
X41800734Y-36980339D01*
X38000000Y-33179605D01*
X34199266Y-36980339D01*
X31202000Y-36980339D01*
X31202000Y-32904659D01*
X32338538Y-32904659D01*
X32428721Y-34010987D01*
X32733006Y-35078464D01*
X33239698Y-36066067D01*
X33345635Y-36224613D01*
X34019661Y-36800734D01*
X37820395Y-33000000D01*
X38179605Y-33000000D01*
X41980339Y-36800734D01*
X42654365Y-36224613D01*
X43194024Y-35254632D01*
X43251967Y-35074590D01*
X54496753Y-35074590D01*
X54537607Y-35344449D01*
X54630323Y-35601152D01*
X54690814Y-35714321D01*
X54929739Y-35779916D01*
X55707535Y-35002120D01*
X54929739Y-34224324D01*
X54690814Y-34289919D01*
X54574857Y-34536995D01*
X54509331Y-34801947D01*
X54496753Y-35074590D01*
X43251967Y-35074590D01*
X43534079Y-34198006D01*
X43661462Y-33095341D01*
X43571279Y-31989013D01*
X43266994Y-30921536D01*
X42760302Y-29933933D01*
X42654365Y-29775387D01*
X41980339Y-29199266D01*
X38179605Y-33000000D01*
X37820395Y-33000000D01*
X34019661Y-29199266D01*
X33345635Y-29775387D01*
X32805976Y-30745368D01*
X32465921Y-31801994D01*
X32338538Y-32904659D01*
X31202000Y-32904659D01*
X31202000Y-29019661D01*
X34199266Y-29019661D01*
X38000000Y-32820395D01*
X41800734Y-29019661D01*
X72199266Y-29019661D01*
X76000000Y-32820395D01*
X79800734Y-29019661D01*
X79224613Y-28345635D01*
X78254632Y-27805976D01*
X77198006Y-27465921D01*
X76095341Y-27338538D01*
X74989013Y-27428721D01*
X73921536Y-27733006D01*
X72933933Y-28239698D01*
X72775387Y-28345635D01*
X72199266Y-29019661D01*
X41800734Y-29019661D01*
X41224613Y-28345635D01*
X40254632Y-27805976D01*
X39198006Y-27465921D01*
X38095341Y-27338538D01*
X36989013Y-27428721D01*
X35921536Y-27733006D01*
X34933933Y-28239698D01*
X34775387Y-28345635D01*
X34199266Y-29019661D01*
X31202000Y-29019661D01*
X31202000Y-27202000D01*
X81863915Y-27202000D01*
X81661086Y-27334727D01*
X81661086Y-27334727D01*
G37*
X81661086Y-27334727D02*
X81363132Y-27626505D01*
X81127526Y-27970599D01*
X80963242Y-28353902D01*
X80876538Y-28761816D01*
X80870715Y-29178801D01*
X80945996Y-29588976D01*
X81099514Y-29976717D01*
X81325420Y-30327256D01*
X81615111Y-30627239D01*
X81957552Y-30865242D01*
X82339699Y-31032198D01*
X82746997Y-31121748D01*
X83163932Y-31130481D01*
X83574622Y-31058066D01*
X83963426Y-30907259D01*
X84315533Y-30683805D01*
X84617531Y-30396215D01*
X84857919Y-30055445D01*
X85027538Y-29674472D01*
X85119930Y-29267809D01*
X85126581Y-28791487D01*
X85045580Y-28382403D01*
X84886664Y-27996843D01*
X84655885Y-27649493D01*
X84362034Y-27353583D01*
X84137303Y-27202000D01*
X96863915Y-27202000D01*
X96661086Y-27334727D01*
X96363132Y-27626505D01*
X96127526Y-27970599D01*
X95963242Y-28353902D01*
X95876538Y-28761816D01*
X95870715Y-29178801D01*
X95906357Y-29373000D01*
X90000000Y-29373000D01*
X89850449Y-29387664D01*
X89700711Y-29400764D01*
X89692494Y-29403151D01*
X89683981Y-29403986D01*
X89540119Y-29447421D01*
X89395784Y-29489354D01*
X89388188Y-29493291D01*
X89379998Y-29495764D01*
X89247302Y-29566320D01*
X89113872Y-29635483D01*
X89107186Y-29640821D01*
X89099632Y-29644837D01*
X88983147Y-29739840D01*
X88865712Y-29833587D01*
X88853806Y-29845327D01*
X88853560Y-29845528D01*
X88853372Y-29845756D01*
X88849537Y-29849537D01*
X79826074Y-38873000D01*
X74173926Y-38873000D01*
X73180905Y-37879979D01*
X73745368Y-38194024D01*
X74801994Y-38534079D01*
X75904659Y-38661462D01*
X77010987Y-38571279D01*
X78078464Y-38266994D01*
X79066067Y-37760302D01*
X79224613Y-37654365D01*
X79800734Y-36980339D01*
X76000000Y-33179605D01*
X75985858Y-33193748D01*
X75806253Y-33014143D01*
X75820395Y-33000000D01*
X76179605Y-33000000D01*
X79980339Y-36800734D01*
X80654365Y-36224613D01*
X81194024Y-35254632D01*
X81534079Y-34198006D01*
X81661462Y-33095341D01*
X81571279Y-31989013D01*
X81266994Y-30921536D01*
X80760302Y-29933933D01*
X80654365Y-29775387D01*
X79980339Y-29199266D01*
X76179605Y-33000000D01*
X75820395Y-33000000D01*
X72019661Y-29199266D01*
X71345635Y-29775387D01*
X70805976Y-30745368D01*
X70465921Y-31801994D01*
X70338538Y-32904659D01*
X70428721Y-34010987D01*
X70733006Y-35078464D01*
X71105579Y-35804653D01*
X68877845Y-33576919D01*
X69059774Y-33168301D01*
X69173906Y-32665947D01*
X69182122Y-32077542D01*
X69082061Y-31572197D01*
X68885751Y-31095912D01*
X68600668Y-30666828D01*
X68237672Y-30301289D01*
X67810588Y-30013217D01*
X67335685Y-29813586D01*
X66831051Y-29710000D01*
X66315908Y-29706403D01*
X65809877Y-29802934D01*
X65332233Y-29995915D01*
X64901169Y-30277995D01*
X64533104Y-30638431D01*
X64485387Y-30708120D01*
X54912102Y-30708120D01*
X54884668Y-30666828D01*
X54521672Y-30301289D01*
X54094588Y-30013217D01*
X53619685Y-29813586D01*
X53115051Y-29710000D01*
X52599908Y-29706403D01*
X52093877Y-29802934D01*
X51616233Y-29995915D01*
X51185169Y-30277995D01*
X50817104Y-30638431D01*
X50526058Y-31063493D01*
X50323117Y-31536990D01*
X50216010Y-32040889D01*
X50208817Y-32555994D01*
X50301813Y-33062687D01*
X50491454Y-33541667D01*
X50770518Y-33974689D01*
X51128376Y-34345261D01*
X51551395Y-34639268D01*
X52023465Y-34845510D01*
X52526603Y-34956132D01*
X53041646Y-34966921D01*
X53548975Y-34877465D01*
X54029267Y-34691172D01*
X54464228Y-34415137D01*
X54837289Y-34059876D01*
X54906248Y-33962120D01*
X55132021Y-33962120D01*
X55109344Y-34044719D01*
X55887140Y-34822515D01*
X55901283Y-34808373D01*
X56080888Y-34987978D01*
X56066745Y-35002120D01*
X56080888Y-35016263D01*
X55901283Y-35195868D01*
X55887140Y-35181725D01*
X55109344Y-35959521D01*
X55174939Y-36198446D01*
X55422015Y-36314403D01*
X55686967Y-36379929D01*
X55959610Y-36392507D01*
X56229469Y-36351653D01*
X56486172Y-36258937D01*
X56599341Y-36198446D01*
X56664935Y-35959523D01*
X56781388Y-36075976D01*
X56844639Y-36012725D01*
X56948581Y-36174012D01*
X57204361Y-36438880D01*
X57506717Y-36649023D01*
X57844132Y-36796436D01*
X58203753Y-36875503D01*
X58571882Y-36883215D01*
X58934499Y-36819275D01*
X59277790Y-36686121D01*
X59442081Y-36581859D01*
X59538717Y-36649023D01*
X59876132Y-36796436D01*
X60235753Y-36875503D01*
X60603882Y-36883215D01*
X60966499Y-36819275D01*
X61309790Y-36686121D01*
X61620681Y-36488824D01*
X61726906Y-36387668D01*
X61776361Y-36438880D01*
X62078717Y-36649023D01*
X62416132Y-36796436D01*
X62775753Y-36875503D01*
X63143882Y-36883215D01*
X63506499Y-36819275D01*
X63849790Y-36686121D01*
X64160681Y-36488824D01*
X64427329Y-36234899D01*
X64639577Y-35934018D01*
X64789342Y-35597641D01*
X64870918Y-35238581D01*
X64876791Y-34818015D01*
X64805272Y-34456817D01*
X64695934Y-34191546D01*
X64844376Y-34345261D01*
X65267395Y-34639268D01*
X65393662Y-34694433D01*
X65400467Y-34701334D01*
X65400668Y-34701580D01*
X65400896Y-34701768D01*
X65404677Y-34705603D01*
X72349537Y-41650463D01*
X72465672Y-41745857D01*
X72580799Y-41842460D01*
X72588299Y-41846583D01*
X72594907Y-41852011D01*
X72727332Y-41923017D01*
X72859057Y-41995433D01*
X72867211Y-41998020D01*
X72874752Y-42002063D01*
X73018490Y-42046008D01*
X73161728Y-42091446D01*
X73170229Y-42092400D01*
X73178411Y-42094901D01*
X73327954Y-42110091D01*
X73477284Y-42126841D01*
X73494005Y-42126958D01*
X73494320Y-42126990D01*
X73494613Y-42126962D01*
X73500000Y-42127000D01*
X80500000Y-42127000D01*
X80649551Y-42112336D01*
X80799289Y-42099236D01*
X80807506Y-42096849D01*
X80816019Y-42096014D01*
X80959881Y-42052579D01*
X81104216Y-42010646D01*
X81111812Y-42006709D01*
X81120002Y-42004236D01*
X81252698Y-41933680D01*
X81386128Y-41864517D01*
X81392814Y-41859179D01*
X81400368Y-41855163D01*
X81516853Y-41760160D01*
X81634288Y-41666413D01*
X81646194Y-41654673D01*
X81646440Y-41654472D01*
X81646628Y-41654244D01*
X81650463Y-41650463D01*
X87867547Y-35433379D01*
X87867547Y-36000000D01*
X87881859Y-36179471D01*
X87976126Y-36483872D01*
X88074464Y-36633106D01*
X87962753Y-36893747D01*
X87876028Y-37301758D01*
X87870204Y-37718844D01*
X87945503Y-38129118D01*
X88099058Y-38516952D01*
X88325018Y-38867574D01*
X88614779Y-39167630D01*
X88957301Y-39405689D01*
X89339540Y-39572685D01*
X89746936Y-39662257D01*
X90163971Y-39670993D01*
X90574760Y-39598560D01*
X90963657Y-39447717D01*
X91315848Y-39224209D01*
X91617919Y-38936551D01*
X91858365Y-38595698D01*
X92028025Y-38214634D01*
X92120439Y-37807874D01*
X92127092Y-37331437D01*
X92046071Y-36922255D01*
X91929068Y-36638384D01*
X91956664Y-36606006D01*
X92087618Y-36315494D01*
X92132453Y-36000000D01*
X92132453Y-34000000D01*
X92118141Y-33820529D01*
X92023874Y-33516128D01*
X91848534Y-33250040D01*
X91606006Y-33043336D01*
X91315494Y-32912382D01*
X91000000Y-32867547D01*
X90433379Y-32867547D01*
X90673926Y-32627000D01*
X92255111Y-32627000D01*
X92251531Y-32635353D01*
X92177099Y-32985529D01*
X92172100Y-33343493D01*
X92236726Y-33695611D01*
X92368514Y-34028470D01*
X92562445Y-34329392D01*
X92811132Y-34586915D01*
X93105103Y-34791230D01*
X93433160Y-34934554D01*
X93782808Y-35011429D01*
X94140728Y-35018927D01*
X94493289Y-34956761D01*
X94827060Y-34827300D01*
X95129328Y-34635474D01*
X95388581Y-34388591D01*
X95499376Y-34231529D01*
X95562445Y-34329392D01*
X95811132Y-34586915D01*
X96105103Y-34791230D01*
X96433160Y-34934554D01*
X96782808Y-35011429D01*
X97140728Y-35018927D01*
X97493289Y-34956761D01*
X97827060Y-34827300D01*
X98129328Y-34635474D01*
X98347556Y-34427659D01*
X98383000Y-34482657D01*
X98383000Y-39221736D01*
X98304506Y-39154836D01*
X98013994Y-39023882D01*
X97698500Y-38979047D01*
X96301500Y-38979047D01*
X96122029Y-38993359D01*
X95817628Y-39087626D01*
X95551540Y-39262966D01*
X95500980Y-39322289D01*
X95304506Y-39154836D01*
X95013994Y-39023882D01*
X94698500Y-38979047D01*
X93301500Y-38979047D01*
X93122029Y-38993359D01*
X92817628Y-39087626D01*
X92551540Y-39262966D01*
X92344836Y-39505494D01*
X92213882Y-39796006D01*
X92169047Y-40111500D01*
X92169047Y-41508500D01*
X92183359Y-41687971D01*
X92277626Y-41992372D01*
X92452966Y-42258460D01*
X92695494Y-42465164D01*
X92770236Y-42498855D01*
X92551540Y-42642966D01*
X92344836Y-42885494D01*
X92213882Y-43176006D01*
X92169047Y-43491500D01*
X92169047Y-44888500D01*
X92183359Y-45067971D01*
X92277626Y-45372372D01*
X92452966Y-45638460D01*
X92695494Y-45845164D01*
X92986006Y-45976118D01*
X93301500Y-46020953D01*
X94698500Y-46020953D01*
X94877971Y-46006641D01*
X95182372Y-45912374D01*
X95448460Y-45737034D01*
X95499020Y-45677711D01*
X95695494Y-45845164D01*
X95986006Y-45976118D01*
X96301500Y-46020953D01*
X97698500Y-46020953D01*
X97877971Y-46006641D01*
X98182372Y-45912374D01*
X98383000Y-45780169D01*
X98383000Y-49062472D01*
X98346647Y-49115564D01*
X98200711Y-49456060D01*
X98123689Y-49818416D01*
X98118517Y-50188832D01*
X98154874Y-50386927D01*
X97872453Y-50196432D01*
X97542427Y-50057701D01*
X97191740Y-49985716D01*
X96833750Y-49983216D01*
X96482092Y-50050299D01*
X96150161Y-50184408D01*
X95850600Y-50380435D01*
X95594819Y-50630913D01*
X95500203Y-50769096D01*
X95421506Y-50650648D01*
X95169248Y-50396622D01*
X94872453Y-50196432D01*
X94542427Y-50057701D01*
X94191740Y-49985716D01*
X93833750Y-49983216D01*
X93482092Y-50050299D01*
X93150161Y-50184408D01*
X92850600Y-50380435D01*
X92594819Y-50630913D01*
X92392562Y-50926303D01*
X92251531Y-51255353D01*
X92177099Y-51605529D01*
X92172100Y-51963493D01*
X92236726Y-52315611D01*
X92368514Y-52648470D01*
X92562445Y-52949392D01*
X92811132Y-53206915D01*
X93050097Y-53373000D01*
X86540000Y-53373000D01*
X86390412Y-53387667D01*
X86240710Y-53400764D01*
X86232492Y-53403151D01*
X86223981Y-53403986D01*
X86080131Y-53447417D01*
X85935784Y-53489354D01*
X85928189Y-53493291D01*
X85919998Y-53495764D01*
X85787262Y-53566341D01*
X85653872Y-53635484D01*
X85647189Y-53640819D01*
X85639632Y-53644837D01*
X85523120Y-53739862D01*
X85405712Y-53833587D01*
X85393810Y-53845324D01*
X85393560Y-53845528D01*
X85393368Y-53845760D01*
X85389537Y-53849538D01*
X83720527Y-55518547D01*
X83111000Y-55518547D01*
X82931529Y-55532859D01*
X82627128Y-55627126D01*
X82361040Y-55802466D01*
X82154336Y-56044994D01*
X82023382Y-56335506D01*
X81978547Y-56651000D01*
X81978547Y-58429000D01*
X81992859Y-58608471D01*
X82087126Y-58912872D01*
X82262466Y-59178960D01*
X82504994Y-59385664D01*
X82795506Y-59516618D01*
X83111000Y-59561453D01*
X84889000Y-59561453D01*
X85068471Y-59547141D01*
X85372872Y-59452874D01*
X85638960Y-59277534D01*
X85845664Y-59035006D01*
X85976618Y-58744494D01*
X86021453Y-58429000D01*
X86021453Y-57819473D01*
X87213925Y-56627000D01*
X88362793Y-56627000D01*
X88127526Y-56970599D01*
X87963242Y-57353902D01*
X87876538Y-57761816D01*
X87870715Y-58178801D01*
X87945996Y-58588976D01*
X88099514Y-58976717D01*
X88325420Y-59327256D01*
X88615111Y-59627239D01*
X88957552Y-59865242D01*
X89339699Y-60032198D01*
X89746997Y-60121748D01*
X90163932Y-60130481D01*
X90574622Y-60058066D01*
X90963426Y-59907259D01*
X91315533Y-59683805D01*
X91339573Y-59660912D01*
X91127526Y-59970599D01*
X90963242Y-60353902D01*
X90876538Y-60761816D01*
X90870715Y-61178801D01*
X90945996Y-61588976D01*
X91099514Y-61976717D01*
X91262217Y-62229184D01*
X91001740Y-62175716D01*
X90643750Y-62173216D01*
X90292092Y-62240299D01*
X89960161Y-62374408D01*
X89660600Y-62570435D01*
X89404819Y-62820913D01*
X89202562Y-63116303D01*
X89061531Y-63445353D01*
X88987099Y-63795529D01*
X88982100Y-64153493D01*
X89046726Y-64505611D01*
X89178514Y-64838470D01*
X89372445Y-65139392D01*
X89621132Y-65396915D01*
X89915103Y-65601230D01*
X90243160Y-65744554D01*
X90592808Y-65821429D01*
X90950728Y-65828927D01*
X91303289Y-65766761D01*
X91632264Y-65639160D01*
X91957552Y-65865242D01*
X92339699Y-66032198D01*
X92746997Y-66121748D01*
X93163932Y-66130481D01*
X93574622Y-66058066D01*
X93963426Y-65907259D01*
X94315533Y-65683805D01*
X94617531Y-65396215D01*
X94857919Y-65055445D01*
X95027538Y-64674472D01*
X95119930Y-64267809D01*
X95126581Y-63791487D01*
X95045580Y-63382403D01*
X94886664Y-62996843D01*
X94655885Y-62649493D01*
X94507974Y-62500545D01*
X94617531Y-62396215D01*
X94857919Y-62055445D01*
X95027538Y-61674472D01*
X95119930Y-61267809D01*
X95126581Y-60791487D01*
X95045580Y-60382403D01*
X94886664Y-59996843D01*
X94655885Y-59649493D01*
X94362034Y-59353583D01*
X94016304Y-59120385D01*
X93631863Y-58958781D01*
X93223354Y-58874926D01*
X92806338Y-58872015D01*
X92396699Y-58950158D01*
X92010039Y-59106379D01*
X91661086Y-59334727D01*
X91660505Y-59335296D01*
X91857919Y-59055445D01*
X92027538Y-58674472D01*
X92119930Y-58267809D01*
X92126581Y-57791487D01*
X92045580Y-57382403D01*
X91886664Y-56996843D01*
X91655885Y-56649493D01*
X91633549Y-56627000D01*
X97000000Y-56627000D01*
X97149551Y-56612336D01*
X97299289Y-56599236D01*
X97307506Y-56596849D01*
X97316019Y-56596014D01*
X97459881Y-56552579D01*
X97604216Y-56510646D01*
X97611812Y-56506709D01*
X97620002Y-56504236D01*
X97752698Y-56433680D01*
X97886128Y-56364517D01*
X97892814Y-56359179D01*
X97900368Y-56355163D01*
X98016853Y-56260160D01*
X98134288Y-56166413D01*
X98146194Y-56154673D01*
X98146440Y-56154472D01*
X98146628Y-56154244D01*
X98150463Y-56150463D01*
X101160463Y-53140463D01*
X101255879Y-53024301D01*
X101352460Y-52909201D01*
X101356581Y-52901705D01*
X101362012Y-52895093D01*
X101433038Y-52762629D01*
X101505433Y-52630943D01*
X101508020Y-52622789D01*
X101512063Y-52615248D01*
X101556008Y-52471510D01*
X101601446Y-52328272D01*
X101602400Y-52319771D01*
X101604901Y-52311589D01*
X101620096Y-52162006D01*
X101636841Y-52012716D01*
X101636958Y-51996004D01*
X101636991Y-51995679D01*
X101636962Y-51995376D01*
X101637000Y-51990000D01*
X101637000Y-51000775D01*
X101660423Y-50967571D01*
X101811100Y-50629146D01*
X101893173Y-50267900D01*
X101899081Y-49844774D01*
X101827126Y-49481377D01*
X101685958Y-49138877D01*
X101637000Y-49065189D01*
X101637000Y-45946191D01*
X102361158Y-45946191D01*
X102428032Y-46310557D01*
X102564404Y-46654995D01*
X102765081Y-46966384D01*
X103022419Y-47232865D01*
X103326615Y-47444287D01*
X103666083Y-47592597D01*
X104027894Y-47672147D01*
X104398264Y-47679905D01*
X104763088Y-47615576D01*
X105108470Y-47481612D01*
X105421253Y-47283114D01*
X105689524Y-47027643D01*
X105903064Y-46724930D01*
X106053741Y-46386505D01*
X106135814Y-46025259D01*
X106141722Y-45602133D01*
X106069767Y-45238736D01*
X105928599Y-44896236D01*
X105723594Y-44587679D01*
X105462561Y-44324817D01*
X105155442Y-44117663D01*
X104813936Y-43974107D01*
X104451051Y-43899617D01*
X104080608Y-43897031D01*
X103716717Y-43966447D01*
X103373240Y-44105221D01*
X103063259Y-44308066D01*
X102798581Y-44567258D01*
X102589288Y-44872923D01*
X102443352Y-45213419D01*
X102366330Y-45575775D01*
X102361158Y-45946191D01*
X101637000Y-45946191D01*
X101637000Y-37921473D01*
X102361158Y-37921473D01*
X102428032Y-38285839D01*
X102564404Y-38630277D01*
X102765081Y-38941666D01*
X103022419Y-39208147D01*
X103326615Y-39419569D01*
X103666083Y-39567879D01*
X104027894Y-39647429D01*
X104398264Y-39655187D01*
X104763088Y-39590858D01*
X105108470Y-39456894D01*
X105421253Y-39258396D01*
X105689524Y-39002925D01*
X105903064Y-38700212D01*
X106053741Y-38361787D01*
X106135814Y-38000541D01*
X106141722Y-37577415D01*
X106069767Y-37214018D01*
X105928599Y-36871518D01*
X105723594Y-36562961D01*
X105462561Y-36300099D01*
X105155442Y-36092945D01*
X104813936Y-35949389D01*
X104451051Y-35874899D01*
X104080608Y-35872313D01*
X103716717Y-35941729D01*
X103373240Y-36080503D01*
X103063259Y-36283348D01*
X102798581Y-36542540D01*
X102589288Y-36848205D01*
X102443352Y-37188701D01*
X102366330Y-37551057D01*
X102361158Y-37921473D01*
X101637000Y-37921473D01*
X101637000Y-34490775D01*
X101660423Y-34457571D01*
X101811100Y-34119146D01*
X101893173Y-33757900D01*
X101899081Y-33334774D01*
X101857940Y-33127000D01*
X106647532Y-33127000D01*
X106608970Y-33308416D01*
X106603798Y-33678832D01*
X106670672Y-34043198D01*
X106807044Y-34387636D01*
X106868281Y-34482657D01*
X106868281Y-49062472D01*
X106831928Y-49115564D01*
X106685992Y-49456060D01*
X106608970Y-49818416D01*
X106603798Y-50188832D01*
X106670672Y-50553198D01*
X106807044Y-50897636D01*
X106868281Y-50992657D01*
X106868281Y-56830793D01*
X106813042Y-56886032D01*
X106655885Y-56649493D01*
X106362034Y-56353583D01*
X106016304Y-56120385D01*
X105631863Y-55958781D01*
X105246048Y-55879584D01*
X105421253Y-55768396D01*
X105689524Y-55512925D01*
X105903064Y-55210212D01*
X106053741Y-54871787D01*
X106135814Y-54510541D01*
X106141722Y-54087415D01*
X106069767Y-53724018D01*
X105928599Y-53381518D01*
X105723594Y-53072961D01*
X105462561Y-52810099D01*
X105155442Y-52602945D01*
X104813936Y-52459389D01*
X104451051Y-52384899D01*
X104080608Y-52382313D01*
X103716717Y-52451729D01*
X103373240Y-52590503D01*
X103063259Y-52793348D01*
X102798581Y-53052540D01*
X102589288Y-53358205D01*
X102443352Y-53698701D01*
X102366330Y-54061057D01*
X102361158Y-54431473D01*
X102428032Y-54795839D01*
X102564404Y-55140277D01*
X102765081Y-55451666D01*
X103022419Y-55718147D01*
X103326615Y-55929569D01*
X103666083Y-56077879D01*
X103956136Y-56141652D01*
X103661086Y-56334727D01*
X103363132Y-56626505D01*
X103127526Y-56970599D01*
X102963242Y-57353902D01*
X102876538Y-57761816D01*
X102870715Y-58178801D01*
X102945996Y-58588976D01*
X103099514Y-58976717D01*
X103325420Y-59327256D01*
X103615111Y-59627239D01*
X103884562Y-59814512D01*
X102309537Y-61389537D01*
X102214121Y-61505699D01*
X102117540Y-61620799D01*
X102113419Y-61628295D01*
X102107988Y-61634907D01*
X102036962Y-61767371D01*
X101964567Y-61899057D01*
X101961980Y-61907211D01*
X101957937Y-61914752D01*
X101913992Y-62058490D01*
X101868554Y-62201728D01*
X101867600Y-62210229D01*
X101865099Y-62218411D01*
X101849909Y-62367949D01*
X101833159Y-62517284D01*
X101833042Y-62534006D01*
X101833010Y-62534321D01*
X101833038Y-62534614D01*
X101833000Y-62540000D01*
X101833000Y-68616842D01*
X101823132Y-68626505D01*
X101587526Y-68970599D01*
X101423242Y-69353902D01*
X101336538Y-69761816D01*
X101330715Y-70178801D01*
X101405996Y-70588976D01*
X101559514Y-70976717D01*
X101785420Y-71327256D01*
X101833000Y-71376526D01*
X101833000Y-74144780D01*
X101561551Y-74286690D01*
X101161984Y-74607950D01*
X101000206Y-74800750D01*
X100864042Y-74633796D01*
X100469000Y-74306988D01*
X100018003Y-74063136D01*
X99528232Y-73911526D01*
X99018340Y-73857934D01*
X98507749Y-73904401D01*
X98015908Y-74049158D01*
X97561551Y-74286690D01*
X97161984Y-74607950D01*
X96832427Y-75000702D01*
X96585431Y-75449985D01*
X96430406Y-75938686D01*
X96373256Y-76448191D01*
X96373000Y-76484870D01*
X96373000Y-77515130D01*
X96423031Y-78025384D01*
X96571218Y-78516202D01*
X96811916Y-78968890D01*
X97135958Y-79366204D01*
X97531000Y-79693012D01*
X97981997Y-79936864D01*
X98471768Y-80088474D01*
X98981660Y-80142066D01*
X99492251Y-80095599D01*
X99984092Y-79950842D01*
X100438449Y-79713310D01*
X100838016Y-79392050D01*
X100999794Y-79199250D01*
X101135958Y-79366204D01*
X101531000Y-79693012D01*
X101981997Y-79936864D01*
X102471768Y-80088474D01*
X102981660Y-80142066D01*
X103492251Y-80095599D01*
X103984092Y-79950842D01*
X104438449Y-79713310D01*
X104838016Y-79392050D01*
X105167573Y-78999298D01*
X105288150Y-78779970D01*
X105295370Y-78791739D01*
X105580130Y-79099475D01*
X105919454Y-79345744D01*
X106300303Y-79521083D01*
X106541167Y-79585113D01*
X106873000Y-79472165D01*
X106873000Y-77127000D01*
X107127000Y-77127000D01*
X107127000Y-79472165D01*
X107458833Y-79585113D01*
X107699697Y-79521083D01*
X108080546Y-79345744D01*
X108419870Y-79099475D01*
X108704630Y-78791739D01*
X108923882Y-78434362D01*
X109069200Y-78041078D01*
X109135000Y-77627000D01*
X109135000Y-77127000D01*
X107127000Y-77127000D01*
X106873000Y-77127000D01*
X106853000Y-77127000D01*
X106853000Y-76873000D01*
X106873000Y-76873000D01*
X106873000Y-74527835D01*
X107127000Y-74527835D01*
X107127000Y-76873000D01*
X109135000Y-76873000D01*
X109135000Y-76373000D01*
X109069200Y-75958922D01*
X108923882Y-75565638D01*
X108704630Y-75208261D01*
X108419870Y-74900525D01*
X108080546Y-74654256D01*
X107699697Y-74478917D01*
X107458833Y-74414887D01*
X107127000Y-74527835D01*
X106873000Y-74527835D01*
X106541167Y-74414887D01*
X106300303Y-74478917D01*
X105919454Y-74654256D01*
X105580130Y-74900525D01*
X105295370Y-75208261D01*
X105288356Y-75219694D01*
X105188084Y-75031110D01*
X105087000Y-74907169D01*
X105087000Y-71382792D01*
X105118222Y-71338532D01*
X105140258Y-71399399D01*
X105429787Y-71540238D01*
X105741229Y-71621885D01*
X106062615Y-71641205D01*
X106381595Y-71597454D01*
X106552832Y-71538292D01*
X106691976Y-71749450D01*
X106934504Y-71956154D01*
X107225016Y-72087108D01*
X107540510Y-72131943D01*
X109539490Y-72131943D01*
X109718961Y-72117631D01*
X110023362Y-72023364D01*
X110289450Y-71848024D01*
X110496154Y-71605496D01*
X110627108Y-71314984D01*
X110671943Y-70999490D01*
X110671943Y-69000510D01*
X110657631Y-68821039D01*
X110563364Y-68516638D01*
X110388024Y-68250550D01*
X110145496Y-68043846D01*
X109854984Y-67912892D01*
X109539490Y-67868057D01*
X107540510Y-67868057D01*
X107361039Y-67882369D01*
X107056638Y-67976636D01*
X106790550Y-68151976D01*
X106583846Y-68394504D01*
X106556098Y-68456062D01*
X106258771Y-68378115D01*
X105937385Y-68358795D01*
X105618405Y-68402546D01*
X105314089Y-68507686D01*
X105140258Y-68600601D01*
X105120204Y-68655994D01*
X105115885Y-68649493D01*
X105087000Y-68620406D01*
X105087000Y-63213926D01*
X106187571Y-62113355D01*
X106325420Y-62327256D01*
X106492275Y-62500039D01*
X106363132Y-62626505D01*
X106127526Y-62970599D01*
X105963242Y-63353902D01*
X105876538Y-63761816D01*
X105870715Y-64178801D01*
X105945996Y-64588976D01*
X106099514Y-64976717D01*
X106325420Y-65327256D01*
X106615111Y-65627239D01*
X106957552Y-65865242D01*
X107339699Y-66032198D01*
X107746997Y-66121748D01*
X108163932Y-66130481D01*
X108574622Y-66058066D01*
X108963426Y-65907259D01*
X109315533Y-65683805D01*
X109617531Y-65396215D01*
X109857919Y-65055445D01*
X110027538Y-64674472D01*
X110119930Y-64267809D01*
X110126581Y-63791487D01*
X110045580Y-63382403D01*
X109886664Y-62996843D01*
X109655885Y-62649493D01*
X109507974Y-62500545D01*
X109617531Y-62396215D01*
X109857919Y-62055445D01*
X110027538Y-61674472D01*
X110119930Y-61267809D01*
X110126581Y-60791487D01*
X110045580Y-60382403D01*
X109886664Y-59996843D01*
X109655885Y-59649493D01*
X109362034Y-59353583D01*
X109114385Y-59186541D01*
X109645744Y-58655182D01*
X109741160Y-58539020D01*
X109837741Y-58423920D01*
X109841862Y-58416424D01*
X109847293Y-58409812D01*
X109918319Y-58277348D01*
X109990714Y-58145662D01*
X109993301Y-58137508D01*
X109997344Y-58129967D01*
X110041285Y-57986242D01*
X110086727Y-57842991D01*
X110087681Y-57834488D01*
X110090182Y-57826307D01*
X110105376Y-57676730D01*
X110122122Y-57527435D01*
X110122239Y-57510723D01*
X110122272Y-57510398D01*
X110122243Y-57510095D01*
X110122281Y-57504719D01*
X110122281Y-56012045D01*
X110325420Y-56327256D01*
X110615111Y-56627239D01*
X110957552Y-56865242D01*
X111339699Y-57032198D01*
X111746997Y-57121748D01*
X112163932Y-57130481D01*
X112574622Y-57058066D01*
X112963426Y-56907259D01*
X113315533Y-56683805D01*
X113617531Y-56396215D01*
X113857919Y-56055445D01*
X114027538Y-55674472D01*
X114119930Y-55267809D01*
X114126581Y-54791487D01*
X114045580Y-54382403D01*
X113886664Y-53996843D01*
X113655885Y-53649493D01*
X113627000Y-53620406D01*
X113627000Y-50044234D01*
X113741873Y-50097041D01*
X113812805Y-50113731D01*
X115849537Y-52150463D01*
X115965699Y-52245879D01*
X116080799Y-52342460D01*
X116088295Y-52346581D01*
X116094907Y-52352012D01*
X116227371Y-52423038D01*
X116359057Y-52495433D01*
X116367211Y-52498020D01*
X116374752Y-52502063D01*
X116518477Y-52546004D01*
X116661728Y-52591446D01*
X116670231Y-52592400D01*
X116678412Y-52594901D01*
X116827989Y-52610095D01*
X116977284Y-52626841D01*
X116993996Y-52626958D01*
X116994321Y-52626991D01*
X116994624Y-52626962D01*
X117000000Y-52627000D01*
X122326074Y-52627000D01*
X124870814Y-55171740D01*
X124870715Y-55178801D01*
X124945996Y-55588976D01*
X125099514Y-55976717D01*
X125325420Y-56327256D01*
X125615111Y-56627239D01*
X125957552Y-56865242D01*
X126339699Y-57032198D01*
X126746997Y-57121748D01*
X127163932Y-57130481D01*
X127574622Y-57058066D01*
X127963426Y-56907259D01*
X128315533Y-56683805D01*
X128375184Y-56627000D01*
X128798000Y-56627000D01*
X128798000Y-80798000D01*
X31202000Y-80798000D01*
X31202000Y-72515175D01*
X31864946Y-72515175D01*
X32081852Y-73697002D01*
X32524178Y-74814190D01*
X33175077Y-75824187D01*
X34009755Y-76688522D01*
X34996421Y-77374272D01*
X36097492Y-77855318D01*
X37271029Y-78113337D01*
X38472332Y-78138501D01*
X39655644Y-77929851D01*
X40775893Y-77495335D01*
X41790410Y-76851503D01*
X42660551Y-76022879D01*
X43353172Y-75041025D01*
X43841894Y-73943339D01*
X44108099Y-72771632D01*
X44111680Y-72515175D01*
X69864946Y-72515175D01*
X70081852Y-73697002D01*
X70524178Y-74814190D01*
X71175077Y-75824187D01*
X72009755Y-76688522D01*
X72996421Y-77374272D01*
X74097492Y-77855318D01*
X75271029Y-78113337D01*
X76472332Y-78138501D01*
X77655644Y-77929851D01*
X78775893Y-77495335D01*
X79790410Y-76851503D01*
X80660551Y-76022879D01*
X81353172Y-75041025D01*
X81841894Y-73943339D01*
X82108099Y-72771632D01*
X82127263Y-71399217D01*
X81893877Y-70220534D01*
X81435996Y-69109630D01*
X80771059Y-68108819D01*
X79924394Y-67256223D01*
X78928250Y-66584315D01*
X77820570Y-66118689D01*
X76643545Y-65877081D01*
X75442007Y-65868692D01*
X74261724Y-66093843D01*
X73147650Y-66543958D01*
X72142222Y-67201892D01*
X71283736Y-68042584D01*
X70604890Y-69034013D01*
X70131542Y-70138416D01*
X69881723Y-71313725D01*
X69864946Y-72515175D01*
X44111680Y-72515175D01*
X44127263Y-71399217D01*
X43893877Y-70220534D01*
X43435996Y-69109630D01*
X42771059Y-68108819D01*
X41924394Y-67256223D01*
X40928250Y-66584315D01*
X39820570Y-66118689D01*
X38643545Y-65877081D01*
X37442007Y-65868692D01*
X36261724Y-66093843D01*
X35147650Y-66543958D01*
X34142222Y-67201892D01*
X33283736Y-68042584D01*
X32604890Y-69034013D01*
X32131542Y-70138416D01*
X31881723Y-71313725D01*
X31864946Y-72515175D01*
X31202000Y-72515175D01*
X31202000Y-65688832D01*
X52108517Y-65688832D01*
X52175391Y-66053198D01*
X52311763Y-66397636D01*
X52512440Y-66709025D01*
X52769778Y-66975506D01*
X53073974Y-67186928D01*
X53413442Y-67335238D01*
X53775253Y-67414788D01*
X54145623Y-67422546D01*
X54510447Y-67358217D01*
X54855829Y-67224253D01*
X55168612Y-67025755D01*
X55436883Y-66770284D01*
X55585400Y-66559746D01*
X55637631Y-66611977D01*
X55754041Y-66495567D01*
X55821020Y-66735656D01*
X56070048Y-66852756D01*
X56337135Y-66919023D01*
X56612017Y-66931910D01*
X56884133Y-66890922D01*
X57143023Y-66797636D01*
X57258980Y-66735656D01*
X57325960Y-66495565D01*
X56540000Y-65709605D01*
X56525858Y-65723748D01*
X56346253Y-65544143D01*
X56360395Y-65530000D01*
X56719605Y-65530000D01*
X57505565Y-66315960D01*
X57745656Y-66248980D01*
X57862756Y-65999952D01*
X57929023Y-65732865D01*
X57941910Y-65457983D01*
X57900922Y-65185867D01*
X57807636Y-64926977D01*
X57745656Y-64811020D01*
X57505565Y-64744040D01*
X56719605Y-65530000D01*
X56360395Y-65530000D01*
X56346253Y-65515858D01*
X56525858Y-65336253D01*
X56540000Y-65350395D01*
X57325960Y-64564435D01*
X57258980Y-64324344D01*
X57009952Y-64207244D01*
X56742865Y-64140977D01*
X56467983Y-64128090D01*
X56195867Y-64169078D01*
X55936977Y-64262364D01*
X55821020Y-64324344D01*
X55754041Y-64564433D01*
X55637631Y-64448023D01*
X55584473Y-64501181D01*
X55470953Y-64330320D01*
X55209920Y-64067458D01*
X54902801Y-63860304D01*
X54561295Y-63716748D01*
X54198410Y-63642258D01*
X53827967Y-63639672D01*
X53464076Y-63709088D01*
X53120599Y-63847862D01*
X52810618Y-64050707D01*
X52545940Y-64309899D01*
X52336647Y-64615564D01*
X52190711Y-64956060D01*
X52113689Y-65318416D01*
X52108517Y-65688832D01*
X31202000Y-65688832D01*
X31202000Y-63301500D01*
X81359047Y-63301500D01*
X81359047Y-64698500D01*
X81373359Y-64877971D01*
X81467626Y-65182372D01*
X81642966Y-65448460D01*
X81885494Y-65655164D01*
X82176006Y-65786118D01*
X82491500Y-65830953D01*
X83888500Y-65830953D01*
X84067971Y-65816641D01*
X84372372Y-65722374D01*
X84638460Y-65547034D01*
X84845164Y-65304506D01*
X84976118Y-65013994D01*
X85020953Y-64698500D01*
X85020953Y-63301500D01*
X85006641Y-63122029D01*
X84912374Y-62817628D01*
X84737034Y-62551540D01*
X84494506Y-62344836D01*
X84203994Y-62213882D01*
X83888500Y-62169047D01*
X82491500Y-62169047D01*
X82312029Y-62183359D01*
X82007628Y-62277626D01*
X81741540Y-62452966D01*
X81534836Y-62695494D01*
X81403882Y-62986006D01*
X81359047Y-63301500D01*
X31202000Y-63301500D01*
X31202000Y-57000000D01*
X42867547Y-57000000D01*
X42867547Y-61000000D01*
X42881859Y-61179471D01*
X42976126Y-61483872D01*
X43151466Y-61749960D01*
X43393994Y-61956664D01*
X43684506Y-62087618D01*
X44000000Y-62132453D01*
X53000000Y-62132453D01*
X53179471Y-62118141D01*
X53483872Y-62023874D01*
X53749960Y-61848534D01*
X53956664Y-61606006D01*
X54087618Y-61315494D01*
X54132453Y-61000000D01*
X54132453Y-57000000D01*
X54118141Y-56820529D01*
X54023874Y-56516128D01*
X53848534Y-56250040D01*
X53606006Y-56043336D01*
X53315494Y-55912382D01*
X53000000Y-55867547D01*
X44000000Y-55867547D01*
X43820529Y-55881859D01*
X43516128Y-55976126D01*
X43250040Y-56151466D01*
X43043336Y-56393994D01*
X42912382Y-56684506D01*
X42867547Y-57000000D01*
X31202000Y-57000000D01*
X31202000Y-53516231D01*
X83123374Y-53516231D01*
X83205727Y-53769289D01*
X83476418Y-53899086D01*
X83767230Y-53973580D01*
X84066988Y-53989908D01*
X84364171Y-53947443D01*
X84647359Y-53847816D01*
X84794273Y-53769289D01*
X84876626Y-53516231D01*
X84000000Y-52639605D01*
X83123374Y-53516231D01*
X31202000Y-53516231D01*
X31202000Y-52526988D01*
X82470092Y-52526988D01*
X82512557Y-52824171D01*
X82612184Y-53107359D01*
X82690711Y-53254273D01*
X82943769Y-53336626D01*
X83820395Y-52460000D01*
X84179605Y-52460000D01*
X85056231Y-53336626D01*
X85309289Y-53254273D01*
X85439086Y-52983582D01*
X85513580Y-52692770D01*
X85529908Y-52393012D01*
X85487443Y-52095829D01*
X85387816Y-51812641D01*
X85309289Y-51665727D01*
X85056231Y-51583374D01*
X84179605Y-52460000D01*
X83820395Y-52460000D01*
X82943769Y-51583374D01*
X82690711Y-51665727D01*
X82560914Y-51936418D01*
X82486420Y-52227230D01*
X82470092Y-52526988D01*
X31202000Y-52526988D01*
X31202000Y-51403769D01*
X83123374Y-51403769D01*
X84000000Y-52280395D01*
X84876626Y-51403769D01*
X84794273Y-51150711D01*
X84523582Y-51020914D01*
X84232770Y-50946420D01*
X83933012Y-50930092D01*
X83635829Y-50972557D01*
X83352641Y-51072184D01*
X83205727Y-51150711D01*
X83123374Y-51403769D01*
X31202000Y-51403769D01*
X31202000Y-45000000D01*
X87867547Y-45000000D01*
X87867547Y-47000000D01*
X87881859Y-47179471D01*
X87976126Y-47483872D01*
X88074464Y-47633106D01*
X87962753Y-47893747D01*
X87876028Y-48301758D01*
X87870204Y-48718844D01*
X87945503Y-49129118D01*
X88099058Y-49516952D01*
X88325018Y-49867574D01*
X88614779Y-50167630D01*
X88957301Y-50405689D01*
X89339540Y-50572685D01*
X89746936Y-50662257D01*
X90163971Y-50670993D01*
X90574760Y-50598560D01*
X90963657Y-50447717D01*
X91315848Y-50224209D01*
X91617919Y-49936551D01*
X91858365Y-49595698D01*
X92028025Y-49214634D01*
X92120439Y-48807874D01*
X92127092Y-48331437D01*
X92046071Y-47922255D01*
X91929068Y-47638384D01*
X91956664Y-47606006D01*
X92087618Y-47315494D01*
X92132453Y-47000000D01*
X92132453Y-45000000D01*
X92118141Y-44820529D01*
X92023874Y-44516128D01*
X91848534Y-44250040D01*
X91606006Y-44043336D01*
X91315494Y-43912382D01*
X91000000Y-43867547D01*
X89000000Y-43867547D01*
X88820529Y-43881859D01*
X88516128Y-43976126D01*
X88250040Y-44151466D01*
X88043336Y-44393994D01*
X87912382Y-44684506D01*
X87867547Y-45000000D01*
X31202000Y-45000000D01*
X31202000Y-36980339D01*
X34199266Y-36980339D01*
X34775387Y-37654365D01*
X35745368Y-38194024D01*
X36801994Y-38534079D01*
X37904659Y-38661462D01*
X39010987Y-38571279D01*
X40078464Y-38266994D01*
X41066067Y-37760302D01*
X41224613Y-37654365D01*
X41800734Y-36980339D01*
X38000000Y-33179605D01*
X34199266Y-36980339D01*
X31202000Y-36980339D01*
X31202000Y-32904659D01*
X32338538Y-32904659D01*
X32428721Y-34010987D01*
X32733006Y-35078464D01*
X33239698Y-36066067D01*
X33345635Y-36224613D01*
X34019661Y-36800734D01*
X37820395Y-33000000D01*
X38179605Y-33000000D01*
X41980339Y-36800734D01*
X42654365Y-36224613D01*
X43194024Y-35254632D01*
X43251967Y-35074590D01*
X54496753Y-35074590D01*
X54537607Y-35344449D01*
X54630323Y-35601152D01*
X54690814Y-35714321D01*
X54929739Y-35779916D01*
X55707535Y-35002120D01*
X54929739Y-34224324D01*
X54690814Y-34289919D01*
X54574857Y-34536995D01*
X54509331Y-34801947D01*
X54496753Y-35074590D01*
X43251967Y-35074590D01*
X43534079Y-34198006D01*
X43661462Y-33095341D01*
X43571279Y-31989013D01*
X43266994Y-30921536D01*
X42760302Y-29933933D01*
X42654365Y-29775387D01*
X41980339Y-29199266D01*
X38179605Y-33000000D01*
X37820395Y-33000000D01*
X34019661Y-29199266D01*
X33345635Y-29775387D01*
X32805976Y-30745368D01*
X32465921Y-31801994D01*
X32338538Y-32904659D01*
X31202000Y-32904659D01*
X31202000Y-29019661D01*
X34199266Y-29019661D01*
X38000000Y-32820395D01*
X41800734Y-29019661D01*
X72199266Y-29019661D01*
X76000000Y-32820395D01*
X79800734Y-29019661D01*
X79224613Y-28345635D01*
X78254632Y-27805976D01*
X77198006Y-27465921D01*
X76095341Y-27338538D01*
X74989013Y-27428721D01*
X73921536Y-27733006D01*
X72933933Y-28239698D01*
X72775387Y-28345635D01*
X72199266Y-29019661D01*
X41800734Y-29019661D01*
X41224613Y-28345635D01*
X40254632Y-27805976D01*
X39198006Y-27465921D01*
X38095341Y-27338538D01*
X36989013Y-27428721D01*
X35921536Y-27733006D01*
X34933933Y-28239698D01*
X34775387Y-28345635D01*
X34199266Y-29019661D01*
X31202000Y-29019661D01*
X31202000Y-27202000D01*
X81863915Y-27202000D01*
X81661086Y-27334727D01*
G36*
X106193748Y-69985858D02*
X106179605Y-70000000D01*
X106193748Y-70014143D01*
X106014143Y-70193748D01*
X106000000Y-70179605D01*
X105985858Y-70193748D01*
X105806253Y-70014143D01*
X105820395Y-70000000D01*
X105806253Y-69985858D01*
X105985858Y-69806253D01*
X106000000Y-69820395D01*
X106014143Y-69806253D01*
X106193748Y-69985858D01*
X106193748Y-69985858D01*
G37*
X106193748Y-69985858D02*
X106179605Y-70000000D01*
X106193748Y-70014143D01*
X106014143Y-70193748D01*
X106000000Y-70179605D01*
X105985858Y-70193748D01*
X105806253Y-70014143D01*
X105820395Y-70000000D01*
X105806253Y-69985858D01*
X105985858Y-69806253D01*
X106000000Y-69820395D01*
X106014143Y-69806253D01*
X106193748Y-69985858D01*
G36*
X109661086Y-27334727D02*
X109363132Y-27626505D01*
X109127526Y-27970599D01*
X108963242Y-28353902D01*
X108876538Y-28761816D01*
X108870715Y-29178801D01*
X108945996Y-29588976D01*
X109099514Y-29976717D01*
X109325420Y-30327256D01*
X109615111Y-30627239D01*
X109957552Y-30865242D01*
X110339699Y-31032198D01*
X110746997Y-31121748D01*
X111163932Y-31130481D01*
X111574622Y-31058066D01*
X111963426Y-30907259D01*
X112315533Y-30683805D01*
X112617531Y-30396215D01*
X112857919Y-30055445D01*
X113027538Y-29674472D01*
X113119930Y-29267809D01*
X113126581Y-28791487D01*
X113045580Y-28382403D01*
X112886664Y-27996843D01*
X112655885Y-27649493D01*
X112362034Y-27353583D01*
X112137303Y-27202000D01*
X124863915Y-27202000D01*
X124661086Y-27334727D01*
X124363132Y-27626505D01*
X124127526Y-27970599D01*
X123963242Y-28353902D01*
X123876538Y-28761816D01*
X123870715Y-29178801D01*
X123945996Y-29588976D01*
X124099514Y-29976717D01*
X124325420Y-30327256D01*
X124615111Y-30627239D01*
X124957552Y-30865242D01*
X125339699Y-31032198D01*
X125746997Y-31121748D01*
X126163932Y-31130481D01*
X126574622Y-31058066D01*
X126963426Y-30907259D01*
X127315533Y-30683805D01*
X127617531Y-30396215D01*
X127857919Y-30055445D01*
X128027538Y-29674472D01*
X128119930Y-29267809D01*
X128126581Y-28791487D01*
X128045580Y-28382403D01*
X127886664Y-27996843D01*
X127655885Y-27649493D01*
X127362034Y-27353583D01*
X127137303Y-27202000D01*
X128798000Y-27202000D01*
X128798000Y-32615000D01*
X127285750Y-32615000D01*
X127127000Y-32773750D01*
X127127000Y-34123000D01*
X127147000Y-34123000D01*
X127147000Y-34377000D01*
X127127000Y-34377000D01*
X127127000Y-35726250D01*
X127285750Y-35885000D01*
X128798000Y-35885000D01*
X128798000Y-48115000D01*
X127285750Y-48115000D01*
X127127000Y-48273750D01*
X127127000Y-49623000D01*
X127147000Y-49623000D01*
X127147000Y-49877000D01*
X127127000Y-49877000D01*
X127127000Y-51226250D01*
X127285750Y-51385000D01*
X128798000Y-51385000D01*
X128798000Y-53863393D01*
X128655885Y-53649493D01*
X128362034Y-53353583D01*
X128016304Y-53120385D01*
X127631863Y-52958781D01*
X127223354Y-52874926D01*
X127175518Y-52874592D01*
X125685926Y-51385000D01*
X126714250Y-51385000D01*
X126873000Y-51226250D01*
X126873000Y-49877000D01*
X126853000Y-49877000D01*
X126853000Y-49623000D01*
X126873000Y-49623000D01*
X126873000Y-48273750D01*
X126714250Y-48115000D01*
X125945504Y-48115000D01*
X125952116Y-47641442D01*
X125839671Y-47073553D01*
X125619064Y-46538319D01*
X125298697Y-46056129D01*
X124890774Y-45645347D01*
X124410831Y-45321622D01*
X123877151Y-45097284D01*
X123310060Y-44980877D01*
X122731159Y-44976835D01*
X122162498Y-45085313D01*
X121625737Y-45302178D01*
X121141322Y-45619171D01*
X120727703Y-46024216D01*
X120400635Y-46501887D01*
X120172576Y-47033988D01*
X120052213Y-47600253D01*
X120044130Y-48179111D01*
X120148635Y-48748516D01*
X120361748Y-49286777D01*
X120417315Y-49373000D01*
X117673926Y-49373000D01*
X116628949Y-48328023D01*
X117400570Y-48328023D01*
X117580041Y-48313711D01*
X117884442Y-48219444D01*
X118150530Y-48044104D01*
X118357234Y-47801576D01*
X118488188Y-47511064D01*
X118533023Y-47195570D01*
X118533023Y-45694430D01*
X118518711Y-45514959D01*
X118424444Y-45210558D01*
X118249104Y-44944470D01*
X118227526Y-44926080D01*
X118290437Y-44836898D01*
X118440202Y-44500521D01*
X118521778Y-44141461D01*
X118527651Y-43720895D01*
X118456132Y-43359697D01*
X118315817Y-43019269D01*
X118112053Y-42712579D01*
X118037001Y-42637001D01*
X118078189Y-42597779D01*
X118290437Y-42296898D01*
X118440202Y-41960521D01*
X118521778Y-41601461D01*
X118527651Y-41180895D01*
X118456132Y-40819697D01*
X118315817Y-40479269D01*
X118112053Y-40172579D01*
X118037001Y-40097001D01*
X118078189Y-40057779D01*
X118290437Y-39756898D01*
X118440202Y-39420521D01*
X118521778Y-39061461D01*
X118527651Y-38640895D01*
X118456132Y-38279697D01*
X118315817Y-37939269D01*
X118112053Y-37632579D01*
X117852599Y-37371307D01*
X117547339Y-37165407D01*
X117207899Y-37022719D01*
X117133340Y-37007414D01*
X116530463Y-36404537D01*
X116414995Y-36309691D01*
X120044130Y-36309691D01*
X120148635Y-36879096D01*
X120361748Y-37417357D01*
X120675351Y-37903974D01*
X121077499Y-38320411D01*
X121552875Y-38650805D01*
X122083371Y-38882573D01*
X122648782Y-39006887D01*
X123227570Y-39019011D01*
X123797690Y-38918483D01*
X124337426Y-38709133D01*
X124826220Y-38398935D01*
X125245454Y-37999704D01*
X125579159Y-37526646D01*
X125814625Y-36997781D01*
X125942883Y-36433253D01*
X125950538Y-35885000D01*
X126714250Y-35885000D01*
X126873000Y-35726250D01*
X126873000Y-34377000D01*
X126853000Y-34377000D01*
X126853000Y-34123000D01*
X126873000Y-34123000D01*
X126873000Y-32773750D01*
X126714250Y-32615000D01*
X124937458Y-32615000D01*
X124814777Y-32639403D01*
X124699215Y-32687270D01*
X124595211Y-32756763D01*
X124506763Y-32845211D01*
X124437270Y-32949215D01*
X124389403Y-33064777D01*
X124365000Y-33187458D01*
X124365000Y-33432936D01*
X123877151Y-33227864D01*
X123310060Y-33111457D01*
X122731159Y-33107415D01*
X122162498Y-33215893D01*
X121625737Y-33432758D01*
X121141322Y-33749751D01*
X120727703Y-34154796D01*
X120400635Y-34632467D01*
X120172576Y-35164568D01*
X120052213Y-35730833D01*
X120044130Y-36309691D01*
X116414995Y-36309691D01*
X116414301Y-36309121D01*
X116299201Y-36212540D01*
X116291705Y-36208419D01*
X116285093Y-36202988D01*
X116152629Y-36131962D01*
X116020943Y-36059567D01*
X116012789Y-36056980D01*
X116005248Y-36052937D01*
X115861510Y-36008992D01*
X115718272Y-35963554D01*
X115709771Y-35962600D01*
X115701589Y-35960099D01*
X115552051Y-35944909D01*
X115402716Y-35928159D01*
X115385994Y-35928042D01*
X115385679Y-35928010D01*
X115385386Y-35928038D01*
X115380000Y-35928000D01*
X115055660Y-35928000D01*
X115007339Y-35895407D01*
X114667899Y-35752719D01*
X114307209Y-35678680D01*
X113939008Y-35676110D01*
X113577319Y-35745105D01*
X113235920Y-35883040D01*
X113112051Y-35964097D01*
X112985105Y-36002425D01*
X112840785Y-36044354D01*
X112833191Y-36048290D01*
X112824998Y-36050764D01*
X112692284Y-36121329D01*
X112558872Y-36190483D01*
X112552186Y-36195821D01*
X112544632Y-36199837D01*
X112428123Y-36294860D01*
X112310713Y-36388587D01*
X112298808Y-36400326D01*
X112298560Y-36400528D01*
X112298371Y-36400757D01*
X112294537Y-36404537D01*
X110122281Y-38576793D01*
X110122281Y-34490775D01*
X110145704Y-34457571D01*
X110296381Y-34119146D01*
X110378454Y-33757900D01*
X110384362Y-33334774D01*
X110312407Y-32971377D01*
X110171239Y-32628877D01*
X109966234Y-32320320D01*
X109705201Y-32057458D01*
X109398082Y-31850304D01*
X109056576Y-31706748D01*
X108693691Y-31632258D01*
X108323248Y-31629672D01*
X107959357Y-31699088D01*
X107615880Y-31837862D01*
X107562183Y-31873000D01*
X100946449Y-31873000D01*
X100912801Y-31850304D01*
X100571295Y-31706748D01*
X100208410Y-31632258D01*
X99837967Y-31629672D01*
X99474076Y-31699088D01*
X99130599Y-31837862D01*
X99076902Y-31873000D01*
X98264955Y-31873000D01*
X98169248Y-31776622D01*
X98127000Y-31748125D01*
X98127000Y-31129707D01*
X98163932Y-31130481D01*
X98574622Y-31058066D01*
X98963426Y-30907259D01*
X99315533Y-30683805D01*
X99617531Y-30396215D01*
X99857919Y-30055445D01*
X100027538Y-29674472D01*
X100081674Y-29436191D01*
X102361158Y-29436191D01*
X102428032Y-29800557D01*
X102564404Y-30144995D01*
X102765081Y-30456384D01*
X103022419Y-30722865D01*
X103326615Y-30934287D01*
X103666083Y-31082597D01*
X104027894Y-31162147D01*
X104398264Y-31169905D01*
X104763088Y-31105576D01*
X105108470Y-30971612D01*
X105421253Y-30773114D01*
X105689524Y-30517643D01*
X105903064Y-30214930D01*
X106053741Y-29876505D01*
X106135814Y-29515259D01*
X106141722Y-29092133D01*
X106069767Y-28728736D01*
X105928599Y-28386236D01*
X105723594Y-28077679D01*
X105462561Y-27814817D01*
X105155442Y-27607663D01*
X104813936Y-27464107D01*
X104451051Y-27389617D01*
X104080608Y-27387031D01*
X103716717Y-27456447D01*
X103373240Y-27595221D01*
X103063259Y-27798066D01*
X102798581Y-28057258D01*
X102589288Y-28362923D01*
X102443352Y-28703419D01*
X102366330Y-29065775D01*
X102361158Y-29436191D01*
X100081674Y-29436191D01*
X100119930Y-29267809D01*
X100126581Y-28791487D01*
X100045580Y-28382403D01*
X99886664Y-27996843D01*
X99655885Y-27649493D01*
X99362034Y-27353583D01*
X99137303Y-27202000D01*
X109863915Y-27202000D01*
X109661086Y-27334727D01*
X109661086Y-27334727D01*
G37*
X109661086Y-27334727D02*
X109363132Y-27626505D01*
X109127526Y-27970599D01*
X108963242Y-28353902D01*
X108876538Y-28761816D01*
X108870715Y-29178801D01*
X108945996Y-29588976D01*
X109099514Y-29976717D01*
X109325420Y-30327256D01*
X109615111Y-30627239D01*
X109957552Y-30865242D01*
X110339699Y-31032198D01*
X110746997Y-31121748D01*
X111163932Y-31130481D01*
X111574622Y-31058066D01*
X111963426Y-30907259D01*
X112315533Y-30683805D01*
X112617531Y-30396215D01*
X112857919Y-30055445D01*
X113027538Y-29674472D01*
X113119930Y-29267809D01*
X113126581Y-28791487D01*
X113045580Y-28382403D01*
X112886664Y-27996843D01*
X112655885Y-27649493D01*
X112362034Y-27353583D01*
X112137303Y-27202000D01*
X124863915Y-27202000D01*
X124661086Y-27334727D01*
X124363132Y-27626505D01*
X124127526Y-27970599D01*
X123963242Y-28353902D01*
X123876538Y-28761816D01*
X123870715Y-29178801D01*
X123945996Y-29588976D01*
X124099514Y-29976717D01*
X124325420Y-30327256D01*
X124615111Y-30627239D01*
X124957552Y-30865242D01*
X125339699Y-31032198D01*
X125746997Y-31121748D01*
X126163932Y-31130481D01*
X126574622Y-31058066D01*
X126963426Y-30907259D01*
X127315533Y-30683805D01*
X127617531Y-30396215D01*
X127857919Y-30055445D01*
X128027538Y-29674472D01*
X128119930Y-29267809D01*
X128126581Y-28791487D01*
X128045580Y-28382403D01*
X127886664Y-27996843D01*
X127655885Y-27649493D01*
X127362034Y-27353583D01*
X127137303Y-27202000D01*
X128798000Y-27202000D01*
X128798000Y-32615000D01*
X127285750Y-32615000D01*
X127127000Y-32773750D01*
X127127000Y-34123000D01*
X127147000Y-34123000D01*
X127147000Y-34377000D01*
X127127000Y-34377000D01*
X127127000Y-35726250D01*
X127285750Y-35885000D01*
X128798000Y-35885000D01*
X128798000Y-48115000D01*
X127285750Y-48115000D01*
X127127000Y-48273750D01*
X127127000Y-49623000D01*
X127147000Y-49623000D01*
X127147000Y-49877000D01*
X127127000Y-49877000D01*
X127127000Y-51226250D01*
X127285750Y-51385000D01*
X128798000Y-51385000D01*
X128798000Y-53863393D01*
X128655885Y-53649493D01*
X128362034Y-53353583D01*
X128016304Y-53120385D01*
X127631863Y-52958781D01*
X127223354Y-52874926D01*
X127175518Y-52874592D01*
X125685926Y-51385000D01*
X126714250Y-51385000D01*
X126873000Y-51226250D01*
X126873000Y-49877000D01*
X126853000Y-49877000D01*
X126853000Y-49623000D01*
X126873000Y-49623000D01*
X126873000Y-48273750D01*
X126714250Y-48115000D01*
X125945504Y-48115000D01*
X125952116Y-47641442D01*
X125839671Y-47073553D01*
X125619064Y-46538319D01*
X125298697Y-46056129D01*
X124890774Y-45645347D01*
X124410831Y-45321622D01*
X123877151Y-45097284D01*
X123310060Y-44980877D01*
X122731159Y-44976835D01*
X122162498Y-45085313D01*
X121625737Y-45302178D01*
X121141322Y-45619171D01*
X120727703Y-46024216D01*
X120400635Y-46501887D01*
X120172576Y-47033988D01*
X120052213Y-47600253D01*
X120044130Y-48179111D01*
X120148635Y-48748516D01*
X120361748Y-49286777D01*
X120417315Y-49373000D01*
X117673926Y-49373000D01*
X116628949Y-48328023D01*
X117400570Y-48328023D01*
X117580041Y-48313711D01*
X117884442Y-48219444D01*
X118150530Y-48044104D01*
X118357234Y-47801576D01*
X118488188Y-47511064D01*
X118533023Y-47195570D01*
X118533023Y-45694430D01*
X118518711Y-45514959D01*
X118424444Y-45210558D01*
X118249104Y-44944470D01*
X118227526Y-44926080D01*
X118290437Y-44836898D01*
X118440202Y-44500521D01*
X118521778Y-44141461D01*
X118527651Y-43720895D01*
X118456132Y-43359697D01*
X118315817Y-43019269D01*
X118112053Y-42712579D01*
X118037001Y-42637001D01*
X118078189Y-42597779D01*
X118290437Y-42296898D01*
X118440202Y-41960521D01*
X118521778Y-41601461D01*
X118527651Y-41180895D01*
X118456132Y-40819697D01*
X118315817Y-40479269D01*
X118112053Y-40172579D01*
X118037001Y-40097001D01*
X118078189Y-40057779D01*
X118290437Y-39756898D01*
X118440202Y-39420521D01*
X118521778Y-39061461D01*
X118527651Y-38640895D01*
X118456132Y-38279697D01*
X118315817Y-37939269D01*
X118112053Y-37632579D01*
X117852599Y-37371307D01*
X117547339Y-37165407D01*
X117207899Y-37022719D01*
X117133340Y-37007414D01*
X116530463Y-36404537D01*
X116414995Y-36309691D01*
X120044130Y-36309691D01*
X120148635Y-36879096D01*
X120361748Y-37417357D01*
X120675351Y-37903974D01*
X121077499Y-38320411D01*
X121552875Y-38650805D01*
X122083371Y-38882573D01*
X122648782Y-39006887D01*
X123227570Y-39019011D01*
X123797690Y-38918483D01*
X124337426Y-38709133D01*
X124826220Y-38398935D01*
X125245454Y-37999704D01*
X125579159Y-37526646D01*
X125814625Y-36997781D01*
X125942883Y-36433253D01*
X125950538Y-35885000D01*
X126714250Y-35885000D01*
X126873000Y-35726250D01*
X126873000Y-34377000D01*
X126853000Y-34377000D01*
X126853000Y-34123000D01*
X126873000Y-34123000D01*
X126873000Y-32773750D01*
X126714250Y-32615000D01*
X124937458Y-32615000D01*
X124814777Y-32639403D01*
X124699215Y-32687270D01*
X124595211Y-32756763D01*
X124506763Y-32845211D01*
X124437270Y-32949215D01*
X124389403Y-33064777D01*
X124365000Y-33187458D01*
X124365000Y-33432936D01*
X123877151Y-33227864D01*
X123310060Y-33111457D01*
X122731159Y-33107415D01*
X122162498Y-33215893D01*
X121625737Y-33432758D01*
X121141322Y-33749751D01*
X120727703Y-34154796D01*
X120400635Y-34632467D01*
X120172576Y-35164568D01*
X120052213Y-35730833D01*
X120044130Y-36309691D01*
X116414995Y-36309691D01*
X116414301Y-36309121D01*
X116299201Y-36212540D01*
X116291705Y-36208419D01*
X116285093Y-36202988D01*
X116152629Y-36131962D01*
X116020943Y-36059567D01*
X116012789Y-36056980D01*
X116005248Y-36052937D01*
X115861510Y-36008992D01*
X115718272Y-35963554D01*
X115709771Y-35962600D01*
X115701589Y-35960099D01*
X115552051Y-35944909D01*
X115402716Y-35928159D01*
X115385994Y-35928042D01*
X115385679Y-35928010D01*
X115385386Y-35928038D01*
X115380000Y-35928000D01*
X115055660Y-35928000D01*
X115007339Y-35895407D01*
X114667899Y-35752719D01*
X114307209Y-35678680D01*
X113939008Y-35676110D01*
X113577319Y-35745105D01*
X113235920Y-35883040D01*
X113112051Y-35964097D01*
X112985105Y-36002425D01*
X112840785Y-36044354D01*
X112833191Y-36048290D01*
X112824998Y-36050764D01*
X112692284Y-36121329D01*
X112558872Y-36190483D01*
X112552186Y-36195821D01*
X112544632Y-36199837D01*
X112428123Y-36294860D01*
X112310713Y-36388587D01*
X112298808Y-36400326D01*
X112298560Y-36400528D01*
X112298371Y-36400757D01*
X112294537Y-36404537D01*
X110122281Y-38576793D01*
X110122281Y-34490775D01*
X110145704Y-34457571D01*
X110296381Y-34119146D01*
X110378454Y-33757900D01*
X110384362Y-33334774D01*
X110312407Y-32971377D01*
X110171239Y-32628877D01*
X109966234Y-32320320D01*
X109705201Y-32057458D01*
X109398082Y-31850304D01*
X109056576Y-31706748D01*
X108693691Y-31632258D01*
X108323248Y-31629672D01*
X107959357Y-31699088D01*
X107615880Y-31837862D01*
X107562183Y-31873000D01*
X100946449Y-31873000D01*
X100912801Y-31850304D01*
X100571295Y-31706748D01*
X100208410Y-31632258D01*
X99837967Y-31629672D01*
X99474076Y-31699088D01*
X99130599Y-31837862D01*
X99076902Y-31873000D01*
X98264955Y-31873000D01*
X98169248Y-31776622D01*
X98127000Y-31748125D01*
X98127000Y-31129707D01*
X98163932Y-31130481D01*
X98574622Y-31058066D01*
X98963426Y-30907259D01*
X99315533Y-30683805D01*
X99617531Y-30396215D01*
X99857919Y-30055445D01*
X100027538Y-29674472D01*
X100081674Y-29436191D01*
X102361158Y-29436191D01*
X102428032Y-29800557D01*
X102564404Y-30144995D01*
X102765081Y-30456384D01*
X103022419Y-30722865D01*
X103326615Y-30934287D01*
X103666083Y-31082597D01*
X104027894Y-31162147D01*
X104398264Y-31169905D01*
X104763088Y-31105576D01*
X105108470Y-30971612D01*
X105421253Y-30773114D01*
X105689524Y-30517643D01*
X105903064Y-30214930D01*
X106053741Y-29876505D01*
X106135814Y-29515259D01*
X106141722Y-29092133D01*
X106069767Y-28728736D01*
X105928599Y-28386236D01*
X105723594Y-28077679D01*
X105462561Y-27814817D01*
X105155442Y-27607663D01*
X104813936Y-27464107D01*
X104451051Y-27389617D01*
X104080608Y-27387031D01*
X103716717Y-27456447D01*
X103373240Y-27595221D01*
X103063259Y-27798066D01*
X102798581Y-28057258D01*
X102589288Y-28362923D01*
X102443352Y-28703419D01*
X102366330Y-29065775D01*
X102361158Y-29436191D01*
X100081674Y-29436191D01*
X100119930Y-29267809D01*
X100126581Y-28791487D01*
X100045580Y-28382403D01*
X99886664Y-27996843D01*
X99655885Y-27649493D01*
X99362034Y-27353583D01*
X99137303Y-27202000D01*
X109863915Y-27202000D01*
X109661086Y-27334727D01*
M02*
