G04 #@! TF.FileFunction,Soldermask,Bot*
%FSLAX46Y46*%
G04 Gerber Fmt 4.6, Leading zero omitted, Abs format (unit mm)*
G04 Created by KiCad (PCBNEW 4.0.2+dfsg1-stable) date Mi 16 Aug 2017 11:46:23 CEST*
%MOMM*%
G01*
G04 APERTURE LIST*
%ADD10C,0.100000*%
%ADD11C,1.924000*%
%ADD12R,1.797000X1.797000*%
%ADD13C,1.797000*%
%ADD14R,2.400000X2.400000*%
%ADD15C,2.400000*%
%ADD16C,2.398980*%
%ADD17R,2.398980X2.398980*%
%ADD18C,10.400000*%
%ADD19C,1.901140*%
%ADD20C,3.399740*%
%ADD21R,2.178000X2.178000*%
%ADD22C,2.178000*%
%ADD23O,3.400000X4.400000*%
%ADD24R,9.400000X4.400000*%
%ADD25C,4.049980*%
%ADD26R,1.901140X1.901140*%
%ADD27R,4.400000X2.400000*%
G04 APERTURE END LIST*
D10*
D11*
X108495281Y-50030000D03*
X104252641Y-54272641D03*
X100010000Y-50030000D03*
X104252641Y-45787359D03*
D12*
X97000000Y-44190000D03*
D13*
X97000000Y-51810000D03*
D12*
X97000000Y-40810000D03*
D13*
X97000000Y-33190000D03*
D12*
X94000000Y-44190000D03*
D13*
X94000000Y-51810000D03*
D14*
X90000000Y-46000000D03*
D15*
X90000000Y-48540000D03*
D14*
X90000000Y-35000000D03*
D15*
X90000000Y-37540000D03*
D12*
X94000000Y-40810000D03*
D13*
X94000000Y-33190000D03*
D11*
X108495281Y-33520000D03*
X104252641Y-37762641D03*
X100010000Y-33520000D03*
X104252641Y-29277359D03*
D12*
X83190000Y-64000000D03*
D13*
X90810000Y-64000000D03*
D16*
X106000000Y-70000000D03*
D17*
X108540000Y-70000000D03*
D16*
X103460000Y-70000000D03*
D18*
X76000000Y-33000000D03*
X38000000Y-33000000D03*
X76000000Y-72000000D03*
X38000000Y-72000000D03*
D19*
X55887140Y-35002120D03*
X58427140Y-35002120D03*
X60459140Y-35002120D03*
X62999140Y-35002120D03*
D20*
X52839140Y-32335120D03*
X66555140Y-32335120D03*
D21*
X84000000Y-57540000D03*
D22*
X84000000Y-52460000D03*
D23*
X107000000Y-77000000D03*
X103000000Y-77000000D03*
X99000000Y-77000000D03*
D16*
X83000000Y-29000000D03*
X98000000Y-29000000D03*
X90000000Y-58000000D03*
X105000000Y-58000000D03*
X111000000Y-29000000D03*
X126000000Y-29000000D03*
X112000000Y-55000000D03*
X127000000Y-55000000D03*
X93000000Y-64000000D03*
X108000000Y-64000000D03*
X108000000Y-61000000D03*
X93000000Y-61000000D03*
D24*
X48500000Y-59000000D03*
D25*
X123000000Y-36061480D03*
X123000000Y-47930900D03*
D26*
X116650000Y-46445000D03*
D19*
X114110000Y-45175000D03*
X116650000Y-43905000D03*
X114110000Y-42635000D03*
X116650000Y-41365000D03*
X114110000Y-40095000D03*
X116650000Y-38825000D03*
X114110000Y-37555000D03*
D27*
X127000000Y-34250000D03*
X127000000Y-49750000D03*
D11*
X54000000Y-65530000D03*
X56540000Y-65530000D03*
M02*
