G04 #@! TF.FileFunction,Copper,L1,Top,Signal*
%FSLAX46Y46*%
G04 Gerber Fmt 4.6, Leading zero omitted, Abs format (unit mm)*
G04 Created by KiCad (PCBNEW 4.0.2+dfsg1-stable) date Mi 16 Aug 2017 11:46:23 CEST*
%MOMM*%
G01*
G04 APERTURE LIST*
%ADD10C,0.100000*%
%ADD11C,1.524000*%
%ADD12R,1.397000X1.397000*%
%ADD13C,1.397000*%
%ADD14R,2.000000X2.000000*%
%ADD15C,2.000000*%
%ADD16C,1.998980*%
%ADD17R,1.998980X1.998980*%
%ADD18C,10.000000*%
%ADD19C,1.501140*%
%ADD20C,2.999740*%
%ADD21R,1.778000X1.778000*%
%ADD22C,1.778000*%
%ADD23O,3.000000X4.000000*%
%ADD24R,5.000000X5.000000*%
%ADD25R,9.000000X4.000000*%
%ADD26C,3.649980*%
%ADD27R,1.501140X1.501140*%
%ADD28R,4.000000X2.000000*%
%ADD29R,10.000000X10.000000*%
%ADD30C,0.600000*%
%ADD31C,1.000000*%
%ADD32C,0.254000*%
G04 APERTURE END LIST*
D10*
D11*
X108495281Y-50030000D03*
X104252641Y-54272641D03*
X100010000Y-50030000D03*
X104252641Y-45787359D03*
D12*
X97000000Y-44190000D03*
D13*
X97000000Y-51810000D03*
D12*
X97000000Y-40810000D03*
D13*
X97000000Y-33190000D03*
D12*
X94000000Y-44190000D03*
D13*
X94000000Y-51810000D03*
D14*
X90000000Y-46000000D03*
D15*
X90000000Y-48540000D03*
D14*
X90000000Y-35000000D03*
D15*
X90000000Y-37540000D03*
D12*
X94000000Y-40810000D03*
D13*
X94000000Y-33190000D03*
D11*
X108495281Y-33520000D03*
X104252641Y-37762641D03*
X100010000Y-33520000D03*
X104252641Y-29277359D03*
D12*
X83190000Y-64000000D03*
D13*
X90810000Y-64000000D03*
D16*
X106000000Y-70000000D03*
D17*
X108540000Y-70000000D03*
D16*
X103460000Y-70000000D03*
D18*
X76000000Y-33000000D03*
X38000000Y-33000000D03*
X76000000Y-72000000D03*
X38000000Y-72000000D03*
D19*
X55887140Y-35002120D03*
X58427140Y-35002120D03*
X60459140Y-35002120D03*
X62999140Y-35002120D03*
D20*
X52839140Y-32335120D03*
X66555140Y-32335120D03*
D21*
X84000000Y-57540000D03*
D22*
X84000000Y-52460000D03*
D23*
X107000000Y-77000000D03*
X103000000Y-77000000D03*
X99000000Y-77000000D03*
D16*
X83000000Y-29000000D03*
X98000000Y-29000000D03*
X90000000Y-58000000D03*
X105000000Y-58000000D03*
X111000000Y-29000000D03*
X126000000Y-29000000D03*
X112000000Y-55000000D03*
X127000000Y-55000000D03*
X93000000Y-64000000D03*
X108000000Y-64000000D03*
X108000000Y-61000000D03*
X93000000Y-61000000D03*
D24*
X76000000Y-43000000D03*
X76000000Y-61000000D03*
X36000000Y-61000000D03*
X36000000Y-43000000D03*
D25*
X48500000Y-59000000D03*
D26*
X123000000Y-36061480D03*
X123000000Y-47930900D03*
D27*
X116650000Y-46445000D03*
D19*
X114110000Y-45175000D03*
X116650000Y-43905000D03*
X114110000Y-42635000D03*
X116650000Y-41365000D03*
X114110000Y-40095000D03*
X116650000Y-38825000D03*
X114110000Y-37555000D03*
D28*
X127000000Y-34250000D03*
X127000000Y-49750000D03*
D11*
X54000000Y-65530000D03*
X56540000Y-65530000D03*
D29*
X50000000Y-75000000D03*
X122000000Y-70000000D03*
D30*
X32900000Y-38500000D03*
X80600000Y-44500000D03*
X70100000Y-28900000D03*
X114400000Y-77600000D03*
X112500000Y-66200000D03*
D31*
X112000000Y-55000000D02*
X110000000Y-55000000D01*
X104252641Y-49252641D02*
X104252641Y-45787359D01*
X110000000Y-55000000D02*
X104252641Y-49252641D01*
X104465282Y-46000000D02*
X104252641Y-45787359D01*
X104465282Y-46000000D02*
X104252641Y-45787359D01*
X104252641Y-45787359D02*
X98597359Y-45787359D01*
X98597359Y-45787359D02*
X97000000Y-44190000D01*
X90810000Y-64000000D02*
X93000000Y-64000000D01*
X97000000Y-51810000D02*
X94000000Y-51810000D01*
X105000000Y-58000000D02*
X124000000Y-58000000D01*
X124000000Y-58000000D02*
X127000000Y-55000000D01*
X104252641Y-54272641D02*
X104252641Y-57252641D01*
X104252641Y-57252641D02*
X105000000Y-58000000D01*
X94000000Y-33190000D02*
X97000000Y-33190000D01*
X94000000Y-44190000D02*
X91810000Y-44190000D01*
X91810000Y-44190000D02*
X90000000Y-46000000D01*
X90000000Y-37540000D02*
X90730000Y-37540000D01*
X90730000Y-37540000D02*
X94000000Y-40810000D01*
X90000000Y-48540000D02*
X90000000Y-58000000D01*
X83000000Y-29000000D02*
X84000000Y-29000000D01*
X84000000Y-29000000D02*
X90000000Y-35000000D01*
X116650000Y-43905000D02*
X117095000Y-43905000D01*
X117095000Y-43905000D02*
X118500000Y-42500000D01*
X118500000Y-42500000D02*
X118392084Y-38030937D01*
X118392084Y-38030937D02*
X111000000Y-31000000D01*
X111000000Y-29000000D02*
X111000000Y-31000000D01*
X111000000Y-31000000D02*
X111000000Y-33000000D01*
X111000000Y-33000000D02*
X111000000Y-36985000D01*
X111000000Y-36985000D02*
X114110000Y-40095000D01*
X104252641Y-29277359D02*
X110722641Y-29277359D01*
X110722641Y-29277359D02*
X111000000Y-29000000D01*
X98000000Y-29000000D02*
X103975282Y-29000000D01*
X103975282Y-29000000D02*
X104252641Y-29277359D01*
X122000000Y-70000000D02*
X115000000Y-70000000D01*
X106000000Y-71000000D02*
X106000000Y-70000000D01*
X108000000Y-73000000D02*
X106000000Y-71000000D01*
X112000000Y-73000000D02*
X108000000Y-73000000D01*
X113000000Y-72000000D02*
X112000000Y-73000000D01*
X115000000Y-70000000D02*
X113000000Y-72000000D01*
X108000000Y-61000000D02*
X108000000Y-64000000D01*
X108000000Y-64000000D02*
X108540000Y-64540000D01*
X108540000Y-64540000D02*
X108540000Y-70000000D01*
X58427140Y-35002120D02*
X60459140Y-35002120D01*
X84000000Y-57540000D02*
X79460000Y-57540000D01*
X79460000Y-57540000D02*
X76000000Y-61000000D01*
X83190000Y-64000000D02*
X79000000Y-64000000D01*
X79000000Y-64000000D02*
X76000000Y-61000000D01*
X76000000Y-72000000D02*
X76000000Y-61000000D01*
X93000000Y-61000000D02*
X94460000Y-61000000D01*
X94460000Y-61000000D02*
X103460000Y-70000000D01*
X103000000Y-77000000D02*
X103000000Y-70460000D01*
X103000000Y-70460000D02*
X103460000Y-70000000D01*
X127000000Y-34250000D02*
X126250000Y-34250000D01*
D10*
G36*
X81281366Y-27882218D02*
X81195328Y-28007873D01*
X81036992Y-28377297D01*
X80953427Y-28770440D01*
X80947816Y-29172327D01*
X81020371Y-29567650D01*
X81168330Y-29941351D01*
X81386056Y-30279196D01*
X81665257Y-30568317D01*
X81995298Y-30797702D01*
X82363608Y-30958612D01*
X82756158Y-31044920D01*
X83157996Y-31053337D01*
X83553815Y-30983544D01*
X83725082Y-30917114D01*
X86601975Y-33794007D01*
X87944920Y-35286167D01*
X87944920Y-36000000D01*
X87958254Y-36167209D01*
X88046081Y-36450812D01*
X88161380Y-36625786D01*
X88036504Y-36917143D01*
X87952919Y-37310383D01*
X87947305Y-37712370D01*
X88019879Y-38107791D01*
X88167874Y-38481585D01*
X88385655Y-38819514D01*
X88664926Y-39108707D01*
X88995049Y-39338149D01*
X89363450Y-39499099D01*
X89756097Y-39585429D01*
X90158035Y-39593848D01*
X90526794Y-39528826D01*
X92246420Y-41248451D01*
X92246420Y-41508500D01*
X92259754Y-41675709D01*
X92347581Y-41959312D01*
X92510940Y-42207220D01*
X92736898Y-42399802D01*
X92964419Y-42502361D01*
X92850688Y-42537581D01*
X92695260Y-42640000D01*
X91810000Y-42640000D01*
X91667534Y-42653969D01*
X91524876Y-42666450D01*
X91517046Y-42668725D01*
X91508937Y-42669520D01*
X91371957Y-42710877D01*
X91234380Y-42750846D01*
X91227138Y-42754600D01*
X91219341Y-42756954D01*
X91092981Y-42824141D01*
X90965810Y-42890060D01*
X90959439Y-42895146D01*
X90952243Y-42898972D01*
X90841300Y-42989454D01*
X90729394Y-43078788D01*
X90718051Y-43089974D01*
X90717817Y-43090165D01*
X90717637Y-43090382D01*
X90713985Y-43093984D01*
X89863049Y-43944920D01*
X89000000Y-43944920D01*
X88832791Y-43958254D01*
X88549188Y-44046081D01*
X88301280Y-44209440D01*
X88108698Y-44435398D01*
X87986692Y-44706062D01*
X87944920Y-45000000D01*
X87944920Y-47000000D01*
X87958254Y-47167209D01*
X88046081Y-47450812D01*
X88161380Y-47625786D01*
X88036504Y-47917143D01*
X87952919Y-48310383D01*
X87947305Y-48712370D01*
X88019879Y-49107791D01*
X88167874Y-49481585D01*
X88385655Y-49819514D01*
X88450000Y-49886145D01*
X88450000Y-56649214D01*
X88422403Y-56676239D01*
X88195328Y-57007873D01*
X88036992Y-57377297D01*
X87953427Y-57770440D01*
X87947816Y-58172327D01*
X88020371Y-58567650D01*
X88168330Y-58941351D01*
X88386056Y-59279196D01*
X88665257Y-59568317D01*
X88995298Y-59797702D01*
X89363608Y-59958612D01*
X89756158Y-60044920D01*
X90157996Y-60053337D01*
X90553815Y-59983544D01*
X90928540Y-59838197D01*
X91267898Y-59622835D01*
X91558961Y-59345659D01*
X91790644Y-59017227D01*
X91954122Y-58650050D01*
X92043168Y-58258112D01*
X92049578Y-57799037D01*
X91971510Y-57404766D01*
X91818348Y-57033167D01*
X91595926Y-56698394D01*
X91550000Y-56652146D01*
X91550000Y-51957019D01*
X92249202Y-51957019D01*
X92311102Y-52294284D01*
X92437331Y-52613103D01*
X92623082Y-52901332D01*
X92861279Y-53147992D01*
X93142850Y-53343689D01*
X93457070Y-53480968D01*
X93791969Y-53554601D01*
X94134792Y-53561782D01*
X94472481Y-53502238D01*
X94792174Y-53378238D01*
X94820912Y-53360000D01*
X96180184Y-53360000D01*
X96457070Y-53480968D01*
X96791969Y-53554601D01*
X97134792Y-53561782D01*
X97472481Y-53502238D01*
X97792174Y-53378238D01*
X98081693Y-53194503D01*
X98330010Y-52958034D01*
X98527668Y-52677836D01*
X98667137Y-52364583D01*
X98743106Y-52030205D01*
X98748575Y-51638551D01*
X98681972Y-51302183D01*
X98654065Y-51234475D01*
X98829925Y-51416584D01*
X99121721Y-51619388D01*
X99447352Y-51761652D01*
X99794414Y-51837959D01*
X100149687Y-51845401D01*
X100499640Y-51783695D01*
X100830943Y-51655191D01*
X101130976Y-51464784D01*
X101388312Y-51219727D01*
X101593148Y-50929353D01*
X101737682Y-50604723D01*
X101816410Y-50258203D01*
X101822077Y-49852324D01*
X101753056Y-49503740D01*
X101617642Y-49175202D01*
X101420993Y-48879222D01*
X101170601Y-48627075D01*
X100876001Y-48428365D01*
X100548415Y-48290661D01*
X100200322Y-48219207D01*
X99844979Y-48216727D01*
X99495922Y-48283313D01*
X99166446Y-48416430D01*
X98869100Y-48611007D01*
X98615212Y-48859634D01*
X98414450Y-49152839D01*
X98274462Y-49479455D01*
X98200580Y-49827041D01*
X98195619Y-50182358D01*
X98259766Y-50531871D01*
X98302688Y-50640280D01*
X98119928Y-50456239D01*
X97835653Y-50264493D01*
X97519547Y-50131614D01*
X97183652Y-50062665D01*
X96840762Y-50060271D01*
X96503937Y-50124524D01*
X96186007Y-50252976D01*
X96175273Y-50260000D01*
X94824965Y-50260000D01*
X94519547Y-50131614D01*
X94183652Y-50062665D01*
X93840762Y-50060271D01*
X93503937Y-50124524D01*
X93186007Y-50252976D01*
X92899082Y-50440734D01*
X92654091Y-50680648D01*
X92460364Y-50963578D01*
X92325282Y-51278748D01*
X92253990Y-51614154D01*
X92249202Y-51957019D01*
X91550000Y-51957019D01*
X91550000Y-49894896D01*
X91559348Y-49885994D01*
X91791089Y-49557480D01*
X91954608Y-49190211D01*
X92043676Y-48798176D01*
X92050088Y-48338987D01*
X91972001Y-47944618D01*
X91840121Y-47624653D01*
X91891302Y-47564602D01*
X92013308Y-47293938D01*
X92055080Y-47000000D01*
X92055080Y-46136951D01*
X92452031Y-45740000D01*
X92690198Y-45740000D01*
X92736898Y-45779802D01*
X93007562Y-45901808D01*
X93301500Y-45943580D01*
X94698500Y-45943580D01*
X94865709Y-45930246D01*
X95149312Y-45842419D01*
X95397220Y-45679060D01*
X95495485Y-45563765D01*
X95510940Y-45587220D01*
X95736898Y-45779802D01*
X96007562Y-45901808D01*
X96301500Y-45943580D01*
X96561548Y-45943580D01*
X97501344Y-46883375D01*
X97611971Y-46974245D01*
X97721660Y-47066285D01*
X97728803Y-47070212D01*
X97735101Y-47075385D01*
X97861258Y-47143030D01*
X97986749Y-47212019D01*
X97994520Y-47214484D01*
X98001702Y-47218335D01*
X98138630Y-47260198D01*
X98275096Y-47303488D01*
X98283193Y-47304396D01*
X98290990Y-47306780D01*
X98433479Y-47321253D01*
X98575718Y-47337208D01*
X98591644Y-47337319D01*
X98591948Y-47337350D01*
X98592231Y-47337323D01*
X98597359Y-47337359D01*
X102702641Y-47337359D01*
X102702641Y-49252641D01*
X102716610Y-49395102D01*
X102729091Y-49537766D01*
X102731366Y-49545597D01*
X102732161Y-49553704D01*
X102773528Y-49690718D01*
X102813488Y-49828261D01*
X102817240Y-49835499D01*
X102819595Y-49843300D01*
X102886811Y-49969715D01*
X102952702Y-50096832D01*
X102957786Y-50103201D01*
X102961613Y-50110398D01*
X103052125Y-50221377D01*
X103141430Y-50333247D01*
X103152617Y-50344592D01*
X103152806Y-50344824D01*
X103153020Y-50345001D01*
X103156625Y-50348657D01*
X108903984Y-56096015D01*
X109014580Y-56186859D01*
X109124301Y-56278926D01*
X109131448Y-56282855D01*
X109137742Y-56288025D01*
X109263844Y-56355640D01*
X109389390Y-56424660D01*
X109397163Y-56427126D01*
X109404342Y-56430975D01*
X109466570Y-56450000D01*
X106349259Y-56450000D01*
X106312715Y-56413200D01*
X105979504Y-56188446D01*
X105802641Y-56114099D01*
X105802641Y-55218984D01*
X105835789Y-55171994D01*
X105980323Y-54847364D01*
X106059051Y-54500844D01*
X106064718Y-54094965D01*
X105995697Y-53746381D01*
X105860283Y-53417843D01*
X105663634Y-53121863D01*
X105413242Y-52869716D01*
X105118642Y-52671006D01*
X104791056Y-52533302D01*
X104442963Y-52461848D01*
X104087620Y-52459368D01*
X103738563Y-52525954D01*
X103409087Y-52659071D01*
X103111741Y-52853648D01*
X102857853Y-53102275D01*
X102657091Y-53395480D01*
X102517103Y-53722096D01*
X102443221Y-54069682D01*
X102438260Y-54424999D01*
X102502407Y-54774512D01*
X102633221Y-55104910D01*
X102702641Y-55212628D01*
X102702641Y-57252641D01*
X102716610Y-57395102D01*
X102729091Y-57537766D01*
X102731366Y-57545597D01*
X102732161Y-57553704D01*
X102773528Y-57690718D01*
X102813488Y-57828261D01*
X102817240Y-57835499D01*
X102819595Y-57843300D01*
X102886811Y-57969715D01*
X102948971Y-58089633D01*
X102947816Y-58172327D01*
X103020371Y-58567650D01*
X103168330Y-58941351D01*
X103386056Y-59279196D01*
X103665257Y-59568317D01*
X103995298Y-59797702D01*
X104363608Y-59958612D01*
X104756158Y-60044920D01*
X105157996Y-60053337D01*
X105553815Y-59983544D01*
X105928540Y-59838197D01*
X106267898Y-59622835D01*
X106344382Y-59550000D01*
X106551314Y-59550000D01*
X106422403Y-59676239D01*
X106195328Y-60007873D01*
X106036992Y-60377297D01*
X105953427Y-60770440D01*
X105947816Y-61172327D01*
X106020371Y-61567650D01*
X106168330Y-61941351D01*
X106386056Y-62279196D01*
X106450000Y-62345412D01*
X106450000Y-62649214D01*
X106422403Y-62676239D01*
X106195328Y-63007873D01*
X106036992Y-63377297D01*
X105953427Y-63770440D01*
X105947816Y-64172327D01*
X106020371Y-64567650D01*
X106168330Y-64941351D01*
X106386056Y-65279196D01*
X106665257Y-65568317D01*
X106990000Y-65794020D01*
X106990000Y-68112287D01*
X106841790Y-68209950D01*
X106649208Y-68435908D01*
X106570071Y-68611470D01*
X106516994Y-68522833D01*
X106218879Y-68450356D01*
X105912353Y-68437430D01*
X105609196Y-68484553D01*
X105483006Y-68522833D01*
X105361741Y-68725342D01*
X105211730Y-68575331D01*
X105068996Y-68718065D01*
X105055926Y-68698394D01*
X104772715Y-68413200D01*
X104439504Y-68188446D01*
X104068983Y-68032693D01*
X103675267Y-67951875D01*
X103603404Y-67951373D01*
X95556016Y-59903984D01*
X95445390Y-59813116D01*
X95335699Y-59721074D01*
X95328552Y-59717145D01*
X95322258Y-59711975D01*
X95196121Y-59644340D01*
X95070610Y-59575340D01*
X95062841Y-59572876D01*
X95055658Y-59569024D01*
X94918756Y-59527169D01*
X94782263Y-59483871D01*
X94774161Y-59482962D01*
X94766369Y-59480580D01*
X94623930Y-59466111D01*
X94481641Y-59450151D01*
X94465715Y-59450040D01*
X94465411Y-59450009D01*
X94465128Y-59450036D01*
X94460000Y-59450000D01*
X94349259Y-59450000D01*
X94312715Y-59413200D01*
X93979504Y-59188446D01*
X93608983Y-59032693D01*
X93215267Y-58951875D01*
X92813351Y-58949069D01*
X92418544Y-59024382D01*
X92045885Y-59174946D01*
X91709568Y-59395026D01*
X91422403Y-59676239D01*
X91195328Y-60007873D01*
X91036992Y-60377297D01*
X90953427Y-60770440D01*
X90947816Y-61172327D01*
X91020371Y-61567650D01*
X91168330Y-61941351D01*
X91386056Y-62279196D01*
X91493624Y-62390586D01*
X91329547Y-62321614D01*
X90993652Y-62252665D01*
X90650762Y-62250271D01*
X90313937Y-62314524D01*
X89996007Y-62442976D01*
X89709082Y-62630734D01*
X89464091Y-62870648D01*
X89270364Y-63153578D01*
X89135282Y-63468748D01*
X89063990Y-63804154D01*
X89059202Y-64147019D01*
X89121102Y-64484284D01*
X89247331Y-64803103D01*
X89433082Y-65091332D01*
X89671279Y-65337992D01*
X89952850Y-65533689D01*
X90267070Y-65670968D01*
X90601969Y-65744601D01*
X90944792Y-65751782D01*
X91282481Y-65692238D01*
X91602174Y-65568238D01*
X91630912Y-65550000D01*
X91647568Y-65550000D01*
X91665257Y-65568317D01*
X91995298Y-65797702D01*
X92363608Y-65958612D01*
X92756158Y-66044920D01*
X93157996Y-66053337D01*
X93553815Y-65983544D01*
X93928540Y-65838197D01*
X94267898Y-65622835D01*
X94558961Y-65345659D01*
X94790644Y-65017227D01*
X94954122Y-64650050D01*
X95043168Y-64258112D01*
X95049578Y-63799037D01*
X95045275Y-63777307D01*
X101408263Y-70140294D01*
X101407816Y-70172327D01*
X101452613Y-70416409D01*
X101450151Y-70438359D01*
X101450040Y-70454285D01*
X101450009Y-70454589D01*
X101450036Y-70454872D01*
X101450000Y-70460000D01*
X101450000Y-74475082D01*
X101215858Y-74663337D01*
X100999367Y-74921341D01*
X100809405Y-74688425D01*
X100425942Y-74371196D01*
X99988165Y-74134491D01*
X99512749Y-73987325D01*
X99017802Y-73935304D01*
X98522178Y-73980410D01*
X98044753Y-74120923D01*
X97603714Y-74351493D01*
X97215858Y-74663337D01*
X96895961Y-75044576D01*
X96656205Y-75480690D01*
X96505724Y-75955067D01*
X96450249Y-76449638D01*
X96450000Y-76485242D01*
X96450000Y-77514758D01*
X96498564Y-78010056D01*
X96642408Y-78486487D01*
X96876051Y-78925906D01*
X97190595Y-79311575D01*
X97574058Y-79628804D01*
X98011835Y-79865509D01*
X98487251Y-80012675D01*
X98982198Y-80064696D01*
X99477822Y-80019590D01*
X99955247Y-79879077D01*
X100396286Y-79648507D01*
X100784142Y-79336663D01*
X101000633Y-79078659D01*
X101190595Y-79311575D01*
X101574058Y-79628804D01*
X102011835Y-79865509D01*
X102487251Y-80012675D01*
X102982198Y-80064696D01*
X103477822Y-80019590D01*
X103955247Y-79879077D01*
X104396286Y-79648507D01*
X104784142Y-79336663D01*
X105104039Y-78955424D01*
X105282738Y-78630373D01*
X105450816Y-78863961D01*
X105746679Y-79139984D01*
X106090706Y-79352983D01*
X106241389Y-79413079D01*
X106550000Y-79364978D01*
X106550000Y-77450000D01*
X107450000Y-77450000D01*
X107450000Y-79364978D01*
X107758611Y-79413079D01*
X107909294Y-79352983D01*
X108253321Y-79139984D01*
X108549184Y-78863961D01*
X108785512Y-78535522D01*
X108953224Y-78167289D01*
X109045875Y-77773412D01*
X108923958Y-77450000D01*
X107450000Y-77450000D01*
X106550000Y-77450000D01*
X106530000Y-77450000D01*
X106530000Y-76550000D01*
X106550000Y-76550000D01*
X106550000Y-74635022D01*
X107450000Y-74635022D01*
X107450000Y-76550000D01*
X108923958Y-76550000D01*
X109045875Y-76226588D01*
X108953224Y-75832711D01*
X108785512Y-75464478D01*
X108549184Y-75136039D01*
X108253321Y-74860016D01*
X107909294Y-74647017D01*
X107758611Y-74586921D01*
X107450000Y-74635022D01*
X106550000Y-74635022D01*
X106241389Y-74586921D01*
X106090706Y-74647017D01*
X105746679Y-74860016D01*
X105450816Y-75136039D01*
X105281788Y-75370947D01*
X105123949Y-75074094D01*
X104809405Y-74688425D01*
X104550000Y-74473826D01*
X104550000Y-71735732D01*
X104727898Y-71622835D01*
X105018961Y-71345659D01*
X105066016Y-71278955D01*
X105211730Y-71424669D01*
X105361741Y-71274658D01*
X105483006Y-71477167D01*
X105781121Y-71549644D01*
X106087647Y-71562570D01*
X106390804Y-71515447D01*
X106516994Y-71477167D01*
X106568351Y-71391402D01*
X106586591Y-71450302D01*
X106749950Y-71698210D01*
X106975908Y-71890792D01*
X107246572Y-72012798D01*
X107540510Y-72054570D01*
X109539490Y-72054570D01*
X109706699Y-72041236D01*
X109990302Y-71953409D01*
X110238210Y-71790050D01*
X110430792Y-71564092D01*
X110552798Y-71293428D01*
X110594570Y-70999490D01*
X110594570Y-70589500D01*
X116442000Y-70589500D01*
X116442000Y-75054958D01*
X116463444Y-75162763D01*
X116505507Y-75264312D01*
X116566573Y-75355704D01*
X116644296Y-75433427D01*
X116735688Y-75494493D01*
X116837238Y-75536556D01*
X116945042Y-75558000D01*
X121410500Y-75558000D01*
X121550000Y-75418500D01*
X121550000Y-70450000D01*
X122450000Y-70450000D01*
X122450000Y-75418500D01*
X122589500Y-75558000D01*
X127054958Y-75558000D01*
X127162762Y-75536556D01*
X127264312Y-75494493D01*
X127355704Y-75433427D01*
X127433427Y-75355704D01*
X127494493Y-75264312D01*
X127536556Y-75162763D01*
X127558000Y-75054958D01*
X127558000Y-70589500D01*
X127418500Y-70450000D01*
X122450000Y-70450000D01*
X121550000Y-70450000D01*
X116581500Y-70450000D01*
X116442000Y-70589500D01*
X110594570Y-70589500D01*
X110594570Y-69000510D01*
X110581236Y-68833301D01*
X110493409Y-68549698D01*
X110330050Y-68301790D01*
X110104092Y-68109208D01*
X110090000Y-68102856D01*
X110090000Y-64945042D01*
X116442000Y-64945042D01*
X116442000Y-69410500D01*
X116581500Y-69550000D01*
X121550000Y-69550000D01*
X121550000Y-64581500D01*
X122450000Y-64581500D01*
X122450000Y-69550000D01*
X127418500Y-69550000D01*
X127558000Y-69410500D01*
X127558000Y-64945042D01*
X127536556Y-64837237D01*
X127494493Y-64735688D01*
X127433427Y-64644296D01*
X127355704Y-64566573D01*
X127264312Y-64505507D01*
X127162762Y-64463444D01*
X127054958Y-64442000D01*
X122589500Y-64442000D01*
X122450000Y-64581500D01*
X121550000Y-64581500D01*
X121410500Y-64442000D01*
X116945042Y-64442000D01*
X116837238Y-64463444D01*
X116735688Y-64505507D01*
X116644296Y-64566573D01*
X116566573Y-64644296D01*
X116505507Y-64735688D01*
X116463444Y-64837237D01*
X116442000Y-64945042D01*
X110090000Y-64945042D01*
X110090000Y-64540000D01*
X110076032Y-64397543D01*
X110063550Y-64254875D01*
X110061275Y-64247044D01*
X110060480Y-64238937D01*
X110044189Y-64184979D01*
X110049578Y-63799037D01*
X109971510Y-63404766D01*
X109818348Y-63033167D01*
X109595926Y-62698394D01*
X109550000Y-62652146D01*
X109550000Y-62354192D01*
X109558961Y-62345659D01*
X109790644Y-62017227D01*
X109954122Y-61650050D01*
X110043168Y-61258112D01*
X110049578Y-60799037D01*
X109971510Y-60404766D01*
X109818348Y-60033167D01*
X109595926Y-59698394D01*
X109448564Y-59550000D01*
X124000000Y-59550000D01*
X124142461Y-59536031D01*
X124285125Y-59523550D01*
X124292956Y-59521275D01*
X124301063Y-59520480D01*
X124438077Y-59479113D01*
X124575620Y-59439153D01*
X124582858Y-59435401D01*
X124590659Y-59433046D01*
X124717074Y-59365830D01*
X124844191Y-59299939D01*
X124850560Y-59294855D01*
X124857757Y-59291028D01*
X124968736Y-59200516D01*
X125080606Y-59111211D01*
X125091951Y-59100024D01*
X125092183Y-59099835D01*
X125092360Y-59099621D01*
X125096016Y-59096016D01*
X127139090Y-57052941D01*
X127157996Y-57053337D01*
X127176921Y-57050000D01*
X128875000Y-57050000D01*
X128875000Y-80875000D01*
X55570577Y-80875000D01*
X55698720Y-80790560D01*
X55891302Y-80564602D01*
X56013308Y-80293938D01*
X56055080Y-80000000D01*
X56055080Y-72508700D01*
X69942048Y-72508700D01*
X70156228Y-73675675D01*
X70592995Y-74778823D01*
X71235714Y-75776127D01*
X72059902Y-76629599D01*
X73034168Y-77306732D01*
X74121401Y-77781732D01*
X75280190Y-78036508D01*
X76466396Y-78061356D01*
X77634837Y-77855328D01*
X78741008Y-77426273D01*
X79742774Y-76790532D01*
X80601980Y-75972322D01*
X81285897Y-75002807D01*
X81768476Y-73918917D01*
X82031336Y-72761935D01*
X82050259Y-71406767D01*
X81819807Y-70242897D01*
X81367679Y-69145954D01*
X80711099Y-68157721D01*
X79875074Y-67315840D01*
X78891449Y-66652376D01*
X77797690Y-66192602D01*
X77550000Y-66141759D01*
X77550000Y-64742031D01*
X77903985Y-65096016D01*
X78014612Y-65186886D01*
X78124301Y-65278926D01*
X78131444Y-65282853D01*
X78137742Y-65288026D01*
X78263899Y-65355671D01*
X78389390Y-65424660D01*
X78397161Y-65427125D01*
X78404343Y-65430976D01*
X78541271Y-65472839D01*
X78677737Y-65516129D01*
X78685834Y-65517037D01*
X78693631Y-65519421D01*
X78836120Y-65533894D01*
X78978359Y-65549849D01*
X78994285Y-65549960D01*
X78994589Y-65549991D01*
X78994872Y-65549964D01*
X79000000Y-65550000D01*
X81880198Y-65550000D01*
X81926898Y-65589802D01*
X82197562Y-65711808D01*
X82491500Y-65753580D01*
X83888500Y-65753580D01*
X84055709Y-65740246D01*
X84339312Y-65652419D01*
X84587220Y-65489060D01*
X84779802Y-65263102D01*
X84901808Y-64992438D01*
X84943580Y-64698500D01*
X84943580Y-63301500D01*
X84930246Y-63134291D01*
X84842419Y-62850688D01*
X84679060Y-62602780D01*
X84453102Y-62410198D01*
X84182438Y-62288192D01*
X83888500Y-62246420D01*
X82491500Y-62246420D01*
X82324291Y-62259754D01*
X82040688Y-62347581D01*
X81885260Y-62450000D01*
X79642031Y-62450000D01*
X79555080Y-62363049D01*
X79555080Y-59636951D01*
X80102031Y-59090000D01*
X82295584Y-59090000D01*
X82320440Y-59127720D01*
X82546398Y-59320302D01*
X82817062Y-59442308D01*
X83111000Y-59484080D01*
X84889000Y-59484080D01*
X85056209Y-59470746D01*
X85339812Y-59382919D01*
X85587720Y-59219560D01*
X85780302Y-58993602D01*
X85902308Y-58722938D01*
X85944080Y-58429000D01*
X85944080Y-56651000D01*
X85930746Y-56483791D01*
X85842919Y-56200188D01*
X85679560Y-55952280D01*
X85453602Y-55759698D01*
X85182938Y-55637692D01*
X84889000Y-55595920D01*
X83111000Y-55595920D01*
X82943791Y-55609254D01*
X82660188Y-55697081D01*
X82412280Y-55860440D01*
X82301857Y-55990000D01*
X79460000Y-55990000D01*
X79317534Y-56003969D01*
X79174876Y-56016450D01*
X79167046Y-56018725D01*
X79158937Y-56019520D01*
X79021911Y-56060890D01*
X78884380Y-56100847D01*
X78877142Y-56104599D01*
X78869341Y-56106954D01*
X78742966Y-56174149D01*
X78615809Y-56240060D01*
X78609436Y-56245147D01*
X78602243Y-56248972D01*
X78491292Y-56339461D01*
X78379394Y-56428789D01*
X78368053Y-56439973D01*
X78367817Y-56440165D01*
X78367636Y-56440383D01*
X78363985Y-56443984D01*
X77363049Y-57444920D01*
X73500000Y-57444920D01*
X73332791Y-57458254D01*
X73049188Y-57546081D01*
X72801280Y-57709440D01*
X72608698Y-57935398D01*
X72486692Y-58206062D01*
X72444920Y-58500000D01*
X72444920Y-63500000D01*
X72458254Y-63667209D01*
X72546081Y-63950812D01*
X72709440Y-64198720D01*
X72935398Y-64391302D01*
X73206062Y-64513308D01*
X73500000Y-64555080D01*
X74450000Y-64555080D01*
X74450000Y-66136320D01*
X74283569Y-66168068D01*
X73183497Y-66612527D01*
X72190704Y-67262192D01*
X71343007Y-68092319D01*
X70672692Y-69071288D01*
X70205294Y-70161811D01*
X69958614Y-71322350D01*
X69942048Y-72508700D01*
X56055080Y-72508700D01*
X56055080Y-70000000D01*
X56041746Y-69832791D01*
X55953919Y-69549188D01*
X55790560Y-69301280D01*
X55564602Y-69108698D01*
X55293938Y-68986692D01*
X55000000Y-68944920D01*
X54462700Y-68944920D01*
X55366256Y-66731208D01*
X55378312Y-66719727D01*
X55466828Y-66594247D01*
X56014568Y-66594247D01*
X56101461Y-66781794D01*
X56354100Y-66843295D01*
X56613883Y-66854328D01*
X56870827Y-66814468D01*
X56978539Y-66781794D01*
X57065432Y-66594247D01*
X56540000Y-66068815D01*
X56014568Y-66594247D01*
X55466828Y-66594247D01*
X55583148Y-66429353D01*
X55727682Y-66104723D01*
X55806410Y-65758203D01*
X55806883Y-65724302D01*
X56001185Y-65530000D01*
X57078815Y-65530000D01*
X57604247Y-66055432D01*
X57791794Y-65968539D01*
X57853295Y-65715900D01*
X57864328Y-65456117D01*
X57824468Y-65199173D01*
X57791794Y-65091461D01*
X57604247Y-65004568D01*
X57078815Y-65530000D01*
X56001185Y-65530000D01*
X55938252Y-65467067D01*
X56477067Y-64928252D01*
X56540000Y-64991185D01*
X57065432Y-64465753D01*
X56978539Y-64278206D01*
X56725900Y-64216705D01*
X56466117Y-64205672D01*
X56392421Y-64217105D01*
X60705912Y-53649047D01*
X83439571Y-53649047D01*
X83545883Y-53841267D01*
X83824081Y-53903320D01*
X84109039Y-53909908D01*
X84389807Y-53860776D01*
X84454117Y-53841267D01*
X84560429Y-53649047D01*
X84000000Y-53088618D01*
X83439571Y-53649047D01*
X60705912Y-53649047D01*
X61146732Y-52569039D01*
X82550092Y-52569039D01*
X82599224Y-52849807D01*
X82618733Y-52914117D01*
X82810953Y-53020429D01*
X83371382Y-52460000D01*
X84628618Y-52460000D01*
X85189047Y-53020429D01*
X85381267Y-52914117D01*
X85443320Y-52635919D01*
X85449908Y-52350961D01*
X85400776Y-52070193D01*
X85381267Y-52005883D01*
X85189047Y-51899571D01*
X84628618Y-52460000D01*
X83371382Y-52460000D01*
X82810953Y-51899571D01*
X82618733Y-52005883D01*
X82556680Y-52284081D01*
X82550092Y-52569039D01*
X61146732Y-52569039D01*
X61676563Y-51270953D01*
X83439571Y-51270953D01*
X84000000Y-51831382D01*
X84560429Y-51270953D01*
X84454117Y-51078733D01*
X84175919Y-51016680D01*
X83890961Y-51010092D01*
X83610193Y-51059224D01*
X83545883Y-51078733D01*
X83439571Y-51270953D01*
X61676563Y-51270953D01*
X64811850Y-43589500D01*
X72942000Y-43589500D01*
X72942000Y-45554958D01*
X72963444Y-45662763D01*
X73005507Y-45764312D01*
X73066573Y-45855704D01*
X73144296Y-45933427D01*
X73235688Y-45994493D01*
X73337238Y-46036556D01*
X73445042Y-46058000D01*
X75410500Y-46058000D01*
X75550000Y-45918500D01*
X75550000Y-43450000D01*
X76450000Y-43450000D01*
X76450000Y-45918500D01*
X76589500Y-46058000D01*
X78554958Y-46058000D01*
X78662762Y-46036556D01*
X78764312Y-45994493D01*
X78855704Y-45933427D01*
X78933427Y-45855704D01*
X78994493Y-45764312D01*
X79036556Y-45662763D01*
X79058000Y-45554958D01*
X79058000Y-43589500D01*
X78918500Y-43450000D01*
X76450000Y-43450000D01*
X75550000Y-43450000D01*
X73081500Y-43450000D01*
X72942000Y-43589500D01*
X64811850Y-43589500D01*
X66095302Y-40445042D01*
X72942000Y-40445042D01*
X72942000Y-42410500D01*
X73081500Y-42550000D01*
X75550000Y-42550000D01*
X75550000Y-40081500D01*
X76450000Y-40081500D01*
X76450000Y-42550000D01*
X78918500Y-42550000D01*
X79058000Y-42410500D01*
X79058000Y-40445042D01*
X79036556Y-40337237D01*
X78994493Y-40235688D01*
X78933427Y-40144296D01*
X78855704Y-40066573D01*
X78764312Y-40005507D01*
X78662762Y-39963444D01*
X78554958Y-39942000D01*
X76589500Y-39942000D01*
X76450000Y-40081500D01*
X75550000Y-40081500D01*
X75410500Y-39942000D01*
X73445042Y-39942000D01*
X73337238Y-39963444D01*
X73235688Y-40005507D01*
X73144296Y-40066573D01*
X73066573Y-40144296D01*
X73005507Y-40235688D01*
X72963444Y-40337237D01*
X72942000Y-40445042D01*
X66095302Y-40445042D01*
X67437972Y-37155502D01*
X72480894Y-37155502D01*
X73092013Y-37768086D01*
X74078097Y-38243789D01*
X75138038Y-38517976D01*
X76231104Y-38580110D01*
X77315289Y-38427803D01*
X78348928Y-38066909D01*
X78907987Y-37768086D01*
X79519106Y-37155502D01*
X76000000Y-33636396D01*
X72480894Y-37155502D01*
X67437972Y-37155502D01*
X68972140Y-33396792D01*
X69007035Y-33231104D01*
X70419890Y-33231104D01*
X70572197Y-34315289D01*
X70933091Y-35348928D01*
X71231914Y-35907987D01*
X71844498Y-36519106D01*
X75363604Y-33000000D01*
X76636396Y-33000000D01*
X80155502Y-36519106D01*
X80768086Y-35907987D01*
X81243789Y-34921903D01*
X81517976Y-33861962D01*
X81580110Y-32768896D01*
X81427803Y-31684711D01*
X81066909Y-30651072D01*
X80768086Y-30092013D01*
X80155502Y-29480894D01*
X76636396Y-33000000D01*
X75363604Y-33000000D01*
X71844498Y-29480894D01*
X71231914Y-30092013D01*
X70756211Y-31078097D01*
X70482024Y-32138038D01*
X70419890Y-33231104D01*
X69007035Y-33231104D01*
X69049599Y-33029008D01*
X69033495Y-32936402D01*
X69097144Y-32656250D01*
X69105120Y-32085092D01*
X69007992Y-31594560D01*
X68817435Y-31132236D01*
X68540709Y-30715729D01*
X68188353Y-30360905D01*
X67773788Y-30081277D01*
X67312806Y-29887498D01*
X66822964Y-29786948D01*
X66322920Y-29783457D01*
X65831722Y-29877158D01*
X65368079Y-30064482D01*
X64949651Y-30338294D01*
X64592375Y-30688164D01*
X64309860Y-31100767D01*
X64112867Y-31560385D01*
X64030052Y-31950000D01*
X61000000Y-31950000D01*
X60543445Y-32054454D01*
X60211544Y-32306575D01*
X60003883Y-32667961D01*
X59781988Y-33333647D01*
X59620907Y-33398728D01*
X59539315Y-33452120D01*
X59349252Y-33452120D01*
X59287678Y-33410588D01*
X58962159Y-33273752D01*
X58616261Y-33202749D01*
X58263160Y-33200284D01*
X57916305Y-33266450D01*
X57588907Y-33398728D01*
X57293437Y-33592078D01*
X57041150Y-33839136D01*
X56841654Y-34130492D01*
X56702549Y-34455048D01*
X56631720Y-34788273D01*
X56417873Y-35002120D01*
X56636552Y-35220799D01*
X56687947Y-35500826D01*
X56817935Y-35829139D01*
X57009218Y-36125951D01*
X57254508Y-36379958D01*
X57544464Y-36581482D01*
X57868041Y-36722849D01*
X58212914Y-36798675D01*
X58565946Y-36806070D01*
X58628171Y-36795098D01*
X58114894Y-38334928D01*
X31125000Y-56948648D01*
X31125000Y-43589500D01*
X32942000Y-43589500D01*
X32942000Y-45554958D01*
X32963444Y-45662763D01*
X33005507Y-45764312D01*
X33066573Y-45855704D01*
X33144296Y-45933427D01*
X33235688Y-45994493D01*
X33337238Y-46036556D01*
X33445042Y-46058000D01*
X35410500Y-46058000D01*
X35550000Y-45918500D01*
X35550000Y-43450000D01*
X36450000Y-43450000D01*
X36450000Y-45918500D01*
X36589500Y-46058000D01*
X38554958Y-46058000D01*
X38662762Y-46036556D01*
X38764312Y-45994493D01*
X38855704Y-45933427D01*
X38933427Y-45855704D01*
X38994493Y-45764312D01*
X39036556Y-45662763D01*
X39058000Y-45554958D01*
X39058000Y-43589500D01*
X38918500Y-43450000D01*
X36450000Y-43450000D01*
X35550000Y-43450000D01*
X33081500Y-43450000D01*
X32942000Y-43589500D01*
X31125000Y-43589500D01*
X31125000Y-40445042D01*
X32942000Y-40445042D01*
X32942000Y-42410500D01*
X33081500Y-42550000D01*
X35550000Y-42550000D01*
X35550000Y-40081500D01*
X36450000Y-40081500D01*
X36450000Y-42550000D01*
X38918500Y-42550000D01*
X39058000Y-42410500D01*
X39058000Y-40445042D01*
X39036556Y-40337237D01*
X38994493Y-40235688D01*
X38933427Y-40144296D01*
X38855704Y-40066573D01*
X38764312Y-40005507D01*
X38662762Y-39963444D01*
X38554958Y-39942000D01*
X36589500Y-39942000D01*
X36450000Y-40081500D01*
X35550000Y-40081500D01*
X35410500Y-39942000D01*
X33445042Y-39942000D01*
X33337238Y-39963444D01*
X33235688Y-40005507D01*
X33144296Y-40066573D01*
X33066573Y-40144296D01*
X33005507Y-40235688D01*
X32963444Y-40337237D01*
X32942000Y-40445042D01*
X31125000Y-40445042D01*
X31125000Y-37155502D01*
X34480894Y-37155502D01*
X35092013Y-37768086D01*
X36078097Y-38243789D01*
X37138038Y-38517976D01*
X38231104Y-38580110D01*
X39315289Y-38427803D01*
X40348928Y-38066909D01*
X40907987Y-37768086D01*
X41519106Y-37155502D01*
X38000000Y-33636396D01*
X34480894Y-37155502D01*
X31125000Y-37155502D01*
X31125000Y-33231104D01*
X32419890Y-33231104D01*
X32572197Y-34315289D01*
X32933091Y-35348928D01*
X33231914Y-35907987D01*
X33844498Y-36519106D01*
X37363604Y-33000000D01*
X38636396Y-33000000D01*
X42155502Y-36519106D01*
X42620601Y-36055119D01*
X55364874Y-36055119D01*
X55450019Y-36242238D01*
X55700354Y-36303687D01*
X55957866Y-36315118D01*
X56212661Y-36276092D01*
X56324261Y-36242238D01*
X56409406Y-36055119D01*
X55887140Y-35532853D01*
X55364874Y-36055119D01*
X42620601Y-36055119D01*
X42768086Y-35907987D01*
X43170971Y-35072846D01*
X54574142Y-35072846D01*
X54613168Y-35327641D01*
X54647022Y-35439241D01*
X54834141Y-35524386D01*
X55356407Y-35002120D01*
X54834141Y-34479854D01*
X54647022Y-34564999D01*
X54585573Y-34815334D01*
X54574142Y-35072846D01*
X43170971Y-35072846D01*
X43243789Y-34921903D01*
X43517976Y-33861962D01*
X43580110Y-32768896D01*
X43549292Y-32549520D01*
X50285918Y-32549520D01*
X50376188Y-33041360D01*
X50560270Y-33506300D01*
X50831154Y-33926630D01*
X51178522Y-34286340D01*
X51589142Y-34571728D01*
X52047374Y-34771925D01*
X52535764Y-34879304D01*
X53035710Y-34889777D01*
X53528169Y-34802943D01*
X53994382Y-34622111D01*
X54416593Y-34354167D01*
X54778719Y-34009319D01*
X54821184Y-33949121D01*
X55364874Y-33949121D01*
X55887140Y-34471387D01*
X56409406Y-33949121D01*
X56324261Y-33762002D01*
X56073926Y-33700553D01*
X55816414Y-33689122D01*
X55561619Y-33728148D01*
X55450019Y-33762002D01*
X55364874Y-33949121D01*
X54821184Y-33949121D01*
X55066967Y-33600702D01*
X55270358Y-33143878D01*
X55381144Y-32656250D01*
X55389120Y-32085092D01*
X55291992Y-31594560D01*
X55101435Y-31132236D01*
X54824709Y-30715729D01*
X54472353Y-30360905D01*
X54057788Y-30081277D01*
X53596806Y-29887498D01*
X53106964Y-29786948D01*
X52606920Y-29783457D01*
X52115722Y-29877158D01*
X51652079Y-30064482D01*
X51233651Y-30338294D01*
X50876375Y-30688164D01*
X50593860Y-31100767D01*
X50396867Y-31560385D01*
X50292900Y-32049513D01*
X50285918Y-32549520D01*
X43549292Y-32549520D01*
X43427803Y-31684711D01*
X43066909Y-30651072D01*
X42768086Y-30092013D01*
X42155502Y-29480894D01*
X38636396Y-33000000D01*
X37363604Y-33000000D01*
X33844498Y-29480894D01*
X33231914Y-30092013D01*
X32756211Y-31078097D01*
X32482024Y-32138038D01*
X32419890Y-33231104D01*
X31125000Y-33231104D01*
X31125000Y-28844498D01*
X34480894Y-28844498D01*
X38000000Y-32363604D01*
X41519106Y-28844498D01*
X72480894Y-28844498D01*
X76000000Y-32363604D01*
X79519106Y-28844498D01*
X78907987Y-28231914D01*
X77921903Y-27756211D01*
X76861962Y-27482024D01*
X75768896Y-27419890D01*
X74684711Y-27572197D01*
X73651072Y-27933091D01*
X73092013Y-28231914D01*
X72480894Y-28844498D01*
X41519106Y-28844498D01*
X40907987Y-28231914D01*
X39921903Y-27756211D01*
X38861962Y-27482024D01*
X37768896Y-27419890D01*
X36684711Y-27572197D01*
X35651072Y-27933091D01*
X35092013Y-28231914D01*
X34480894Y-28844498D01*
X31125000Y-28844498D01*
X31125000Y-27125000D01*
X80599869Y-27125000D01*
X81281366Y-27882218D01*
X81281366Y-27882218D01*
G37*
X81281366Y-27882218D02*
X81195328Y-28007873D01*
X81036992Y-28377297D01*
X80953427Y-28770440D01*
X80947816Y-29172327D01*
X81020371Y-29567650D01*
X81168330Y-29941351D01*
X81386056Y-30279196D01*
X81665257Y-30568317D01*
X81995298Y-30797702D01*
X82363608Y-30958612D01*
X82756158Y-31044920D01*
X83157996Y-31053337D01*
X83553815Y-30983544D01*
X83725082Y-30917114D01*
X86601975Y-33794007D01*
X87944920Y-35286167D01*
X87944920Y-36000000D01*
X87958254Y-36167209D01*
X88046081Y-36450812D01*
X88161380Y-36625786D01*
X88036504Y-36917143D01*
X87952919Y-37310383D01*
X87947305Y-37712370D01*
X88019879Y-38107791D01*
X88167874Y-38481585D01*
X88385655Y-38819514D01*
X88664926Y-39108707D01*
X88995049Y-39338149D01*
X89363450Y-39499099D01*
X89756097Y-39585429D01*
X90158035Y-39593848D01*
X90526794Y-39528826D01*
X92246420Y-41248451D01*
X92246420Y-41508500D01*
X92259754Y-41675709D01*
X92347581Y-41959312D01*
X92510940Y-42207220D01*
X92736898Y-42399802D01*
X92964419Y-42502361D01*
X92850688Y-42537581D01*
X92695260Y-42640000D01*
X91810000Y-42640000D01*
X91667534Y-42653969D01*
X91524876Y-42666450D01*
X91517046Y-42668725D01*
X91508937Y-42669520D01*
X91371957Y-42710877D01*
X91234380Y-42750846D01*
X91227138Y-42754600D01*
X91219341Y-42756954D01*
X91092981Y-42824141D01*
X90965810Y-42890060D01*
X90959439Y-42895146D01*
X90952243Y-42898972D01*
X90841300Y-42989454D01*
X90729394Y-43078788D01*
X90718051Y-43089974D01*
X90717817Y-43090165D01*
X90717637Y-43090382D01*
X90713985Y-43093984D01*
X89863049Y-43944920D01*
X89000000Y-43944920D01*
X88832791Y-43958254D01*
X88549188Y-44046081D01*
X88301280Y-44209440D01*
X88108698Y-44435398D01*
X87986692Y-44706062D01*
X87944920Y-45000000D01*
X87944920Y-47000000D01*
X87958254Y-47167209D01*
X88046081Y-47450812D01*
X88161380Y-47625786D01*
X88036504Y-47917143D01*
X87952919Y-48310383D01*
X87947305Y-48712370D01*
X88019879Y-49107791D01*
X88167874Y-49481585D01*
X88385655Y-49819514D01*
X88450000Y-49886145D01*
X88450000Y-56649214D01*
X88422403Y-56676239D01*
X88195328Y-57007873D01*
X88036992Y-57377297D01*
X87953427Y-57770440D01*
X87947816Y-58172327D01*
X88020371Y-58567650D01*
X88168330Y-58941351D01*
X88386056Y-59279196D01*
X88665257Y-59568317D01*
X88995298Y-59797702D01*
X89363608Y-59958612D01*
X89756158Y-60044920D01*
X90157996Y-60053337D01*
X90553815Y-59983544D01*
X90928540Y-59838197D01*
X91267898Y-59622835D01*
X91558961Y-59345659D01*
X91790644Y-59017227D01*
X91954122Y-58650050D01*
X92043168Y-58258112D01*
X92049578Y-57799037D01*
X91971510Y-57404766D01*
X91818348Y-57033167D01*
X91595926Y-56698394D01*
X91550000Y-56652146D01*
X91550000Y-51957019D01*
X92249202Y-51957019D01*
X92311102Y-52294284D01*
X92437331Y-52613103D01*
X92623082Y-52901332D01*
X92861279Y-53147992D01*
X93142850Y-53343689D01*
X93457070Y-53480968D01*
X93791969Y-53554601D01*
X94134792Y-53561782D01*
X94472481Y-53502238D01*
X94792174Y-53378238D01*
X94820912Y-53360000D01*
X96180184Y-53360000D01*
X96457070Y-53480968D01*
X96791969Y-53554601D01*
X97134792Y-53561782D01*
X97472481Y-53502238D01*
X97792174Y-53378238D01*
X98081693Y-53194503D01*
X98330010Y-52958034D01*
X98527668Y-52677836D01*
X98667137Y-52364583D01*
X98743106Y-52030205D01*
X98748575Y-51638551D01*
X98681972Y-51302183D01*
X98654065Y-51234475D01*
X98829925Y-51416584D01*
X99121721Y-51619388D01*
X99447352Y-51761652D01*
X99794414Y-51837959D01*
X100149687Y-51845401D01*
X100499640Y-51783695D01*
X100830943Y-51655191D01*
X101130976Y-51464784D01*
X101388312Y-51219727D01*
X101593148Y-50929353D01*
X101737682Y-50604723D01*
X101816410Y-50258203D01*
X101822077Y-49852324D01*
X101753056Y-49503740D01*
X101617642Y-49175202D01*
X101420993Y-48879222D01*
X101170601Y-48627075D01*
X100876001Y-48428365D01*
X100548415Y-48290661D01*
X100200322Y-48219207D01*
X99844979Y-48216727D01*
X99495922Y-48283313D01*
X99166446Y-48416430D01*
X98869100Y-48611007D01*
X98615212Y-48859634D01*
X98414450Y-49152839D01*
X98274462Y-49479455D01*
X98200580Y-49827041D01*
X98195619Y-50182358D01*
X98259766Y-50531871D01*
X98302688Y-50640280D01*
X98119928Y-50456239D01*
X97835653Y-50264493D01*
X97519547Y-50131614D01*
X97183652Y-50062665D01*
X96840762Y-50060271D01*
X96503937Y-50124524D01*
X96186007Y-50252976D01*
X96175273Y-50260000D01*
X94824965Y-50260000D01*
X94519547Y-50131614D01*
X94183652Y-50062665D01*
X93840762Y-50060271D01*
X93503937Y-50124524D01*
X93186007Y-50252976D01*
X92899082Y-50440734D01*
X92654091Y-50680648D01*
X92460364Y-50963578D01*
X92325282Y-51278748D01*
X92253990Y-51614154D01*
X92249202Y-51957019D01*
X91550000Y-51957019D01*
X91550000Y-49894896D01*
X91559348Y-49885994D01*
X91791089Y-49557480D01*
X91954608Y-49190211D01*
X92043676Y-48798176D01*
X92050088Y-48338987D01*
X91972001Y-47944618D01*
X91840121Y-47624653D01*
X91891302Y-47564602D01*
X92013308Y-47293938D01*
X92055080Y-47000000D01*
X92055080Y-46136951D01*
X92452031Y-45740000D01*
X92690198Y-45740000D01*
X92736898Y-45779802D01*
X93007562Y-45901808D01*
X93301500Y-45943580D01*
X94698500Y-45943580D01*
X94865709Y-45930246D01*
X95149312Y-45842419D01*
X95397220Y-45679060D01*
X95495485Y-45563765D01*
X95510940Y-45587220D01*
X95736898Y-45779802D01*
X96007562Y-45901808D01*
X96301500Y-45943580D01*
X96561548Y-45943580D01*
X97501344Y-46883375D01*
X97611971Y-46974245D01*
X97721660Y-47066285D01*
X97728803Y-47070212D01*
X97735101Y-47075385D01*
X97861258Y-47143030D01*
X97986749Y-47212019D01*
X97994520Y-47214484D01*
X98001702Y-47218335D01*
X98138630Y-47260198D01*
X98275096Y-47303488D01*
X98283193Y-47304396D01*
X98290990Y-47306780D01*
X98433479Y-47321253D01*
X98575718Y-47337208D01*
X98591644Y-47337319D01*
X98591948Y-47337350D01*
X98592231Y-47337323D01*
X98597359Y-47337359D01*
X102702641Y-47337359D01*
X102702641Y-49252641D01*
X102716610Y-49395102D01*
X102729091Y-49537766D01*
X102731366Y-49545597D01*
X102732161Y-49553704D01*
X102773528Y-49690718D01*
X102813488Y-49828261D01*
X102817240Y-49835499D01*
X102819595Y-49843300D01*
X102886811Y-49969715D01*
X102952702Y-50096832D01*
X102957786Y-50103201D01*
X102961613Y-50110398D01*
X103052125Y-50221377D01*
X103141430Y-50333247D01*
X103152617Y-50344592D01*
X103152806Y-50344824D01*
X103153020Y-50345001D01*
X103156625Y-50348657D01*
X108903984Y-56096015D01*
X109014580Y-56186859D01*
X109124301Y-56278926D01*
X109131448Y-56282855D01*
X109137742Y-56288025D01*
X109263844Y-56355640D01*
X109389390Y-56424660D01*
X109397163Y-56427126D01*
X109404342Y-56430975D01*
X109466570Y-56450000D01*
X106349259Y-56450000D01*
X106312715Y-56413200D01*
X105979504Y-56188446D01*
X105802641Y-56114099D01*
X105802641Y-55218984D01*
X105835789Y-55171994D01*
X105980323Y-54847364D01*
X106059051Y-54500844D01*
X106064718Y-54094965D01*
X105995697Y-53746381D01*
X105860283Y-53417843D01*
X105663634Y-53121863D01*
X105413242Y-52869716D01*
X105118642Y-52671006D01*
X104791056Y-52533302D01*
X104442963Y-52461848D01*
X104087620Y-52459368D01*
X103738563Y-52525954D01*
X103409087Y-52659071D01*
X103111741Y-52853648D01*
X102857853Y-53102275D01*
X102657091Y-53395480D01*
X102517103Y-53722096D01*
X102443221Y-54069682D01*
X102438260Y-54424999D01*
X102502407Y-54774512D01*
X102633221Y-55104910D01*
X102702641Y-55212628D01*
X102702641Y-57252641D01*
X102716610Y-57395102D01*
X102729091Y-57537766D01*
X102731366Y-57545597D01*
X102732161Y-57553704D01*
X102773528Y-57690718D01*
X102813488Y-57828261D01*
X102817240Y-57835499D01*
X102819595Y-57843300D01*
X102886811Y-57969715D01*
X102948971Y-58089633D01*
X102947816Y-58172327D01*
X103020371Y-58567650D01*
X103168330Y-58941351D01*
X103386056Y-59279196D01*
X103665257Y-59568317D01*
X103995298Y-59797702D01*
X104363608Y-59958612D01*
X104756158Y-60044920D01*
X105157996Y-60053337D01*
X105553815Y-59983544D01*
X105928540Y-59838197D01*
X106267898Y-59622835D01*
X106344382Y-59550000D01*
X106551314Y-59550000D01*
X106422403Y-59676239D01*
X106195328Y-60007873D01*
X106036992Y-60377297D01*
X105953427Y-60770440D01*
X105947816Y-61172327D01*
X106020371Y-61567650D01*
X106168330Y-61941351D01*
X106386056Y-62279196D01*
X106450000Y-62345412D01*
X106450000Y-62649214D01*
X106422403Y-62676239D01*
X106195328Y-63007873D01*
X106036992Y-63377297D01*
X105953427Y-63770440D01*
X105947816Y-64172327D01*
X106020371Y-64567650D01*
X106168330Y-64941351D01*
X106386056Y-65279196D01*
X106665257Y-65568317D01*
X106990000Y-65794020D01*
X106990000Y-68112287D01*
X106841790Y-68209950D01*
X106649208Y-68435908D01*
X106570071Y-68611470D01*
X106516994Y-68522833D01*
X106218879Y-68450356D01*
X105912353Y-68437430D01*
X105609196Y-68484553D01*
X105483006Y-68522833D01*
X105361741Y-68725342D01*
X105211730Y-68575331D01*
X105068996Y-68718065D01*
X105055926Y-68698394D01*
X104772715Y-68413200D01*
X104439504Y-68188446D01*
X104068983Y-68032693D01*
X103675267Y-67951875D01*
X103603404Y-67951373D01*
X95556016Y-59903984D01*
X95445390Y-59813116D01*
X95335699Y-59721074D01*
X95328552Y-59717145D01*
X95322258Y-59711975D01*
X95196121Y-59644340D01*
X95070610Y-59575340D01*
X95062841Y-59572876D01*
X95055658Y-59569024D01*
X94918756Y-59527169D01*
X94782263Y-59483871D01*
X94774161Y-59482962D01*
X94766369Y-59480580D01*
X94623930Y-59466111D01*
X94481641Y-59450151D01*
X94465715Y-59450040D01*
X94465411Y-59450009D01*
X94465128Y-59450036D01*
X94460000Y-59450000D01*
X94349259Y-59450000D01*
X94312715Y-59413200D01*
X93979504Y-59188446D01*
X93608983Y-59032693D01*
X93215267Y-58951875D01*
X92813351Y-58949069D01*
X92418544Y-59024382D01*
X92045885Y-59174946D01*
X91709568Y-59395026D01*
X91422403Y-59676239D01*
X91195328Y-60007873D01*
X91036992Y-60377297D01*
X90953427Y-60770440D01*
X90947816Y-61172327D01*
X91020371Y-61567650D01*
X91168330Y-61941351D01*
X91386056Y-62279196D01*
X91493624Y-62390586D01*
X91329547Y-62321614D01*
X90993652Y-62252665D01*
X90650762Y-62250271D01*
X90313937Y-62314524D01*
X89996007Y-62442976D01*
X89709082Y-62630734D01*
X89464091Y-62870648D01*
X89270364Y-63153578D01*
X89135282Y-63468748D01*
X89063990Y-63804154D01*
X89059202Y-64147019D01*
X89121102Y-64484284D01*
X89247331Y-64803103D01*
X89433082Y-65091332D01*
X89671279Y-65337992D01*
X89952850Y-65533689D01*
X90267070Y-65670968D01*
X90601969Y-65744601D01*
X90944792Y-65751782D01*
X91282481Y-65692238D01*
X91602174Y-65568238D01*
X91630912Y-65550000D01*
X91647568Y-65550000D01*
X91665257Y-65568317D01*
X91995298Y-65797702D01*
X92363608Y-65958612D01*
X92756158Y-66044920D01*
X93157996Y-66053337D01*
X93553815Y-65983544D01*
X93928540Y-65838197D01*
X94267898Y-65622835D01*
X94558961Y-65345659D01*
X94790644Y-65017227D01*
X94954122Y-64650050D01*
X95043168Y-64258112D01*
X95049578Y-63799037D01*
X95045275Y-63777307D01*
X101408263Y-70140294D01*
X101407816Y-70172327D01*
X101452613Y-70416409D01*
X101450151Y-70438359D01*
X101450040Y-70454285D01*
X101450009Y-70454589D01*
X101450036Y-70454872D01*
X101450000Y-70460000D01*
X101450000Y-74475082D01*
X101215858Y-74663337D01*
X100999367Y-74921341D01*
X100809405Y-74688425D01*
X100425942Y-74371196D01*
X99988165Y-74134491D01*
X99512749Y-73987325D01*
X99017802Y-73935304D01*
X98522178Y-73980410D01*
X98044753Y-74120923D01*
X97603714Y-74351493D01*
X97215858Y-74663337D01*
X96895961Y-75044576D01*
X96656205Y-75480690D01*
X96505724Y-75955067D01*
X96450249Y-76449638D01*
X96450000Y-76485242D01*
X96450000Y-77514758D01*
X96498564Y-78010056D01*
X96642408Y-78486487D01*
X96876051Y-78925906D01*
X97190595Y-79311575D01*
X97574058Y-79628804D01*
X98011835Y-79865509D01*
X98487251Y-80012675D01*
X98982198Y-80064696D01*
X99477822Y-80019590D01*
X99955247Y-79879077D01*
X100396286Y-79648507D01*
X100784142Y-79336663D01*
X101000633Y-79078659D01*
X101190595Y-79311575D01*
X101574058Y-79628804D01*
X102011835Y-79865509D01*
X102487251Y-80012675D01*
X102982198Y-80064696D01*
X103477822Y-80019590D01*
X103955247Y-79879077D01*
X104396286Y-79648507D01*
X104784142Y-79336663D01*
X105104039Y-78955424D01*
X105282738Y-78630373D01*
X105450816Y-78863961D01*
X105746679Y-79139984D01*
X106090706Y-79352983D01*
X106241389Y-79413079D01*
X106550000Y-79364978D01*
X106550000Y-77450000D01*
X107450000Y-77450000D01*
X107450000Y-79364978D01*
X107758611Y-79413079D01*
X107909294Y-79352983D01*
X108253321Y-79139984D01*
X108549184Y-78863961D01*
X108785512Y-78535522D01*
X108953224Y-78167289D01*
X109045875Y-77773412D01*
X108923958Y-77450000D01*
X107450000Y-77450000D01*
X106550000Y-77450000D01*
X106530000Y-77450000D01*
X106530000Y-76550000D01*
X106550000Y-76550000D01*
X106550000Y-74635022D01*
X107450000Y-74635022D01*
X107450000Y-76550000D01*
X108923958Y-76550000D01*
X109045875Y-76226588D01*
X108953224Y-75832711D01*
X108785512Y-75464478D01*
X108549184Y-75136039D01*
X108253321Y-74860016D01*
X107909294Y-74647017D01*
X107758611Y-74586921D01*
X107450000Y-74635022D01*
X106550000Y-74635022D01*
X106241389Y-74586921D01*
X106090706Y-74647017D01*
X105746679Y-74860016D01*
X105450816Y-75136039D01*
X105281788Y-75370947D01*
X105123949Y-75074094D01*
X104809405Y-74688425D01*
X104550000Y-74473826D01*
X104550000Y-71735732D01*
X104727898Y-71622835D01*
X105018961Y-71345659D01*
X105066016Y-71278955D01*
X105211730Y-71424669D01*
X105361741Y-71274658D01*
X105483006Y-71477167D01*
X105781121Y-71549644D01*
X106087647Y-71562570D01*
X106390804Y-71515447D01*
X106516994Y-71477167D01*
X106568351Y-71391402D01*
X106586591Y-71450302D01*
X106749950Y-71698210D01*
X106975908Y-71890792D01*
X107246572Y-72012798D01*
X107540510Y-72054570D01*
X109539490Y-72054570D01*
X109706699Y-72041236D01*
X109990302Y-71953409D01*
X110238210Y-71790050D01*
X110430792Y-71564092D01*
X110552798Y-71293428D01*
X110594570Y-70999490D01*
X110594570Y-70589500D01*
X116442000Y-70589500D01*
X116442000Y-75054958D01*
X116463444Y-75162763D01*
X116505507Y-75264312D01*
X116566573Y-75355704D01*
X116644296Y-75433427D01*
X116735688Y-75494493D01*
X116837238Y-75536556D01*
X116945042Y-75558000D01*
X121410500Y-75558000D01*
X121550000Y-75418500D01*
X121550000Y-70450000D01*
X122450000Y-70450000D01*
X122450000Y-75418500D01*
X122589500Y-75558000D01*
X127054958Y-75558000D01*
X127162762Y-75536556D01*
X127264312Y-75494493D01*
X127355704Y-75433427D01*
X127433427Y-75355704D01*
X127494493Y-75264312D01*
X127536556Y-75162763D01*
X127558000Y-75054958D01*
X127558000Y-70589500D01*
X127418500Y-70450000D01*
X122450000Y-70450000D01*
X121550000Y-70450000D01*
X116581500Y-70450000D01*
X116442000Y-70589500D01*
X110594570Y-70589500D01*
X110594570Y-69000510D01*
X110581236Y-68833301D01*
X110493409Y-68549698D01*
X110330050Y-68301790D01*
X110104092Y-68109208D01*
X110090000Y-68102856D01*
X110090000Y-64945042D01*
X116442000Y-64945042D01*
X116442000Y-69410500D01*
X116581500Y-69550000D01*
X121550000Y-69550000D01*
X121550000Y-64581500D01*
X122450000Y-64581500D01*
X122450000Y-69550000D01*
X127418500Y-69550000D01*
X127558000Y-69410500D01*
X127558000Y-64945042D01*
X127536556Y-64837237D01*
X127494493Y-64735688D01*
X127433427Y-64644296D01*
X127355704Y-64566573D01*
X127264312Y-64505507D01*
X127162762Y-64463444D01*
X127054958Y-64442000D01*
X122589500Y-64442000D01*
X122450000Y-64581500D01*
X121550000Y-64581500D01*
X121410500Y-64442000D01*
X116945042Y-64442000D01*
X116837238Y-64463444D01*
X116735688Y-64505507D01*
X116644296Y-64566573D01*
X116566573Y-64644296D01*
X116505507Y-64735688D01*
X116463444Y-64837237D01*
X116442000Y-64945042D01*
X110090000Y-64945042D01*
X110090000Y-64540000D01*
X110076032Y-64397543D01*
X110063550Y-64254875D01*
X110061275Y-64247044D01*
X110060480Y-64238937D01*
X110044189Y-64184979D01*
X110049578Y-63799037D01*
X109971510Y-63404766D01*
X109818348Y-63033167D01*
X109595926Y-62698394D01*
X109550000Y-62652146D01*
X109550000Y-62354192D01*
X109558961Y-62345659D01*
X109790644Y-62017227D01*
X109954122Y-61650050D01*
X110043168Y-61258112D01*
X110049578Y-60799037D01*
X109971510Y-60404766D01*
X109818348Y-60033167D01*
X109595926Y-59698394D01*
X109448564Y-59550000D01*
X124000000Y-59550000D01*
X124142461Y-59536031D01*
X124285125Y-59523550D01*
X124292956Y-59521275D01*
X124301063Y-59520480D01*
X124438077Y-59479113D01*
X124575620Y-59439153D01*
X124582858Y-59435401D01*
X124590659Y-59433046D01*
X124717074Y-59365830D01*
X124844191Y-59299939D01*
X124850560Y-59294855D01*
X124857757Y-59291028D01*
X124968736Y-59200516D01*
X125080606Y-59111211D01*
X125091951Y-59100024D01*
X125092183Y-59099835D01*
X125092360Y-59099621D01*
X125096016Y-59096016D01*
X127139090Y-57052941D01*
X127157996Y-57053337D01*
X127176921Y-57050000D01*
X128875000Y-57050000D01*
X128875000Y-80875000D01*
X55570577Y-80875000D01*
X55698720Y-80790560D01*
X55891302Y-80564602D01*
X56013308Y-80293938D01*
X56055080Y-80000000D01*
X56055080Y-72508700D01*
X69942048Y-72508700D01*
X70156228Y-73675675D01*
X70592995Y-74778823D01*
X71235714Y-75776127D01*
X72059902Y-76629599D01*
X73034168Y-77306732D01*
X74121401Y-77781732D01*
X75280190Y-78036508D01*
X76466396Y-78061356D01*
X77634837Y-77855328D01*
X78741008Y-77426273D01*
X79742774Y-76790532D01*
X80601980Y-75972322D01*
X81285897Y-75002807D01*
X81768476Y-73918917D01*
X82031336Y-72761935D01*
X82050259Y-71406767D01*
X81819807Y-70242897D01*
X81367679Y-69145954D01*
X80711099Y-68157721D01*
X79875074Y-67315840D01*
X78891449Y-66652376D01*
X77797690Y-66192602D01*
X77550000Y-66141759D01*
X77550000Y-64742031D01*
X77903985Y-65096016D01*
X78014612Y-65186886D01*
X78124301Y-65278926D01*
X78131444Y-65282853D01*
X78137742Y-65288026D01*
X78263899Y-65355671D01*
X78389390Y-65424660D01*
X78397161Y-65427125D01*
X78404343Y-65430976D01*
X78541271Y-65472839D01*
X78677737Y-65516129D01*
X78685834Y-65517037D01*
X78693631Y-65519421D01*
X78836120Y-65533894D01*
X78978359Y-65549849D01*
X78994285Y-65549960D01*
X78994589Y-65549991D01*
X78994872Y-65549964D01*
X79000000Y-65550000D01*
X81880198Y-65550000D01*
X81926898Y-65589802D01*
X82197562Y-65711808D01*
X82491500Y-65753580D01*
X83888500Y-65753580D01*
X84055709Y-65740246D01*
X84339312Y-65652419D01*
X84587220Y-65489060D01*
X84779802Y-65263102D01*
X84901808Y-64992438D01*
X84943580Y-64698500D01*
X84943580Y-63301500D01*
X84930246Y-63134291D01*
X84842419Y-62850688D01*
X84679060Y-62602780D01*
X84453102Y-62410198D01*
X84182438Y-62288192D01*
X83888500Y-62246420D01*
X82491500Y-62246420D01*
X82324291Y-62259754D01*
X82040688Y-62347581D01*
X81885260Y-62450000D01*
X79642031Y-62450000D01*
X79555080Y-62363049D01*
X79555080Y-59636951D01*
X80102031Y-59090000D01*
X82295584Y-59090000D01*
X82320440Y-59127720D01*
X82546398Y-59320302D01*
X82817062Y-59442308D01*
X83111000Y-59484080D01*
X84889000Y-59484080D01*
X85056209Y-59470746D01*
X85339812Y-59382919D01*
X85587720Y-59219560D01*
X85780302Y-58993602D01*
X85902308Y-58722938D01*
X85944080Y-58429000D01*
X85944080Y-56651000D01*
X85930746Y-56483791D01*
X85842919Y-56200188D01*
X85679560Y-55952280D01*
X85453602Y-55759698D01*
X85182938Y-55637692D01*
X84889000Y-55595920D01*
X83111000Y-55595920D01*
X82943791Y-55609254D01*
X82660188Y-55697081D01*
X82412280Y-55860440D01*
X82301857Y-55990000D01*
X79460000Y-55990000D01*
X79317534Y-56003969D01*
X79174876Y-56016450D01*
X79167046Y-56018725D01*
X79158937Y-56019520D01*
X79021911Y-56060890D01*
X78884380Y-56100847D01*
X78877142Y-56104599D01*
X78869341Y-56106954D01*
X78742966Y-56174149D01*
X78615809Y-56240060D01*
X78609436Y-56245147D01*
X78602243Y-56248972D01*
X78491292Y-56339461D01*
X78379394Y-56428789D01*
X78368053Y-56439973D01*
X78367817Y-56440165D01*
X78367636Y-56440383D01*
X78363985Y-56443984D01*
X77363049Y-57444920D01*
X73500000Y-57444920D01*
X73332791Y-57458254D01*
X73049188Y-57546081D01*
X72801280Y-57709440D01*
X72608698Y-57935398D01*
X72486692Y-58206062D01*
X72444920Y-58500000D01*
X72444920Y-63500000D01*
X72458254Y-63667209D01*
X72546081Y-63950812D01*
X72709440Y-64198720D01*
X72935398Y-64391302D01*
X73206062Y-64513308D01*
X73500000Y-64555080D01*
X74450000Y-64555080D01*
X74450000Y-66136320D01*
X74283569Y-66168068D01*
X73183497Y-66612527D01*
X72190704Y-67262192D01*
X71343007Y-68092319D01*
X70672692Y-69071288D01*
X70205294Y-70161811D01*
X69958614Y-71322350D01*
X69942048Y-72508700D01*
X56055080Y-72508700D01*
X56055080Y-70000000D01*
X56041746Y-69832791D01*
X55953919Y-69549188D01*
X55790560Y-69301280D01*
X55564602Y-69108698D01*
X55293938Y-68986692D01*
X55000000Y-68944920D01*
X54462700Y-68944920D01*
X55366256Y-66731208D01*
X55378312Y-66719727D01*
X55466828Y-66594247D01*
X56014568Y-66594247D01*
X56101461Y-66781794D01*
X56354100Y-66843295D01*
X56613883Y-66854328D01*
X56870827Y-66814468D01*
X56978539Y-66781794D01*
X57065432Y-66594247D01*
X56540000Y-66068815D01*
X56014568Y-66594247D01*
X55466828Y-66594247D01*
X55583148Y-66429353D01*
X55727682Y-66104723D01*
X55806410Y-65758203D01*
X55806883Y-65724302D01*
X56001185Y-65530000D01*
X57078815Y-65530000D01*
X57604247Y-66055432D01*
X57791794Y-65968539D01*
X57853295Y-65715900D01*
X57864328Y-65456117D01*
X57824468Y-65199173D01*
X57791794Y-65091461D01*
X57604247Y-65004568D01*
X57078815Y-65530000D01*
X56001185Y-65530000D01*
X55938252Y-65467067D01*
X56477067Y-64928252D01*
X56540000Y-64991185D01*
X57065432Y-64465753D01*
X56978539Y-64278206D01*
X56725900Y-64216705D01*
X56466117Y-64205672D01*
X56392421Y-64217105D01*
X60705912Y-53649047D01*
X83439571Y-53649047D01*
X83545883Y-53841267D01*
X83824081Y-53903320D01*
X84109039Y-53909908D01*
X84389807Y-53860776D01*
X84454117Y-53841267D01*
X84560429Y-53649047D01*
X84000000Y-53088618D01*
X83439571Y-53649047D01*
X60705912Y-53649047D01*
X61146732Y-52569039D01*
X82550092Y-52569039D01*
X82599224Y-52849807D01*
X82618733Y-52914117D01*
X82810953Y-53020429D01*
X83371382Y-52460000D01*
X84628618Y-52460000D01*
X85189047Y-53020429D01*
X85381267Y-52914117D01*
X85443320Y-52635919D01*
X85449908Y-52350961D01*
X85400776Y-52070193D01*
X85381267Y-52005883D01*
X85189047Y-51899571D01*
X84628618Y-52460000D01*
X83371382Y-52460000D01*
X82810953Y-51899571D01*
X82618733Y-52005883D01*
X82556680Y-52284081D01*
X82550092Y-52569039D01*
X61146732Y-52569039D01*
X61676563Y-51270953D01*
X83439571Y-51270953D01*
X84000000Y-51831382D01*
X84560429Y-51270953D01*
X84454117Y-51078733D01*
X84175919Y-51016680D01*
X83890961Y-51010092D01*
X83610193Y-51059224D01*
X83545883Y-51078733D01*
X83439571Y-51270953D01*
X61676563Y-51270953D01*
X64811850Y-43589500D01*
X72942000Y-43589500D01*
X72942000Y-45554958D01*
X72963444Y-45662763D01*
X73005507Y-45764312D01*
X73066573Y-45855704D01*
X73144296Y-45933427D01*
X73235688Y-45994493D01*
X73337238Y-46036556D01*
X73445042Y-46058000D01*
X75410500Y-46058000D01*
X75550000Y-45918500D01*
X75550000Y-43450000D01*
X76450000Y-43450000D01*
X76450000Y-45918500D01*
X76589500Y-46058000D01*
X78554958Y-46058000D01*
X78662762Y-46036556D01*
X78764312Y-45994493D01*
X78855704Y-45933427D01*
X78933427Y-45855704D01*
X78994493Y-45764312D01*
X79036556Y-45662763D01*
X79058000Y-45554958D01*
X79058000Y-43589500D01*
X78918500Y-43450000D01*
X76450000Y-43450000D01*
X75550000Y-43450000D01*
X73081500Y-43450000D01*
X72942000Y-43589500D01*
X64811850Y-43589500D01*
X66095302Y-40445042D01*
X72942000Y-40445042D01*
X72942000Y-42410500D01*
X73081500Y-42550000D01*
X75550000Y-42550000D01*
X75550000Y-40081500D01*
X76450000Y-40081500D01*
X76450000Y-42550000D01*
X78918500Y-42550000D01*
X79058000Y-42410500D01*
X79058000Y-40445042D01*
X79036556Y-40337237D01*
X78994493Y-40235688D01*
X78933427Y-40144296D01*
X78855704Y-40066573D01*
X78764312Y-40005507D01*
X78662762Y-39963444D01*
X78554958Y-39942000D01*
X76589500Y-39942000D01*
X76450000Y-40081500D01*
X75550000Y-40081500D01*
X75410500Y-39942000D01*
X73445042Y-39942000D01*
X73337238Y-39963444D01*
X73235688Y-40005507D01*
X73144296Y-40066573D01*
X73066573Y-40144296D01*
X73005507Y-40235688D01*
X72963444Y-40337237D01*
X72942000Y-40445042D01*
X66095302Y-40445042D01*
X67437972Y-37155502D01*
X72480894Y-37155502D01*
X73092013Y-37768086D01*
X74078097Y-38243789D01*
X75138038Y-38517976D01*
X76231104Y-38580110D01*
X77315289Y-38427803D01*
X78348928Y-38066909D01*
X78907987Y-37768086D01*
X79519106Y-37155502D01*
X76000000Y-33636396D01*
X72480894Y-37155502D01*
X67437972Y-37155502D01*
X68972140Y-33396792D01*
X69007035Y-33231104D01*
X70419890Y-33231104D01*
X70572197Y-34315289D01*
X70933091Y-35348928D01*
X71231914Y-35907987D01*
X71844498Y-36519106D01*
X75363604Y-33000000D01*
X76636396Y-33000000D01*
X80155502Y-36519106D01*
X80768086Y-35907987D01*
X81243789Y-34921903D01*
X81517976Y-33861962D01*
X81580110Y-32768896D01*
X81427803Y-31684711D01*
X81066909Y-30651072D01*
X80768086Y-30092013D01*
X80155502Y-29480894D01*
X76636396Y-33000000D01*
X75363604Y-33000000D01*
X71844498Y-29480894D01*
X71231914Y-30092013D01*
X70756211Y-31078097D01*
X70482024Y-32138038D01*
X70419890Y-33231104D01*
X69007035Y-33231104D01*
X69049599Y-33029008D01*
X69033495Y-32936402D01*
X69097144Y-32656250D01*
X69105120Y-32085092D01*
X69007992Y-31594560D01*
X68817435Y-31132236D01*
X68540709Y-30715729D01*
X68188353Y-30360905D01*
X67773788Y-30081277D01*
X67312806Y-29887498D01*
X66822964Y-29786948D01*
X66322920Y-29783457D01*
X65831722Y-29877158D01*
X65368079Y-30064482D01*
X64949651Y-30338294D01*
X64592375Y-30688164D01*
X64309860Y-31100767D01*
X64112867Y-31560385D01*
X64030052Y-31950000D01*
X61000000Y-31950000D01*
X60543445Y-32054454D01*
X60211544Y-32306575D01*
X60003883Y-32667961D01*
X59781988Y-33333647D01*
X59620907Y-33398728D01*
X59539315Y-33452120D01*
X59349252Y-33452120D01*
X59287678Y-33410588D01*
X58962159Y-33273752D01*
X58616261Y-33202749D01*
X58263160Y-33200284D01*
X57916305Y-33266450D01*
X57588907Y-33398728D01*
X57293437Y-33592078D01*
X57041150Y-33839136D01*
X56841654Y-34130492D01*
X56702549Y-34455048D01*
X56631720Y-34788273D01*
X56417873Y-35002120D01*
X56636552Y-35220799D01*
X56687947Y-35500826D01*
X56817935Y-35829139D01*
X57009218Y-36125951D01*
X57254508Y-36379958D01*
X57544464Y-36581482D01*
X57868041Y-36722849D01*
X58212914Y-36798675D01*
X58565946Y-36806070D01*
X58628171Y-36795098D01*
X58114894Y-38334928D01*
X31125000Y-56948648D01*
X31125000Y-43589500D01*
X32942000Y-43589500D01*
X32942000Y-45554958D01*
X32963444Y-45662763D01*
X33005507Y-45764312D01*
X33066573Y-45855704D01*
X33144296Y-45933427D01*
X33235688Y-45994493D01*
X33337238Y-46036556D01*
X33445042Y-46058000D01*
X35410500Y-46058000D01*
X35550000Y-45918500D01*
X35550000Y-43450000D01*
X36450000Y-43450000D01*
X36450000Y-45918500D01*
X36589500Y-46058000D01*
X38554958Y-46058000D01*
X38662762Y-46036556D01*
X38764312Y-45994493D01*
X38855704Y-45933427D01*
X38933427Y-45855704D01*
X38994493Y-45764312D01*
X39036556Y-45662763D01*
X39058000Y-45554958D01*
X39058000Y-43589500D01*
X38918500Y-43450000D01*
X36450000Y-43450000D01*
X35550000Y-43450000D01*
X33081500Y-43450000D01*
X32942000Y-43589500D01*
X31125000Y-43589500D01*
X31125000Y-40445042D01*
X32942000Y-40445042D01*
X32942000Y-42410500D01*
X33081500Y-42550000D01*
X35550000Y-42550000D01*
X35550000Y-40081500D01*
X36450000Y-40081500D01*
X36450000Y-42550000D01*
X38918500Y-42550000D01*
X39058000Y-42410500D01*
X39058000Y-40445042D01*
X39036556Y-40337237D01*
X38994493Y-40235688D01*
X38933427Y-40144296D01*
X38855704Y-40066573D01*
X38764312Y-40005507D01*
X38662762Y-39963444D01*
X38554958Y-39942000D01*
X36589500Y-39942000D01*
X36450000Y-40081500D01*
X35550000Y-40081500D01*
X35410500Y-39942000D01*
X33445042Y-39942000D01*
X33337238Y-39963444D01*
X33235688Y-40005507D01*
X33144296Y-40066573D01*
X33066573Y-40144296D01*
X33005507Y-40235688D01*
X32963444Y-40337237D01*
X32942000Y-40445042D01*
X31125000Y-40445042D01*
X31125000Y-37155502D01*
X34480894Y-37155502D01*
X35092013Y-37768086D01*
X36078097Y-38243789D01*
X37138038Y-38517976D01*
X38231104Y-38580110D01*
X39315289Y-38427803D01*
X40348928Y-38066909D01*
X40907987Y-37768086D01*
X41519106Y-37155502D01*
X38000000Y-33636396D01*
X34480894Y-37155502D01*
X31125000Y-37155502D01*
X31125000Y-33231104D01*
X32419890Y-33231104D01*
X32572197Y-34315289D01*
X32933091Y-35348928D01*
X33231914Y-35907987D01*
X33844498Y-36519106D01*
X37363604Y-33000000D01*
X38636396Y-33000000D01*
X42155502Y-36519106D01*
X42620601Y-36055119D01*
X55364874Y-36055119D01*
X55450019Y-36242238D01*
X55700354Y-36303687D01*
X55957866Y-36315118D01*
X56212661Y-36276092D01*
X56324261Y-36242238D01*
X56409406Y-36055119D01*
X55887140Y-35532853D01*
X55364874Y-36055119D01*
X42620601Y-36055119D01*
X42768086Y-35907987D01*
X43170971Y-35072846D01*
X54574142Y-35072846D01*
X54613168Y-35327641D01*
X54647022Y-35439241D01*
X54834141Y-35524386D01*
X55356407Y-35002120D01*
X54834141Y-34479854D01*
X54647022Y-34564999D01*
X54585573Y-34815334D01*
X54574142Y-35072846D01*
X43170971Y-35072846D01*
X43243789Y-34921903D01*
X43517976Y-33861962D01*
X43580110Y-32768896D01*
X43549292Y-32549520D01*
X50285918Y-32549520D01*
X50376188Y-33041360D01*
X50560270Y-33506300D01*
X50831154Y-33926630D01*
X51178522Y-34286340D01*
X51589142Y-34571728D01*
X52047374Y-34771925D01*
X52535764Y-34879304D01*
X53035710Y-34889777D01*
X53528169Y-34802943D01*
X53994382Y-34622111D01*
X54416593Y-34354167D01*
X54778719Y-34009319D01*
X54821184Y-33949121D01*
X55364874Y-33949121D01*
X55887140Y-34471387D01*
X56409406Y-33949121D01*
X56324261Y-33762002D01*
X56073926Y-33700553D01*
X55816414Y-33689122D01*
X55561619Y-33728148D01*
X55450019Y-33762002D01*
X55364874Y-33949121D01*
X54821184Y-33949121D01*
X55066967Y-33600702D01*
X55270358Y-33143878D01*
X55381144Y-32656250D01*
X55389120Y-32085092D01*
X55291992Y-31594560D01*
X55101435Y-31132236D01*
X54824709Y-30715729D01*
X54472353Y-30360905D01*
X54057788Y-30081277D01*
X53596806Y-29887498D01*
X53106964Y-29786948D01*
X52606920Y-29783457D01*
X52115722Y-29877158D01*
X51652079Y-30064482D01*
X51233651Y-30338294D01*
X50876375Y-30688164D01*
X50593860Y-31100767D01*
X50396867Y-31560385D01*
X50292900Y-32049513D01*
X50285918Y-32549520D01*
X43549292Y-32549520D01*
X43427803Y-31684711D01*
X43066909Y-30651072D01*
X42768086Y-30092013D01*
X42155502Y-29480894D01*
X38636396Y-33000000D01*
X37363604Y-33000000D01*
X33844498Y-29480894D01*
X33231914Y-30092013D01*
X32756211Y-31078097D01*
X32482024Y-32138038D01*
X32419890Y-33231104D01*
X31125000Y-33231104D01*
X31125000Y-28844498D01*
X34480894Y-28844498D01*
X38000000Y-32363604D01*
X41519106Y-28844498D01*
X72480894Y-28844498D01*
X76000000Y-32363604D01*
X79519106Y-28844498D01*
X78907987Y-28231914D01*
X77921903Y-27756211D01*
X76861962Y-27482024D01*
X75768896Y-27419890D01*
X74684711Y-27572197D01*
X73651072Y-27933091D01*
X73092013Y-28231914D01*
X72480894Y-28844498D01*
X41519106Y-28844498D01*
X40907987Y-28231914D01*
X39921903Y-27756211D01*
X38861962Y-27482024D01*
X37768896Y-27419890D01*
X36684711Y-27572197D01*
X35651072Y-27933091D01*
X35092013Y-28231914D01*
X34480894Y-28844498D01*
X31125000Y-28844498D01*
X31125000Y-27125000D01*
X80599869Y-27125000D01*
X81281366Y-27882218D01*
G36*
X106485430Y-69820749D02*
X106485430Y-70179251D01*
X106014143Y-70650539D01*
X106000000Y-70636396D01*
X105985858Y-70650539D01*
X105504411Y-70169092D01*
X105509200Y-69826119D01*
X105985858Y-69349462D01*
X106000000Y-69363604D01*
X106014143Y-69349462D01*
X106485430Y-69820749D01*
X106485430Y-69820749D01*
G37*
X106485430Y-69820749D02*
X106485430Y-70179251D01*
X106014143Y-70650539D01*
X106000000Y-70636396D01*
X105985858Y-70650539D01*
X105504411Y-70169092D01*
X105509200Y-69826119D01*
X105985858Y-69349462D01*
X106000000Y-69363604D01*
X106014143Y-69349462D01*
X106485430Y-69820749D01*
D32*
G36*
X64207454Y-33541667D02*
X64486518Y-33974689D01*
X64844376Y-34345261D01*
X65267395Y-34639268D01*
X65739465Y-34845510D01*
X66242603Y-34956132D01*
X66757646Y-34966921D01*
X67083451Y-34909473D01*
X55079348Y-64319527D01*
X54955194Y-64500848D01*
X54902369Y-64448023D01*
X54785959Y-64564433D01*
X54718980Y-64324344D01*
X54469952Y-64207244D01*
X54202865Y-64140977D01*
X53927983Y-64128090D01*
X53655867Y-64169078D01*
X53396977Y-64262364D01*
X53281020Y-64324344D01*
X53214040Y-64564435D01*
X54000000Y-65350395D01*
X54014143Y-65336253D01*
X54193748Y-65515858D01*
X54179605Y-65530000D01*
X54193748Y-65544143D01*
X54014143Y-65723748D01*
X54000000Y-65709605D01*
X53214040Y-66495565D01*
X53281020Y-66735656D01*
X53530048Y-66852756D01*
X53797135Y-66919023D01*
X54014176Y-66929198D01*
X53019971Y-69365000D01*
X50285750Y-69365000D01*
X50127000Y-69523750D01*
X50127000Y-74873000D01*
X50147000Y-74873000D01*
X50147000Y-75127000D01*
X50127000Y-75127000D01*
X50127000Y-75147000D01*
X49873000Y-75147000D01*
X49873000Y-75127000D01*
X44523750Y-75127000D01*
X44365000Y-75285750D01*
X44365000Y-80062542D01*
X44389403Y-80185223D01*
X44437270Y-80300785D01*
X44506763Y-80404789D01*
X44595211Y-80493237D01*
X44699215Y-80562730D01*
X44814777Y-80610597D01*
X44937458Y-80635000D01*
X48419971Y-80635000D01*
X48353440Y-80798000D01*
X31202000Y-80798000D01*
X31202000Y-75980339D01*
X34199266Y-75980339D01*
X34775387Y-76654365D01*
X35745368Y-77194024D01*
X36801994Y-77534079D01*
X37904659Y-77661462D01*
X39010987Y-77571279D01*
X40078464Y-77266994D01*
X41066067Y-76760302D01*
X41224613Y-76654365D01*
X41800734Y-75980339D01*
X38000000Y-72179605D01*
X34199266Y-75980339D01*
X31202000Y-75980339D01*
X31202000Y-71904659D01*
X32338538Y-71904659D01*
X32428721Y-73010987D01*
X32733006Y-74078464D01*
X33239698Y-75066067D01*
X33345635Y-75224613D01*
X34019661Y-75800734D01*
X37820395Y-72000000D01*
X38179605Y-72000000D01*
X41980339Y-75800734D01*
X42654365Y-75224613D01*
X43194024Y-74254632D01*
X43534079Y-73198006D01*
X43661462Y-72095341D01*
X43571279Y-70989013D01*
X43271533Y-69937458D01*
X44365000Y-69937458D01*
X44365000Y-74714250D01*
X44523750Y-74873000D01*
X49873000Y-74873000D01*
X49873000Y-69523750D01*
X49714250Y-69365000D01*
X44937458Y-69365000D01*
X44814777Y-69389403D01*
X44699215Y-69437270D01*
X44595211Y-69506763D01*
X44506763Y-69595211D01*
X44437270Y-69699215D01*
X44389403Y-69814777D01*
X44365000Y-69937458D01*
X43271533Y-69937458D01*
X43266994Y-69921536D01*
X42760302Y-68933933D01*
X42654365Y-68775387D01*
X41980339Y-68199266D01*
X38179605Y-72000000D01*
X37820395Y-72000000D01*
X34019661Y-68199266D01*
X33345635Y-68775387D01*
X32805976Y-69745368D01*
X32465921Y-70801994D01*
X32338538Y-71904659D01*
X31202000Y-71904659D01*
X31202000Y-68019661D01*
X34199266Y-68019661D01*
X38000000Y-71820395D01*
X41800734Y-68019661D01*
X41224613Y-67345635D01*
X40254632Y-66805976D01*
X39198006Y-66465921D01*
X38095341Y-66338538D01*
X36989013Y-66428721D01*
X35921536Y-66733006D01*
X34933933Y-67239698D01*
X34775387Y-67345635D01*
X34199266Y-68019661D01*
X31202000Y-68019661D01*
X31202000Y-65602017D01*
X52598090Y-65602017D01*
X52639078Y-65874133D01*
X52732364Y-66133023D01*
X52794344Y-66248980D01*
X53034435Y-66315960D01*
X53820395Y-65530000D01*
X53034435Y-64744040D01*
X52794344Y-64811020D01*
X52677244Y-65060048D01*
X52610977Y-65327135D01*
X52598090Y-65602017D01*
X31202000Y-65602017D01*
X31202000Y-61285750D01*
X32865000Y-61285750D01*
X32865000Y-63562542D01*
X32889403Y-63685223D01*
X32937270Y-63800785D01*
X33006763Y-63904789D01*
X33095211Y-63993237D01*
X33199215Y-64062730D01*
X33314777Y-64110597D01*
X33437458Y-64135000D01*
X35714250Y-64135000D01*
X35873000Y-63976250D01*
X35873000Y-61127000D01*
X36127000Y-61127000D01*
X36127000Y-63976250D01*
X36285750Y-64135000D01*
X38562542Y-64135000D01*
X38685223Y-64110597D01*
X38800785Y-64062730D01*
X38904789Y-63993237D01*
X38993237Y-63904789D01*
X39062730Y-63800785D01*
X39110597Y-63685223D01*
X39135000Y-63562542D01*
X39135000Y-61285750D01*
X38976250Y-61127000D01*
X36127000Y-61127000D01*
X35873000Y-61127000D01*
X33023750Y-61127000D01*
X32865000Y-61285750D01*
X31202000Y-61285750D01*
X31202000Y-58437458D01*
X32865000Y-58437458D01*
X32865000Y-60714250D01*
X33023750Y-60873000D01*
X35873000Y-60873000D01*
X35873000Y-58023750D01*
X36127000Y-58023750D01*
X36127000Y-60873000D01*
X38976250Y-60873000D01*
X39135000Y-60714250D01*
X39135000Y-58437458D01*
X39110597Y-58314777D01*
X39062730Y-58199215D01*
X38993237Y-58095211D01*
X38904789Y-58006763D01*
X38800785Y-57937270D01*
X38685223Y-57889403D01*
X38562542Y-57865000D01*
X36285750Y-57865000D01*
X36127000Y-58023750D01*
X35873000Y-58023750D01*
X35714250Y-57865000D01*
X33437458Y-57865000D01*
X33314777Y-57889403D01*
X33199215Y-57937270D01*
X33095211Y-58006763D01*
X33006763Y-58095211D01*
X32937270Y-58199215D01*
X32889403Y-58314777D01*
X32865000Y-58437458D01*
X31202000Y-58437458D01*
X31202000Y-58325308D01*
X33123696Y-57000000D01*
X42867547Y-57000000D01*
X42867547Y-61000000D01*
X42881859Y-61179471D01*
X42976126Y-61483872D01*
X43151466Y-61749960D01*
X43393994Y-61956664D01*
X43684506Y-62087618D01*
X44000000Y-62132453D01*
X53000000Y-62132453D01*
X53179471Y-62118141D01*
X53483872Y-62023874D01*
X53749960Y-61848534D01*
X53956664Y-61606006D01*
X54087618Y-61315494D01*
X54132453Y-61000000D01*
X54132453Y-57000000D01*
X54118141Y-56820529D01*
X54023874Y-56516128D01*
X53848534Y-56250040D01*
X53606006Y-56043336D01*
X53315494Y-55912382D01*
X53000000Y-55867547D01*
X44000000Y-55867547D01*
X43820529Y-55881859D01*
X43516128Y-55976126D01*
X43250040Y-56151466D01*
X43043336Y-56393994D01*
X42912382Y-56684506D01*
X42867547Y-57000000D01*
X33123696Y-57000000D01*
X59072102Y-39104548D01*
X59098374Y-39080322D01*
X59120483Y-39040161D01*
X59869375Y-36793484D01*
X59876132Y-36796436D01*
X60235753Y-36875503D01*
X60603882Y-36883215D01*
X60966499Y-36819275D01*
X61309790Y-36686121D01*
X61620681Y-36488824D01*
X61887329Y-36234899D01*
X62043057Y-36014141D01*
X62104892Y-36075976D01*
X62221345Y-35959523D01*
X62286939Y-36198446D01*
X62534015Y-36314403D01*
X62798967Y-36379929D01*
X63071610Y-36392507D01*
X63341469Y-36351653D01*
X63598172Y-36258937D01*
X63711341Y-36198446D01*
X63776936Y-35959521D01*
X62999140Y-35181725D01*
X62984998Y-35195868D01*
X62805393Y-35016263D01*
X62819535Y-35002120D01*
X63178745Y-35002120D01*
X63956541Y-35779916D01*
X64195466Y-35714321D01*
X64311423Y-35467245D01*
X64376949Y-35202293D01*
X64389527Y-34929650D01*
X64348673Y-34659791D01*
X64255957Y-34403088D01*
X64195466Y-34289919D01*
X63956541Y-34224324D01*
X63178745Y-35002120D01*
X62819535Y-35002120D01*
X62805393Y-34987978D01*
X62984998Y-34808373D01*
X62999140Y-34822515D01*
X63776936Y-34044719D01*
X63711341Y-33805794D01*
X63464265Y-33689837D01*
X63199313Y-33624311D01*
X62926670Y-33611733D01*
X62656811Y-33652587D01*
X62400108Y-33745303D01*
X62286939Y-33805794D01*
X62221345Y-34044717D01*
X62104892Y-33928264D01*
X62041851Y-33991305D01*
X61921193Y-33809699D01*
X61661739Y-33548427D01*
X61356479Y-33342527D01*
X61061085Y-33218355D01*
X61091537Y-33127000D01*
X64043276Y-33127000D01*
X64207454Y-33541667D01*
X64207454Y-33541667D01*
G37*
X64207454Y-33541667D02*
X64486518Y-33974689D01*
X64844376Y-34345261D01*
X65267395Y-34639268D01*
X65739465Y-34845510D01*
X66242603Y-34956132D01*
X66757646Y-34966921D01*
X67083451Y-34909473D01*
X55079348Y-64319527D01*
X54955194Y-64500848D01*
X54902369Y-64448023D01*
X54785959Y-64564433D01*
X54718980Y-64324344D01*
X54469952Y-64207244D01*
X54202865Y-64140977D01*
X53927983Y-64128090D01*
X53655867Y-64169078D01*
X53396977Y-64262364D01*
X53281020Y-64324344D01*
X53214040Y-64564435D01*
X54000000Y-65350395D01*
X54014143Y-65336253D01*
X54193748Y-65515858D01*
X54179605Y-65530000D01*
X54193748Y-65544143D01*
X54014143Y-65723748D01*
X54000000Y-65709605D01*
X53214040Y-66495565D01*
X53281020Y-66735656D01*
X53530048Y-66852756D01*
X53797135Y-66919023D01*
X54014176Y-66929198D01*
X53019971Y-69365000D01*
X50285750Y-69365000D01*
X50127000Y-69523750D01*
X50127000Y-74873000D01*
X50147000Y-74873000D01*
X50147000Y-75127000D01*
X50127000Y-75127000D01*
X50127000Y-75147000D01*
X49873000Y-75147000D01*
X49873000Y-75127000D01*
X44523750Y-75127000D01*
X44365000Y-75285750D01*
X44365000Y-80062542D01*
X44389403Y-80185223D01*
X44437270Y-80300785D01*
X44506763Y-80404789D01*
X44595211Y-80493237D01*
X44699215Y-80562730D01*
X44814777Y-80610597D01*
X44937458Y-80635000D01*
X48419971Y-80635000D01*
X48353440Y-80798000D01*
X31202000Y-80798000D01*
X31202000Y-75980339D01*
X34199266Y-75980339D01*
X34775387Y-76654365D01*
X35745368Y-77194024D01*
X36801994Y-77534079D01*
X37904659Y-77661462D01*
X39010987Y-77571279D01*
X40078464Y-77266994D01*
X41066067Y-76760302D01*
X41224613Y-76654365D01*
X41800734Y-75980339D01*
X38000000Y-72179605D01*
X34199266Y-75980339D01*
X31202000Y-75980339D01*
X31202000Y-71904659D01*
X32338538Y-71904659D01*
X32428721Y-73010987D01*
X32733006Y-74078464D01*
X33239698Y-75066067D01*
X33345635Y-75224613D01*
X34019661Y-75800734D01*
X37820395Y-72000000D01*
X38179605Y-72000000D01*
X41980339Y-75800734D01*
X42654365Y-75224613D01*
X43194024Y-74254632D01*
X43534079Y-73198006D01*
X43661462Y-72095341D01*
X43571279Y-70989013D01*
X43271533Y-69937458D01*
X44365000Y-69937458D01*
X44365000Y-74714250D01*
X44523750Y-74873000D01*
X49873000Y-74873000D01*
X49873000Y-69523750D01*
X49714250Y-69365000D01*
X44937458Y-69365000D01*
X44814777Y-69389403D01*
X44699215Y-69437270D01*
X44595211Y-69506763D01*
X44506763Y-69595211D01*
X44437270Y-69699215D01*
X44389403Y-69814777D01*
X44365000Y-69937458D01*
X43271533Y-69937458D01*
X43266994Y-69921536D01*
X42760302Y-68933933D01*
X42654365Y-68775387D01*
X41980339Y-68199266D01*
X38179605Y-72000000D01*
X37820395Y-72000000D01*
X34019661Y-68199266D01*
X33345635Y-68775387D01*
X32805976Y-69745368D01*
X32465921Y-70801994D01*
X32338538Y-71904659D01*
X31202000Y-71904659D01*
X31202000Y-68019661D01*
X34199266Y-68019661D01*
X38000000Y-71820395D01*
X41800734Y-68019661D01*
X41224613Y-67345635D01*
X40254632Y-66805976D01*
X39198006Y-66465921D01*
X38095341Y-66338538D01*
X36989013Y-66428721D01*
X35921536Y-66733006D01*
X34933933Y-67239698D01*
X34775387Y-67345635D01*
X34199266Y-68019661D01*
X31202000Y-68019661D01*
X31202000Y-65602017D01*
X52598090Y-65602017D01*
X52639078Y-65874133D01*
X52732364Y-66133023D01*
X52794344Y-66248980D01*
X53034435Y-66315960D01*
X53820395Y-65530000D01*
X53034435Y-64744040D01*
X52794344Y-64811020D01*
X52677244Y-65060048D01*
X52610977Y-65327135D01*
X52598090Y-65602017D01*
X31202000Y-65602017D01*
X31202000Y-61285750D01*
X32865000Y-61285750D01*
X32865000Y-63562542D01*
X32889403Y-63685223D01*
X32937270Y-63800785D01*
X33006763Y-63904789D01*
X33095211Y-63993237D01*
X33199215Y-64062730D01*
X33314777Y-64110597D01*
X33437458Y-64135000D01*
X35714250Y-64135000D01*
X35873000Y-63976250D01*
X35873000Y-61127000D01*
X36127000Y-61127000D01*
X36127000Y-63976250D01*
X36285750Y-64135000D01*
X38562542Y-64135000D01*
X38685223Y-64110597D01*
X38800785Y-64062730D01*
X38904789Y-63993237D01*
X38993237Y-63904789D01*
X39062730Y-63800785D01*
X39110597Y-63685223D01*
X39135000Y-63562542D01*
X39135000Y-61285750D01*
X38976250Y-61127000D01*
X36127000Y-61127000D01*
X35873000Y-61127000D01*
X33023750Y-61127000D01*
X32865000Y-61285750D01*
X31202000Y-61285750D01*
X31202000Y-58437458D01*
X32865000Y-58437458D01*
X32865000Y-60714250D01*
X33023750Y-60873000D01*
X35873000Y-60873000D01*
X35873000Y-58023750D01*
X36127000Y-58023750D01*
X36127000Y-60873000D01*
X38976250Y-60873000D01*
X39135000Y-60714250D01*
X39135000Y-58437458D01*
X39110597Y-58314777D01*
X39062730Y-58199215D01*
X38993237Y-58095211D01*
X38904789Y-58006763D01*
X38800785Y-57937270D01*
X38685223Y-57889403D01*
X38562542Y-57865000D01*
X36285750Y-57865000D01*
X36127000Y-58023750D01*
X35873000Y-58023750D01*
X35714250Y-57865000D01*
X33437458Y-57865000D01*
X33314777Y-57889403D01*
X33199215Y-57937270D01*
X33095211Y-58006763D01*
X33006763Y-58095211D01*
X32937270Y-58199215D01*
X32889403Y-58314777D01*
X32865000Y-58437458D01*
X31202000Y-58437458D01*
X31202000Y-58325308D01*
X33123696Y-57000000D01*
X42867547Y-57000000D01*
X42867547Y-61000000D01*
X42881859Y-61179471D01*
X42976126Y-61483872D01*
X43151466Y-61749960D01*
X43393994Y-61956664D01*
X43684506Y-62087618D01*
X44000000Y-62132453D01*
X53000000Y-62132453D01*
X53179471Y-62118141D01*
X53483872Y-62023874D01*
X53749960Y-61848534D01*
X53956664Y-61606006D01*
X54087618Y-61315494D01*
X54132453Y-61000000D01*
X54132453Y-57000000D01*
X54118141Y-56820529D01*
X54023874Y-56516128D01*
X53848534Y-56250040D01*
X53606006Y-56043336D01*
X53315494Y-55912382D01*
X53000000Y-55867547D01*
X44000000Y-55867547D01*
X43820529Y-55881859D01*
X43516128Y-55976126D01*
X43250040Y-56151466D01*
X43043336Y-56393994D01*
X42912382Y-56684506D01*
X42867547Y-57000000D01*
X33123696Y-57000000D01*
X59072102Y-39104548D01*
X59098374Y-39080322D01*
X59120483Y-39040161D01*
X59869375Y-36793484D01*
X59876132Y-36796436D01*
X60235753Y-36875503D01*
X60603882Y-36883215D01*
X60966499Y-36819275D01*
X61309790Y-36686121D01*
X61620681Y-36488824D01*
X61887329Y-36234899D01*
X62043057Y-36014141D01*
X62104892Y-36075976D01*
X62221345Y-35959523D01*
X62286939Y-36198446D01*
X62534015Y-36314403D01*
X62798967Y-36379929D01*
X63071610Y-36392507D01*
X63341469Y-36351653D01*
X63598172Y-36258937D01*
X63711341Y-36198446D01*
X63776936Y-35959521D01*
X62999140Y-35181725D01*
X62984998Y-35195868D01*
X62805393Y-35016263D01*
X62819535Y-35002120D01*
X63178745Y-35002120D01*
X63956541Y-35779916D01*
X64195466Y-35714321D01*
X64311423Y-35467245D01*
X64376949Y-35202293D01*
X64389527Y-34929650D01*
X64348673Y-34659791D01*
X64255957Y-34403088D01*
X64195466Y-34289919D01*
X63956541Y-34224324D01*
X63178745Y-35002120D01*
X62819535Y-35002120D01*
X62805393Y-34987978D01*
X62984998Y-34808373D01*
X62999140Y-34822515D01*
X63776936Y-34044719D01*
X63711341Y-33805794D01*
X63464265Y-33689837D01*
X63199313Y-33624311D01*
X62926670Y-33611733D01*
X62656811Y-33652587D01*
X62400108Y-33745303D01*
X62286939Y-33805794D01*
X62221345Y-34044717D01*
X62104892Y-33928264D01*
X62041851Y-33991305D01*
X61921193Y-33809699D01*
X61661739Y-33548427D01*
X61356479Y-33342527D01*
X61061085Y-33218355D01*
X61091537Y-33127000D01*
X64043276Y-33127000D01*
X64207454Y-33541667D01*
G36*
X96661086Y-27334727D02*
X96363132Y-27626505D01*
X96127526Y-27970599D01*
X95963242Y-28353902D01*
X95876538Y-28761816D01*
X95870715Y-29178801D01*
X95945996Y-29588976D01*
X96099514Y-29976717D01*
X96325420Y-30327256D01*
X96615111Y-30627239D01*
X96957552Y-30865242D01*
X97339699Y-31032198D01*
X97746997Y-31121748D01*
X98163932Y-31130481D01*
X98574622Y-31058066D01*
X98963426Y-30907259D01*
X99315533Y-30683805D01*
X99375184Y-30627000D01*
X102929843Y-30627000D01*
X103022419Y-30722865D01*
X103326615Y-30934287D01*
X103666083Y-31082597D01*
X104027894Y-31162147D01*
X104398264Y-31169905D01*
X104763088Y-31105576D01*
X105108470Y-30971612D01*
X105214444Y-30904359D01*
X109373000Y-30904359D01*
X109373000Y-31839760D01*
X109056576Y-31706748D01*
X108693691Y-31632258D01*
X108323248Y-31629672D01*
X107959357Y-31699088D01*
X107615880Y-31837862D01*
X107305899Y-32040707D01*
X107041221Y-32299899D01*
X106831928Y-32605564D01*
X106685992Y-32946060D01*
X106608970Y-33308416D01*
X106603798Y-33678832D01*
X106670672Y-34043198D01*
X106807044Y-34387636D01*
X107007721Y-34699025D01*
X107265059Y-34965506D01*
X107569255Y-35176928D01*
X107908723Y-35325238D01*
X108270534Y-35404788D01*
X108640904Y-35412546D01*
X109005728Y-35348217D01*
X109351110Y-35214253D01*
X109373000Y-35200361D01*
X109373000Y-36985000D01*
X109387664Y-37134551D01*
X109400764Y-37284289D01*
X109403151Y-37292506D01*
X109403986Y-37301019D01*
X109447421Y-37444881D01*
X109489354Y-37589216D01*
X109493291Y-37596812D01*
X109495764Y-37605002D01*
X109566320Y-37737698D01*
X109635483Y-37871128D01*
X109640821Y-37877814D01*
X109644837Y-37885368D01*
X109739840Y-38001853D01*
X109833587Y-38119288D01*
X109845327Y-38131194D01*
X109845528Y-38131440D01*
X109845756Y-38131628D01*
X109849537Y-38135463D01*
X112289086Y-40575012D01*
X112296431Y-40615033D01*
X112431978Y-40957386D01*
X112631441Y-41266892D01*
X112724749Y-41363515D01*
X112664738Y-41422282D01*
X112456712Y-41726097D01*
X112311658Y-42064532D01*
X112235103Y-42424697D01*
X112229962Y-42792871D01*
X112296431Y-43155033D01*
X112431978Y-43497386D01*
X112631441Y-43806892D01*
X112887221Y-44071760D01*
X113098378Y-44218518D01*
X113036144Y-44280752D01*
X113152597Y-44397205D01*
X112913674Y-44462799D01*
X112797717Y-44709875D01*
X112732191Y-44974827D01*
X112719613Y-45247470D01*
X112760467Y-45517329D01*
X112853183Y-45774032D01*
X112913674Y-45887201D01*
X113152599Y-45952796D01*
X113930395Y-45175000D01*
X113916253Y-45160858D01*
X114095858Y-44981253D01*
X114110000Y-44995395D01*
X114124143Y-44981253D01*
X114303748Y-45160858D01*
X114289605Y-45175000D01*
X115067401Y-45952796D01*
X115264430Y-45898703D01*
X115264430Y-46159250D01*
X115423180Y-46318000D01*
X116523000Y-46318000D01*
X116523000Y-46298000D01*
X116777000Y-46298000D01*
X116777000Y-46318000D01*
X117876820Y-46318000D01*
X118035570Y-46159250D01*
X118035570Y-45631888D01*
X118011167Y-45509207D01*
X117963300Y-45393645D01*
X117906283Y-45308313D01*
X117981128Y-45269517D01*
X117987814Y-45264179D01*
X117995368Y-45260163D01*
X118111853Y-45165160D01*
X118229288Y-45071413D01*
X118241194Y-45059673D01*
X118241440Y-45059472D01*
X118241628Y-45059244D01*
X118245463Y-45055463D01*
X119650463Y-43650463D01*
X119657553Y-43641831D01*
X119666082Y-43634628D01*
X119758271Y-43519214D01*
X119852011Y-43405093D01*
X119857285Y-43395257D01*
X119864259Y-43386526D01*
X119932291Y-43255372D01*
X120002063Y-43125248D01*
X120005328Y-43114569D01*
X120010470Y-43104656D01*
X120051716Y-42962840D01*
X120094901Y-42821589D01*
X120096030Y-42810478D01*
X120099148Y-42799756D01*
X120112061Y-42652655D01*
X120126990Y-42505680D01*
X120125939Y-42494559D01*
X120126915Y-42483437D01*
X120126526Y-42460724D01*
X120018610Y-37991661D01*
X120000254Y-37841800D01*
X119983327Y-37691710D01*
X119980955Y-37684249D01*
X119980004Y-37676482D01*
X119932874Y-37532994D01*
X119887132Y-37389097D01*
X119883359Y-37382243D01*
X119880915Y-37374803D01*
X119806787Y-37243157D01*
X119733992Y-37110931D01*
X119728959Y-37104940D01*
X119725117Y-37098117D01*
X119626813Y-36983356D01*
X119529738Y-36867808D01*
X119518783Y-36857241D01*
X119518544Y-36856962D01*
X119518271Y-36856747D01*
X119513388Y-36852037D01*
X112661070Y-30334495D01*
X112801763Y-30135050D01*
X125044555Y-30135050D01*
X125140258Y-30399399D01*
X125429787Y-30540238D01*
X125741229Y-30621885D01*
X126062615Y-30641205D01*
X126381595Y-30597454D01*
X126685911Y-30492314D01*
X126859742Y-30399399D01*
X126955445Y-30135050D01*
X126000000Y-29179605D01*
X125044555Y-30135050D01*
X112801763Y-30135050D01*
X112857919Y-30055445D01*
X113027538Y-29674472D01*
X113119930Y-29267809D01*
X113122795Y-29062615D01*
X124358795Y-29062615D01*
X124402546Y-29381595D01*
X124507686Y-29685911D01*
X124600601Y-29859742D01*
X124864950Y-29955445D01*
X125820395Y-29000000D01*
X126179605Y-29000000D01*
X127135050Y-29955445D01*
X127399399Y-29859742D01*
X127540238Y-29570213D01*
X127621885Y-29258771D01*
X127641205Y-28937385D01*
X127597454Y-28618405D01*
X127492314Y-28314089D01*
X127399399Y-28140258D01*
X127135050Y-28044555D01*
X126179605Y-29000000D01*
X125820395Y-29000000D01*
X124864950Y-28044555D01*
X124600601Y-28140258D01*
X124459762Y-28429787D01*
X124378115Y-28741229D01*
X124358795Y-29062615D01*
X113122795Y-29062615D01*
X113126581Y-28791487D01*
X113045580Y-28382403D01*
X112886664Y-27996843D01*
X112799035Y-27864950D01*
X125044555Y-27864950D01*
X126000000Y-28820395D01*
X126955445Y-27864950D01*
X126859742Y-27600601D01*
X126570213Y-27459762D01*
X126258771Y-27378115D01*
X125937385Y-27358795D01*
X125618405Y-27402546D01*
X125314089Y-27507686D01*
X125140258Y-27600601D01*
X125044555Y-27864950D01*
X112799035Y-27864950D01*
X112655885Y-27649493D01*
X112362034Y-27353583D01*
X112137303Y-27202000D01*
X128798000Y-27202000D01*
X128798000Y-32117547D01*
X125000000Y-32117547D01*
X124820529Y-32131859D01*
X124516128Y-32226126D01*
X124250040Y-32401466D01*
X124043336Y-32643994D01*
X123912382Y-32934506D01*
X123870876Y-33226576D01*
X123310060Y-33111457D01*
X122731159Y-33107415D01*
X122162498Y-33215893D01*
X121625737Y-33432758D01*
X121141322Y-33749751D01*
X120727703Y-34154796D01*
X120400635Y-34632467D01*
X120172576Y-35164568D01*
X120052213Y-35730833D01*
X120044130Y-36309691D01*
X120148635Y-36879096D01*
X120361748Y-37417357D01*
X120675351Y-37903974D01*
X121077499Y-38320411D01*
X121552875Y-38650805D01*
X122083371Y-38882573D01*
X122648782Y-39006887D01*
X123227570Y-39019011D01*
X123797690Y-38918483D01*
X124337426Y-38709133D01*
X124826220Y-38398935D01*
X125245454Y-37999704D01*
X125579159Y-37526646D01*
X125814625Y-36997781D01*
X125942883Y-36433253D01*
X125943592Y-36382453D01*
X128798000Y-36382453D01*
X128798000Y-47617547D01*
X125947385Y-47617547D01*
X125839671Y-47073553D01*
X125619064Y-46538319D01*
X125298697Y-46056129D01*
X124890774Y-45645347D01*
X124410831Y-45321622D01*
X123877151Y-45097284D01*
X123310060Y-44980877D01*
X122731159Y-44976835D01*
X122162498Y-45085313D01*
X121625737Y-45302178D01*
X121141322Y-45619171D01*
X120727703Y-46024216D01*
X120400635Y-46501887D01*
X120172576Y-47033988D01*
X120052213Y-47600253D01*
X120044130Y-48179111D01*
X120148635Y-48748516D01*
X120361748Y-49286777D01*
X120675351Y-49773394D01*
X121077499Y-50189831D01*
X121552875Y-50520225D01*
X122083371Y-50751993D01*
X122648782Y-50876307D01*
X123227570Y-50888431D01*
X123797690Y-50787903D01*
X123868383Y-50760483D01*
X123881859Y-50929471D01*
X123976126Y-51233872D01*
X124151466Y-51499960D01*
X124393994Y-51706664D01*
X124684506Y-51837618D01*
X125000000Y-51882453D01*
X128798000Y-51882453D01*
X128798000Y-53863393D01*
X128655885Y-53649493D01*
X128362034Y-53353583D01*
X128016304Y-53120385D01*
X127631863Y-52958781D01*
X127223354Y-52874926D01*
X126806338Y-52872015D01*
X126396699Y-52950158D01*
X126010039Y-53106379D01*
X125661086Y-53334727D01*
X125363132Y-53626505D01*
X125127526Y-53970599D01*
X124963242Y-54353902D01*
X124876538Y-54761816D01*
X124875678Y-54823396D01*
X123326074Y-56373000D01*
X113633907Y-56373000D01*
X113857919Y-56055445D01*
X114027538Y-55674472D01*
X114119930Y-55267809D01*
X114126581Y-54791487D01*
X114045580Y-54382403D01*
X113886664Y-53996843D01*
X113655885Y-53649493D01*
X113362034Y-53353583D01*
X113016304Y-53120385D01*
X112631863Y-52958781D01*
X112223354Y-52874926D01*
X111806338Y-52872015D01*
X111396699Y-52950158D01*
X111010039Y-53106379D01*
X110661086Y-53334727D01*
X110648236Y-53347310D01*
X109116268Y-51815342D01*
X109351110Y-51724253D01*
X109663893Y-51525755D01*
X109932164Y-51270284D01*
X110145704Y-50967571D01*
X110296381Y-50629146D01*
X110378454Y-50267900D01*
X110384362Y-49844774D01*
X110312407Y-49481377D01*
X110171239Y-49138877D01*
X109966234Y-48830320D01*
X109705201Y-48567458D01*
X109398082Y-48360304D01*
X109056576Y-48216748D01*
X108693691Y-48142258D01*
X108323248Y-48139672D01*
X107959357Y-48209088D01*
X107615880Y-48347862D01*
X107305899Y-48550707D01*
X107041221Y-48809899D01*
X106831928Y-49115564D01*
X106707291Y-49406365D01*
X105879641Y-48578715D01*
X105879641Y-46788508D01*
X105911131Y-46730750D01*
X115264430Y-46730750D01*
X115264430Y-47258112D01*
X115288833Y-47380793D01*
X115336700Y-47496355D01*
X115406193Y-47600359D01*
X115494641Y-47688807D01*
X115598645Y-47758300D01*
X115714207Y-47806167D01*
X115836888Y-47830570D01*
X116364250Y-47830570D01*
X116523000Y-47671820D01*
X116523000Y-46572000D01*
X116777000Y-46572000D01*
X116777000Y-47671820D01*
X116935750Y-47830570D01*
X117463112Y-47830570D01*
X117585793Y-47806167D01*
X117701355Y-47758300D01*
X117805359Y-47688807D01*
X117893807Y-47600359D01*
X117963300Y-47496355D01*
X118011167Y-47380793D01*
X118035570Y-47258112D01*
X118035570Y-46730750D01*
X117876820Y-46572000D01*
X116777000Y-46572000D01*
X116523000Y-46572000D01*
X115423180Y-46572000D01*
X115264430Y-46730750D01*
X105911131Y-46730750D01*
X105962944Y-46635720D01*
X106010862Y-46482813D01*
X106053741Y-46386505D01*
X106111471Y-46132401D01*
X113332204Y-46132401D01*
X113397799Y-46371326D01*
X113644875Y-46487283D01*
X113909827Y-46552809D01*
X114182470Y-46565387D01*
X114452329Y-46524533D01*
X114709032Y-46431817D01*
X114822201Y-46371326D01*
X114887796Y-46132401D01*
X114110000Y-45354605D01*
X113332204Y-46132401D01*
X106111471Y-46132401D01*
X106135814Y-46025259D01*
X106141722Y-45602133D01*
X106069767Y-45238736D01*
X105928599Y-44896236D01*
X105723594Y-44587679D01*
X105462561Y-44324817D01*
X105155442Y-44117663D01*
X104813936Y-43974107D01*
X104451051Y-43899617D01*
X104080608Y-43897031D01*
X103716717Y-43966447D01*
X103373240Y-44105221D01*
X103288980Y-44160359D01*
X99271285Y-44160359D01*
X98830953Y-43720027D01*
X98830953Y-43491500D01*
X98816641Y-43312029D01*
X98722374Y-43007628D01*
X98547034Y-42741540D01*
X98304506Y-42534836D01*
X98013994Y-42403882D01*
X97698500Y-42359047D01*
X96301500Y-42359047D01*
X96122029Y-42373359D01*
X95953778Y-42425463D01*
X95661422Y-42100623D01*
X95771003Y-41857525D01*
X95808263Y-41913289D01*
X95896711Y-42001737D01*
X96000715Y-42071230D01*
X96116277Y-42119097D01*
X96238958Y-42143500D01*
X96714250Y-42143500D01*
X96873000Y-41984750D01*
X96873000Y-40937000D01*
X97127000Y-40937000D01*
X97127000Y-41984750D01*
X97285750Y-42143500D01*
X97761042Y-42143500D01*
X97883723Y-42119097D01*
X97999285Y-42071230D01*
X98103289Y-42001737D01*
X98191737Y-41913289D01*
X98261230Y-41809285D01*
X98309097Y-41693723D01*
X98333500Y-41571042D01*
X98333500Y-41095750D01*
X98174750Y-40937000D01*
X97127000Y-40937000D01*
X96873000Y-40937000D01*
X96853000Y-40937000D01*
X96853000Y-40683000D01*
X96873000Y-40683000D01*
X96873000Y-39635250D01*
X97127000Y-39635250D01*
X97127000Y-40683000D01*
X98174750Y-40683000D01*
X98333500Y-40524250D01*
X98333500Y-40048958D01*
X98309097Y-39926277D01*
X98261230Y-39810715D01*
X98191737Y-39706711D01*
X98103289Y-39618263D01*
X97999285Y-39548770D01*
X97883723Y-39500903D01*
X97761042Y-39476500D01*
X97285750Y-39476500D01*
X97127000Y-39635250D01*
X96873000Y-39635250D01*
X96714250Y-39476500D01*
X96238958Y-39476500D01*
X96116277Y-39500903D01*
X96000715Y-39548770D01*
X95896711Y-39618263D01*
X95808263Y-39706711D01*
X95766309Y-39769500D01*
X95722374Y-39627628D01*
X95547034Y-39361540D01*
X95304506Y-39154836D01*
X95013994Y-39023882D01*
X94698500Y-38979047D01*
X94469972Y-38979047D01*
X93597699Y-38106773D01*
X102891718Y-38106773D01*
X102985005Y-38365664D01*
X103127006Y-38601381D01*
X103312265Y-38804865D01*
X103533662Y-38968297D01*
X103782689Y-39085397D01*
X103908509Y-39123564D01*
X104125641Y-39001156D01*
X104125641Y-37889641D01*
X104379641Y-37889641D01*
X104379641Y-39001156D01*
X104596773Y-39123564D01*
X104855664Y-39030277D01*
X105091381Y-38888276D01*
X105294865Y-38703017D01*
X105458297Y-38481620D01*
X105575397Y-38232593D01*
X105613564Y-38106773D01*
X105491156Y-37889641D01*
X104379641Y-37889641D01*
X104125641Y-37889641D01*
X103014126Y-37889641D01*
X102891718Y-38106773D01*
X93597699Y-38106773D01*
X92909435Y-37418509D01*
X102891718Y-37418509D01*
X103014126Y-37635641D01*
X104125641Y-37635641D01*
X104125641Y-36524126D01*
X104379641Y-36524126D01*
X104379641Y-37635641D01*
X105491156Y-37635641D01*
X105613564Y-37418509D01*
X105520277Y-37159618D01*
X105378276Y-36923901D01*
X105193017Y-36720417D01*
X104971620Y-36556985D01*
X104722593Y-36439885D01*
X104596773Y-36401718D01*
X104379641Y-36524126D01*
X104125641Y-36524126D01*
X103908509Y-36401718D01*
X103649618Y-36495005D01*
X103413901Y-36637006D01*
X103210417Y-36822265D01*
X103046985Y-37043662D01*
X102929885Y-37292689D01*
X102891718Y-37418509D01*
X92909435Y-37418509D01*
X92000247Y-36509321D01*
X92087618Y-36315494D01*
X92132453Y-36000000D01*
X92132453Y-34000000D01*
X92118141Y-33820529D01*
X92023874Y-33516128D01*
X91910116Y-33343493D01*
X92172100Y-33343493D01*
X92236726Y-33695611D01*
X92368514Y-34028470D01*
X92562445Y-34329392D01*
X92811132Y-34586915D01*
X93105103Y-34791230D01*
X93433160Y-34934554D01*
X93782808Y-35011429D01*
X94140728Y-35018927D01*
X94493289Y-34956761D01*
X94827060Y-34827300D01*
X94843290Y-34817000D01*
X96164088Y-34817000D01*
X96433160Y-34934554D01*
X96782808Y-35011429D01*
X97140728Y-35018927D01*
X97493289Y-34956761D01*
X97827060Y-34827300D01*
X98129328Y-34635474D01*
X98347556Y-34427659D01*
X98522440Y-34699025D01*
X98779778Y-34965506D01*
X99083974Y-35176928D01*
X99423442Y-35325238D01*
X99785253Y-35404788D01*
X100155623Y-35412546D01*
X100520447Y-35348217D01*
X100865829Y-35214253D01*
X101178612Y-35015755D01*
X101446883Y-34760284D01*
X101660423Y-34457571D01*
X101811100Y-34119146D01*
X101893173Y-33757900D01*
X101899081Y-33334774D01*
X101827126Y-32971377D01*
X101685958Y-32628877D01*
X101480953Y-32320320D01*
X101219920Y-32057458D01*
X100912801Y-31850304D01*
X100571295Y-31706748D01*
X100208410Y-31632258D01*
X99837967Y-31629672D01*
X99474076Y-31699088D01*
X99130599Y-31837862D01*
X98820618Y-32040707D01*
X98582873Y-32273524D01*
X98421506Y-32030648D01*
X98169248Y-31776622D01*
X97872453Y-31576432D01*
X97542427Y-31437701D01*
X97191740Y-31365716D01*
X96833750Y-31363216D01*
X96482092Y-31430299D01*
X96153646Y-31563000D01*
X94840500Y-31563000D01*
X94542427Y-31437701D01*
X94191740Y-31365716D01*
X93833750Y-31363216D01*
X93482092Y-31430299D01*
X93150161Y-31564408D01*
X92850600Y-31760435D01*
X92594819Y-32010913D01*
X92392562Y-32306303D01*
X92251531Y-32635353D01*
X92177099Y-32985529D01*
X92172100Y-33343493D01*
X91910116Y-33343493D01*
X91848534Y-33250040D01*
X91606006Y-33043336D01*
X91315494Y-32912382D01*
X91000000Y-32867547D01*
X90168472Y-32867547D01*
X85150463Y-27849537D01*
X85034301Y-27754121D01*
X84919201Y-27657540D01*
X84911705Y-27653419D01*
X84905093Y-27647988D01*
X84772629Y-27576962D01*
X84640943Y-27504567D01*
X84632789Y-27501980D01*
X84625248Y-27497937D01*
X84481510Y-27453992D01*
X84452654Y-27444838D01*
X84362034Y-27353583D01*
X84137303Y-27202000D01*
X96863915Y-27202000D01*
X96661086Y-27334727D01*
X96661086Y-27334727D01*
G37*
X96661086Y-27334727D02*
X96363132Y-27626505D01*
X96127526Y-27970599D01*
X95963242Y-28353902D01*
X95876538Y-28761816D01*
X95870715Y-29178801D01*
X95945996Y-29588976D01*
X96099514Y-29976717D01*
X96325420Y-30327256D01*
X96615111Y-30627239D01*
X96957552Y-30865242D01*
X97339699Y-31032198D01*
X97746997Y-31121748D01*
X98163932Y-31130481D01*
X98574622Y-31058066D01*
X98963426Y-30907259D01*
X99315533Y-30683805D01*
X99375184Y-30627000D01*
X102929843Y-30627000D01*
X103022419Y-30722865D01*
X103326615Y-30934287D01*
X103666083Y-31082597D01*
X104027894Y-31162147D01*
X104398264Y-31169905D01*
X104763088Y-31105576D01*
X105108470Y-30971612D01*
X105214444Y-30904359D01*
X109373000Y-30904359D01*
X109373000Y-31839760D01*
X109056576Y-31706748D01*
X108693691Y-31632258D01*
X108323248Y-31629672D01*
X107959357Y-31699088D01*
X107615880Y-31837862D01*
X107305899Y-32040707D01*
X107041221Y-32299899D01*
X106831928Y-32605564D01*
X106685992Y-32946060D01*
X106608970Y-33308416D01*
X106603798Y-33678832D01*
X106670672Y-34043198D01*
X106807044Y-34387636D01*
X107007721Y-34699025D01*
X107265059Y-34965506D01*
X107569255Y-35176928D01*
X107908723Y-35325238D01*
X108270534Y-35404788D01*
X108640904Y-35412546D01*
X109005728Y-35348217D01*
X109351110Y-35214253D01*
X109373000Y-35200361D01*
X109373000Y-36985000D01*
X109387664Y-37134551D01*
X109400764Y-37284289D01*
X109403151Y-37292506D01*
X109403986Y-37301019D01*
X109447421Y-37444881D01*
X109489354Y-37589216D01*
X109493291Y-37596812D01*
X109495764Y-37605002D01*
X109566320Y-37737698D01*
X109635483Y-37871128D01*
X109640821Y-37877814D01*
X109644837Y-37885368D01*
X109739840Y-38001853D01*
X109833587Y-38119288D01*
X109845327Y-38131194D01*
X109845528Y-38131440D01*
X109845756Y-38131628D01*
X109849537Y-38135463D01*
X112289086Y-40575012D01*
X112296431Y-40615033D01*
X112431978Y-40957386D01*
X112631441Y-41266892D01*
X112724749Y-41363515D01*
X112664738Y-41422282D01*
X112456712Y-41726097D01*
X112311658Y-42064532D01*
X112235103Y-42424697D01*
X112229962Y-42792871D01*
X112296431Y-43155033D01*
X112431978Y-43497386D01*
X112631441Y-43806892D01*
X112887221Y-44071760D01*
X113098378Y-44218518D01*
X113036144Y-44280752D01*
X113152597Y-44397205D01*
X112913674Y-44462799D01*
X112797717Y-44709875D01*
X112732191Y-44974827D01*
X112719613Y-45247470D01*
X112760467Y-45517329D01*
X112853183Y-45774032D01*
X112913674Y-45887201D01*
X113152599Y-45952796D01*
X113930395Y-45175000D01*
X113916253Y-45160858D01*
X114095858Y-44981253D01*
X114110000Y-44995395D01*
X114124143Y-44981253D01*
X114303748Y-45160858D01*
X114289605Y-45175000D01*
X115067401Y-45952796D01*
X115264430Y-45898703D01*
X115264430Y-46159250D01*
X115423180Y-46318000D01*
X116523000Y-46318000D01*
X116523000Y-46298000D01*
X116777000Y-46298000D01*
X116777000Y-46318000D01*
X117876820Y-46318000D01*
X118035570Y-46159250D01*
X118035570Y-45631888D01*
X118011167Y-45509207D01*
X117963300Y-45393645D01*
X117906283Y-45308313D01*
X117981128Y-45269517D01*
X117987814Y-45264179D01*
X117995368Y-45260163D01*
X118111853Y-45165160D01*
X118229288Y-45071413D01*
X118241194Y-45059673D01*
X118241440Y-45059472D01*
X118241628Y-45059244D01*
X118245463Y-45055463D01*
X119650463Y-43650463D01*
X119657553Y-43641831D01*
X119666082Y-43634628D01*
X119758271Y-43519214D01*
X119852011Y-43405093D01*
X119857285Y-43395257D01*
X119864259Y-43386526D01*
X119932291Y-43255372D01*
X120002063Y-43125248D01*
X120005328Y-43114569D01*
X120010470Y-43104656D01*
X120051716Y-42962840D01*
X120094901Y-42821589D01*
X120096030Y-42810478D01*
X120099148Y-42799756D01*
X120112061Y-42652655D01*
X120126990Y-42505680D01*
X120125939Y-42494559D01*
X120126915Y-42483437D01*
X120126526Y-42460724D01*
X120018610Y-37991661D01*
X120000254Y-37841800D01*
X119983327Y-37691710D01*
X119980955Y-37684249D01*
X119980004Y-37676482D01*
X119932874Y-37532994D01*
X119887132Y-37389097D01*
X119883359Y-37382243D01*
X119880915Y-37374803D01*
X119806787Y-37243157D01*
X119733992Y-37110931D01*
X119728959Y-37104940D01*
X119725117Y-37098117D01*
X119626813Y-36983356D01*
X119529738Y-36867808D01*
X119518783Y-36857241D01*
X119518544Y-36856962D01*
X119518271Y-36856747D01*
X119513388Y-36852037D01*
X112661070Y-30334495D01*
X112801763Y-30135050D01*
X125044555Y-30135050D01*
X125140258Y-30399399D01*
X125429787Y-30540238D01*
X125741229Y-30621885D01*
X126062615Y-30641205D01*
X126381595Y-30597454D01*
X126685911Y-30492314D01*
X126859742Y-30399399D01*
X126955445Y-30135050D01*
X126000000Y-29179605D01*
X125044555Y-30135050D01*
X112801763Y-30135050D01*
X112857919Y-30055445D01*
X113027538Y-29674472D01*
X113119930Y-29267809D01*
X113122795Y-29062615D01*
X124358795Y-29062615D01*
X124402546Y-29381595D01*
X124507686Y-29685911D01*
X124600601Y-29859742D01*
X124864950Y-29955445D01*
X125820395Y-29000000D01*
X126179605Y-29000000D01*
X127135050Y-29955445D01*
X127399399Y-29859742D01*
X127540238Y-29570213D01*
X127621885Y-29258771D01*
X127641205Y-28937385D01*
X127597454Y-28618405D01*
X127492314Y-28314089D01*
X127399399Y-28140258D01*
X127135050Y-28044555D01*
X126179605Y-29000000D01*
X125820395Y-29000000D01*
X124864950Y-28044555D01*
X124600601Y-28140258D01*
X124459762Y-28429787D01*
X124378115Y-28741229D01*
X124358795Y-29062615D01*
X113122795Y-29062615D01*
X113126581Y-28791487D01*
X113045580Y-28382403D01*
X112886664Y-27996843D01*
X112799035Y-27864950D01*
X125044555Y-27864950D01*
X126000000Y-28820395D01*
X126955445Y-27864950D01*
X126859742Y-27600601D01*
X126570213Y-27459762D01*
X126258771Y-27378115D01*
X125937385Y-27358795D01*
X125618405Y-27402546D01*
X125314089Y-27507686D01*
X125140258Y-27600601D01*
X125044555Y-27864950D01*
X112799035Y-27864950D01*
X112655885Y-27649493D01*
X112362034Y-27353583D01*
X112137303Y-27202000D01*
X128798000Y-27202000D01*
X128798000Y-32117547D01*
X125000000Y-32117547D01*
X124820529Y-32131859D01*
X124516128Y-32226126D01*
X124250040Y-32401466D01*
X124043336Y-32643994D01*
X123912382Y-32934506D01*
X123870876Y-33226576D01*
X123310060Y-33111457D01*
X122731159Y-33107415D01*
X122162498Y-33215893D01*
X121625737Y-33432758D01*
X121141322Y-33749751D01*
X120727703Y-34154796D01*
X120400635Y-34632467D01*
X120172576Y-35164568D01*
X120052213Y-35730833D01*
X120044130Y-36309691D01*
X120148635Y-36879096D01*
X120361748Y-37417357D01*
X120675351Y-37903974D01*
X121077499Y-38320411D01*
X121552875Y-38650805D01*
X122083371Y-38882573D01*
X122648782Y-39006887D01*
X123227570Y-39019011D01*
X123797690Y-38918483D01*
X124337426Y-38709133D01*
X124826220Y-38398935D01*
X125245454Y-37999704D01*
X125579159Y-37526646D01*
X125814625Y-36997781D01*
X125942883Y-36433253D01*
X125943592Y-36382453D01*
X128798000Y-36382453D01*
X128798000Y-47617547D01*
X125947385Y-47617547D01*
X125839671Y-47073553D01*
X125619064Y-46538319D01*
X125298697Y-46056129D01*
X124890774Y-45645347D01*
X124410831Y-45321622D01*
X123877151Y-45097284D01*
X123310060Y-44980877D01*
X122731159Y-44976835D01*
X122162498Y-45085313D01*
X121625737Y-45302178D01*
X121141322Y-45619171D01*
X120727703Y-46024216D01*
X120400635Y-46501887D01*
X120172576Y-47033988D01*
X120052213Y-47600253D01*
X120044130Y-48179111D01*
X120148635Y-48748516D01*
X120361748Y-49286777D01*
X120675351Y-49773394D01*
X121077499Y-50189831D01*
X121552875Y-50520225D01*
X122083371Y-50751993D01*
X122648782Y-50876307D01*
X123227570Y-50888431D01*
X123797690Y-50787903D01*
X123868383Y-50760483D01*
X123881859Y-50929471D01*
X123976126Y-51233872D01*
X124151466Y-51499960D01*
X124393994Y-51706664D01*
X124684506Y-51837618D01*
X125000000Y-51882453D01*
X128798000Y-51882453D01*
X128798000Y-53863393D01*
X128655885Y-53649493D01*
X128362034Y-53353583D01*
X128016304Y-53120385D01*
X127631863Y-52958781D01*
X127223354Y-52874926D01*
X126806338Y-52872015D01*
X126396699Y-52950158D01*
X126010039Y-53106379D01*
X125661086Y-53334727D01*
X125363132Y-53626505D01*
X125127526Y-53970599D01*
X124963242Y-54353902D01*
X124876538Y-54761816D01*
X124875678Y-54823396D01*
X123326074Y-56373000D01*
X113633907Y-56373000D01*
X113857919Y-56055445D01*
X114027538Y-55674472D01*
X114119930Y-55267809D01*
X114126581Y-54791487D01*
X114045580Y-54382403D01*
X113886664Y-53996843D01*
X113655885Y-53649493D01*
X113362034Y-53353583D01*
X113016304Y-53120385D01*
X112631863Y-52958781D01*
X112223354Y-52874926D01*
X111806338Y-52872015D01*
X111396699Y-52950158D01*
X111010039Y-53106379D01*
X110661086Y-53334727D01*
X110648236Y-53347310D01*
X109116268Y-51815342D01*
X109351110Y-51724253D01*
X109663893Y-51525755D01*
X109932164Y-51270284D01*
X110145704Y-50967571D01*
X110296381Y-50629146D01*
X110378454Y-50267900D01*
X110384362Y-49844774D01*
X110312407Y-49481377D01*
X110171239Y-49138877D01*
X109966234Y-48830320D01*
X109705201Y-48567458D01*
X109398082Y-48360304D01*
X109056576Y-48216748D01*
X108693691Y-48142258D01*
X108323248Y-48139672D01*
X107959357Y-48209088D01*
X107615880Y-48347862D01*
X107305899Y-48550707D01*
X107041221Y-48809899D01*
X106831928Y-49115564D01*
X106707291Y-49406365D01*
X105879641Y-48578715D01*
X105879641Y-46788508D01*
X105911131Y-46730750D01*
X115264430Y-46730750D01*
X115264430Y-47258112D01*
X115288833Y-47380793D01*
X115336700Y-47496355D01*
X115406193Y-47600359D01*
X115494641Y-47688807D01*
X115598645Y-47758300D01*
X115714207Y-47806167D01*
X115836888Y-47830570D01*
X116364250Y-47830570D01*
X116523000Y-47671820D01*
X116523000Y-46572000D01*
X116777000Y-46572000D01*
X116777000Y-47671820D01*
X116935750Y-47830570D01*
X117463112Y-47830570D01*
X117585793Y-47806167D01*
X117701355Y-47758300D01*
X117805359Y-47688807D01*
X117893807Y-47600359D01*
X117963300Y-47496355D01*
X118011167Y-47380793D01*
X118035570Y-47258112D01*
X118035570Y-46730750D01*
X117876820Y-46572000D01*
X116777000Y-46572000D01*
X116523000Y-46572000D01*
X115423180Y-46572000D01*
X115264430Y-46730750D01*
X105911131Y-46730750D01*
X105962944Y-46635720D01*
X106010862Y-46482813D01*
X106053741Y-46386505D01*
X106111471Y-46132401D01*
X113332204Y-46132401D01*
X113397799Y-46371326D01*
X113644875Y-46487283D01*
X113909827Y-46552809D01*
X114182470Y-46565387D01*
X114452329Y-46524533D01*
X114709032Y-46431817D01*
X114822201Y-46371326D01*
X114887796Y-46132401D01*
X114110000Y-45354605D01*
X113332204Y-46132401D01*
X106111471Y-46132401D01*
X106135814Y-46025259D01*
X106141722Y-45602133D01*
X106069767Y-45238736D01*
X105928599Y-44896236D01*
X105723594Y-44587679D01*
X105462561Y-44324817D01*
X105155442Y-44117663D01*
X104813936Y-43974107D01*
X104451051Y-43899617D01*
X104080608Y-43897031D01*
X103716717Y-43966447D01*
X103373240Y-44105221D01*
X103288980Y-44160359D01*
X99271285Y-44160359D01*
X98830953Y-43720027D01*
X98830953Y-43491500D01*
X98816641Y-43312029D01*
X98722374Y-43007628D01*
X98547034Y-42741540D01*
X98304506Y-42534836D01*
X98013994Y-42403882D01*
X97698500Y-42359047D01*
X96301500Y-42359047D01*
X96122029Y-42373359D01*
X95953778Y-42425463D01*
X95661422Y-42100623D01*
X95771003Y-41857525D01*
X95808263Y-41913289D01*
X95896711Y-42001737D01*
X96000715Y-42071230D01*
X96116277Y-42119097D01*
X96238958Y-42143500D01*
X96714250Y-42143500D01*
X96873000Y-41984750D01*
X96873000Y-40937000D01*
X97127000Y-40937000D01*
X97127000Y-41984750D01*
X97285750Y-42143500D01*
X97761042Y-42143500D01*
X97883723Y-42119097D01*
X97999285Y-42071230D01*
X98103289Y-42001737D01*
X98191737Y-41913289D01*
X98261230Y-41809285D01*
X98309097Y-41693723D01*
X98333500Y-41571042D01*
X98333500Y-41095750D01*
X98174750Y-40937000D01*
X97127000Y-40937000D01*
X96873000Y-40937000D01*
X96853000Y-40937000D01*
X96853000Y-40683000D01*
X96873000Y-40683000D01*
X96873000Y-39635250D01*
X97127000Y-39635250D01*
X97127000Y-40683000D01*
X98174750Y-40683000D01*
X98333500Y-40524250D01*
X98333500Y-40048958D01*
X98309097Y-39926277D01*
X98261230Y-39810715D01*
X98191737Y-39706711D01*
X98103289Y-39618263D01*
X97999285Y-39548770D01*
X97883723Y-39500903D01*
X97761042Y-39476500D01*
X97285750Y-39476500D01*
X97127000Y-39635250D01*
X96873000Y-39635250D01*
X96714250Y-39476500D01*
X96238958Y-39476500D01*
X96116277Y-39500903D01*
X96000715Y-39548770D01*
X95896711Y-39618263D01*
X95808263Y-39706711D01*
X95766309Y-39769500D01*
X95722374Y-39627628D01*
X95547034Y-39361540D01*
X95304506Y-39154836D01*
X95013994Y-39023882D01*
X94698500Y-38979047D01*
X94469972Y-38979047D01*
X93597699Y-38106773D01*
X102891718Y-38106773D01*
X102985005Y-38365664D01*
X103127006Y-38601381D01*
X103312265Y-38804865D01*
X103533662Y-38968297D01*
X103782689Y-39085397D01*
X103908509Y-39123564D01*
X104125641Y-39001156D01*
X104125641Y-37889641D01*
X104379641Y-37889641D01*
X104379641Y-39001156D01*
X104596773Y-39123564D01*
X104855664Y-39030277D01*
X105091381Y-38888276D01*
X105294865Y-38703017D01*
X105458297Y-38481620D01*
X105575397Y-38232593D01*
X105613564Y-38106773D01*
X105491156Y-37889641D01*
X104379641Y-37889641D01*
X104125641Y-37889641D01*
X103014126Y-37889641D01*
X102891718Y-38106773D01*
X93597699Y-38106773D01*
X92909435Y-37418509D01*
X102891718Y-37418509D01*
X103014126Y-37635641D01*
X104125641Y-37635641D01*
X104125641Y-36524126D01*
X104379641Y-36524126D01*
X104379641Y-37635641D01*
X105491156Y-37635641D01*
X105613564Y-37418509D01*
X105520277Y-37159618D01*
X105378276Y-36923901D01*
X105193017Y-36720417D01*
X104971620Y-36556985D01*
X104722593Y-36439885D01*
X104596773Y-36401718D01*
X104379641Y-36524126D01*
X104125641Y-36524126D01*
X103908509Y-36401718D01*
X103649618Y-36495005D01*
X103413901Y-36637006D01*
X103210417Y-36822265D01*
X103046985Y-37043662D01*
X102929885Y-37292689D01*
X102891718Y-37418509D01*
X92909435Y-37418509D01*
X92000247Y-36509321D01*
X92087618Y-36315494D01*
X92132453Y-36000000D01*
X92132453Y-34000000D01*
X92118141Y-33820529D01*
X92023874Y-33516128D01*
X91910116Y-33343493D01*
X92172100Y-33343493D01*
X92236726Y-33695611D01*
X92368514Y-34028470D01*
X92562445Y-34329392D01*
X92811132Y-34586915D01*
X93105103Y-34791230D01*
X93433160Y-34934554D01*
X93782808Y-35011429D01*
X94140728Y-35018927D01*
X94493289Y-34956761D01*
X94827060Y-34827300D01*
X94843290Y-34817000D01*
X96164088Y-34817000D01*
X96433160Y-34934554D01*
X96782808Y-35011429D01*
X97140728Y-35018927D01*
X97493289Y-34956761D01*
X97827060Y-34827300D01*
X98129328Y-34635474D01*
X98347556Y-34427659D01*
X98522440Y-34699025D01*
X98779778Y-34965506D01*
X99083974Y-35176928D01*
X99423442Y-35325238D01*
X99785253Y-35404788D01*
X100155623Y-35412546D01*
X100520447Y-35348217D01*
X100865829Y-35214253D01*
X101178612Y-35015755D01*
X101446883Y-34760284D01*
X101660423Y-34457571D01*
X101811100Y-34119146D01*
X101893173Y-33757900D01*
X101899081Y-33334774D01*
X101827126Y-32971377D01*
X101685958Y-32628877D01*
X101480953Y-32320320D01*
X101219920Y-32057458D01*
X100912801Y-31850304D01*
X100571295Y-31706748D01*
X100208410Y-31632258D01*
X99837967Y-31629672D01*
X99474076Y-31699088D01*
X99130599Y-31837862D01*
X98820618Y-32040707D01*
X98582873Y-32273524D01*
X98421506Y-32030648D01*
X98169248Y-31776622D01*
X97872453Y-31576432D01*
X97542427Y-31437701D01*
X97191740Y-31365716D01*
X96833750Y-31363216D01*
X96482092Y-31430299D01*
X96153646Y-31563000D01*
X94840500Y-31563000D01*
X94542427Y-31437701D01*
X94191740Y-31365716D01*
X93833750Y-31363216D01*
X93482092Y-31430299D01*
X93150161Y-31564408D01*
X92850600Y-31760435D01*
X92594819Y-32010913D01*
X92392562Y-32306303D01*
X92251531Y-32635353D01*
X92177099Y-32985529D01*
X92172100Y-33343493D01*
X91910116Y-33343493D01*
X91848534Y-33250040D01*
X91606006Y-33043336D01*
X91315494Y-32912382D01*
X91000000Y-32867547D01*
X90168472Y-32867547D01*
X85150463Y-27849537D01*
X85034301Y-27754121D01*
X84919201Y-27657540D01*
X84911705Y-27653419D01*
X84905093Y-27647988D01*
X84772629Y-27576962D01*
X84640943Y-27504567D01*
X84632789Y-27501980D01*
X84625248Y-27497937D01*
X84481510Y-27453992D01*
X84452654Y-27444838D01*
X84362034Y-27353583D01*
X84137303Y-27202000D01*
X96863915Y-27202000D01*
X96661086Y-27334727D01*
M02*
