G04 #@! TF.FileFunction,Legend,Top*
%FSLAX46Y46*%
G04 Gerber Fmt 4.6, Leading zero omitted, Abs format (unit mm)*
G04 Created by KiCad (PCBNEW 4.0.2+dfsg1-stable) date Mi 16 Aug 2017 11:46:23 CEST*
%MOMM*%
G01*
G04 APERTURE LIST*
%ADD10C,0.100000*%
%ADD11C,0.300000*%
%ADD12C,0.150000*%
%ADD13C,0.350000*%
G04 APERTURE END LIST*
D10*
D11*
X119857143Y-62250000D02*
X119714286Y-62178571D01*
X119500000Y-62178571D01*
X119285715Y-62250000D01*
X119142857Y-62392857D01*
X119071429Y-62535714D01*
X119000000Y-62821429D01*
X119000000Y-63035714D01*
X119071429Y-63321429D01*
X119142857Y-63464286D01*
X119285715Y-63607143D01*
X119500000Y-63678571D01*
X119642857Y-63678571D01*
X119857143Y-63607143D01*
X119928572Y-63535714D01*
X119928572Y-63035714D01*
X119642857Y-63035714D01*
X120571429Y-63678571D02*
X120571429Y-62178571D01*
X121428572Y-63678571D01*
X121428572Y-62178571D01*
X122142858Y-63678571D02*
X122142858Y-62178571D01*
X122500001Y-62178571D01*
X122714286Y-62250000D01*
X122857144Y-62392857D01*
X122928572Y-62535714D01*
X123000001Y-62821429D01*
X123000001Y-63035714D01*
X122928572Y-63321429D01*
X122857144Y-63464286D01*
X122714286Y-63607143D01*
X122500001Y-63678571D01*
X122142858Y-63678571D01*
X48000000Y-67178571D02*
X48500000Y-68678571D01*
X49000000Y-67178571D01*
X49500000Y-68678571D02*
X49500000Y-67178571D01*
X49857143Y-67178571D01*
X50071428Y-67250000D01*
X50214286Y-67392857D01*
X50285714Y-67535714D01*
X50357143Y-67821429D01*
X50357143Y-68035714D01*
X50285714Y-68321429D01*
X50214286Y-68464286D01*
X50071428Y-68607143D01*
X49857143Y-68678571D01*
X49500000Y-68678571D01*
X51000000Y-68678571D02*
X51000000Y-67178571D01*
X51357143Y-67178571D01*
X51571428Y-67250000D01*
X51714286Y-67392857D01*
X51785714Y-67535714D01*
X51857143Y-67821429D01*
X51857143Y-68035714D01*
X51785714Y-68321429D01*
X51714286Y-68464286D01*
X51571428Y-68607143D01*
X51357143Y-68678571D01*
X51000000Y-68678571D01*
X86107143Y-57571428D02*
X86107143Y-56428571D01*
X86678571Y-57000000D02*
X85535714Y-57000000D01*
X86107143Y-52571428D02*
X86107143Y-51428571D01*
X119107143Y-78964286D02*
X119035715Y-78892857D01*
X118892858Y-78821429D01*
X118750000Y-78821429D01*
X118607143Y-78892857D01*
X118535715Y-78964286D01*
X118464286Y-79107143D01*
X118464286Y-79250000D01*
X118535715Y-79392857D01*
X118607143Y-79464286D01*
X118750000Y-79535714D01*
X118892858Y-79535714D01*
X119035715Y-79464286D01*
X119107143Y-79392857D01*
X119107143Y-78821429D02*
X119107143Y-79392857D01*
X119178572Y-79464286D01*
X119250000Y-79464286D01*
X119392858Y-79392857D01*
X119464286Y-79250000D01*
X119464286Y-78892857D01*
X119321429Y-78678571D01*
X119107143Y-78535714D01*
X118821429Y-78464286D01*
X118535715Y-78535714D01*
X118321429Y-78678571D01*
X118178572Y-78892857D01*
X118107143Y-79178571D01*
X118178572Y-79464286D01*
X118321429Y-79678571D01*
X118535715Y-79821429D01*
X118821429Y-79892857D01*
X119107143Y-79821429D01*
X119321429Y-79678571D01*
X120964286Y-79678571D02*
X120464286Y-78964286D01*
X120107143Y-79678571D02*
X120107143Y-78178571D01*
X120678571Y-78178571D01*
X120821429Y-78250000D01*
X120892857Y-78321429D01*
X120964286Y-78464286D01*
X120964286Y-78678571D01*
X120892857Y-78821429D01*
X120821429Y-78892857D01*
X120678571Y-78964286D01*
X120107143Y-78964286D01*
X122250000Y-79678571D02*
X122250000Y-78892857D01*
X122178571Y-78750000D01*
X122035714Y-78678571D01*
X121750000Y-78678571D01*
X121607143Y-78750000D01*
X122250000Y-79607143D02*
X122107143Y-79678571D01*
X121750000Y-79678571D01*
X121607143Y-79607143D01*
X121535714Y-79464286D01*
X121535714Y-79321429D01*
X121607143Y-79178571D01*
X121750000Y-79107143D01*
X122107143Y-79107143D01*
X122250000Y-79035714D01*
X122964286Y-78678571D02*
X122964286Y-79678571D01*
X122964286Y-78821429D02*
X123035714Y-78750000D01*
X123178572Y-78678571D01*
X123392857Y-78678571D01*
X123535714Y-78750000D01*
X123607143Y-78892857D01*
X123607143Y-79678571D01*
X124535715Y-79678571D02*
X124392857Y-79607143D01*
X124321429Y-79464286D01*
X124321429Y-78178571D01*
X124964286Y-78678571D02*
X125321429Y-79678571D01*
X125678571Y-78678571D01*
X126464286Y-79678571D02*
X126321428Y-79607143D01*
X126250000Y-79535714D01*
X126178571Y-79392857D01*
X126178571Y-78964286D01*
X126250000Y-78821429D01*
X126321428Y-78750000D01*
X126464286Y-78678571D01*
X126678571Y-78678571D01*
X126821428Y-78750000D01*
X126892857Y-78821429D01*
X126964286Y-78964286D01*
X126964286Y-79392857D01*
X126892857Y-79535714D01*
X126821428Y-79607143D01*
X126678571Y-79678571D01*
X126464286Y-79678571D01*
X127607143Y-79678571D02*
X127607143Y-78678571D01*
X127607143Y-78964286D02*
X127678571Y-78821429D01*
X127750000Y-78750000D01*
X127892857Y-78678571D01*
X128035714Y-78678571D01*
X111250000Y-79142857D02*
X111250000Y-78428571D01*
X111678571Y-79285714D02*
X110178571Y-78785714D01*
X111678571Y-78285714D01*
X110678571Y-77142857D02*
X111678571Y-77142857D01*
X110678571Y-77785714D02*
X111464286Y-77785714D01*
X111607143Y-77714286D01*
X111678571Y-77571428D01*
X111678571Y-77357143D01*
X111607143Y-77214286D01*
X111535714Y-77142857D01*
X110678571Y-76642857D02*
X110678571Y-76071428D01*
X110178571Y-76428571D02*
X111464286Y-76428571D01*
X111607143Y-76357143D01*
X111678571Y-76214285D01*
X111678571Y-76071428D01*
X111678571Y-75357142D02*
X111607143Y-75500000D01*
X111535714Y-75571428D01*
X111392857Y-75642857D01*
X110964286Y-75642857D01*
X110821429Y-75571428D01*
X110750000Y-75500000D01*
X110678571Y-75357142D01*
X110678571Y-75142857D01*
X110750000Y-75000000D01*
X110821429Y-74928571D01*
X110964286Y-74857142D01*
X111392857Y-74857142D01*
X111535714Y-74928571D01*
X111607143Y-75000000D01*
X111678571Y-75142857D01*
X111678571Y-75357142D01*
X92692857Y-79214285D02*
X92692857Y-79714285D01*
X93478571Y-79714285D02*
X91978571Y-79714285D01*
X91978571Y-78999999D01*
X93478571Y-78214285D02*
X93407143Y-78357143D01*
X93335714Y-78428571D01*
X93192857Y-78500000D01*
X92764286Y-78500000D01*
X92621429Y-78428571D01*
X92550000Y-78357143D01*
X92478571Y-78214285D01*
X92478571Y-78000000D01*
X92550000Y-77857143D01*
X92621429Y-77785714D01*
X92764286Y-77714285D01*
X93192857Y-77714285D01*
X93335714Y-77785714D01*
X93407143Y-77857143D01*
X93478571Y-78000000D01*
X93478571Y-78214285D01*
X93478571Y-77071428D02*
X92478571Y-77071428D01*
X92764286Y-77071428D02*
X92621429Y-77000000D01*
X92550000Y-76928571D01*
X92478571Y-76785714D01*
X92478571Y-76642857D01*
X93407143Y-75500000D02*
X93478571Y-75642857D01*
X93478571Y-75928571D01*
X93407143Y-76071429D01*
X93335714Y-76142857D01*
X93192857Y-76214286D01*
X92764286Y-76214286D01*
X92621429Y-76142857D01*
X92550000Y-76071429D01*
X92478571Y-75928571D01*
X92478571Y-75642857D01*
X92550000Y-75500000D01*
X93407143Y-74285715D02*
X93478571Y-74428572D01*
X93478571Y-74714286D01*
X93407143Y-74857143D01*
X93264286Y-74928572D01*
X92692857Y-74928572D01*
X92550000Y-74857143D01*
X92478571Y-74714286D01*
X92478571Y-74428572D01*
X92550000Y-74285715D01*
X92692857Y-74214286D01*
X92835714Y-74214286D01*
X92978571Y-74928572D01*
X94378571Y-77928572D02*
X94378571Y-77642858D01*
X94450000Y-77500000D01*
X94592857Y-77357143D01*
X94878571Y-77285715D01*
X95378571Y-77285715D01*
X95664286Y-77357143D01*
X95807143Y-77500000D01*
X95878571Y-77642858D01*
X95878571Y-77928572D01*
X95807143Y-78071429D01*
X95664286Y-78214286D01*
X95378571Y-78285715D01*
X94878571Y-78285715D01*
X94592857Y-78214286D01*
X94450000Y-78071429D01*
X94378571Y-77928572D01*
X95878571Y-76642857D02*
X94378571Y-76642857D01*
X95878571Y-75785714D01*
X94378571Y-75785714D01*
D12*
X109909495Y-50030000D02*
G75*
G03X109909495Y-50030000I-5656854J0D01*
G01*
X97000000Y-44190000D02*
X97000000Y-44952000D01*
X97000000Y-44952000D02*
X95984000Y-44952000D01*
X95984000Y-44952000D02*
X95984000Y-51048000D01*
X95984000Y-51048000D02*
X97000000Y-51048000D01*
X97000000Y-51048000D02*
X97000000Y-51810000D01*
X97000000Y-51048000D02*
X98016000Y-51048000D01*
X98016000Y-51048000D02*
X98016000Y-44952000D01*
X98016000Y-44952000D02*
X97000000Y-44952000D01*
X95984000Y-45460000D02*
X98016000Y-45460000D01*
X98016000Y-45714000D02*
X95984000Y-45714000D01*
X97000000Y-40810000D02*
X97000000Y-40048000D01*
X97000000Y-40048000D02*
X98016000Y-40048000D01*
X98016000Y-40048000D02*
X98016000Y-33952000D01*
X98016000Y-33952000D02*
X97000000Y-33952000D01*
X97000000Y-33952000D02*
X97000000Y-33190000D01*
X97000000Y-33952000D02*
X95984000Y-33952000D01*
X95984000Y-33952000D02*
X95984000Y-40048000D01*
X95984000Y-40048000D02*
X97000000Y-40048000D01*
X98016000Y-39540000D02*
X95984000Y-39540000D01*
X95984000Y-39286000D02*
X98016000Y-39286000D01*
X94000000Y-44190000D02*
X94000000Y-44952000D01*
X94000000Y-44952000D02*
X92984000Y-44952000D01*
X92984000Y-44952000D02*
X92984000Y-51048000D01*
X92984000Y-51048000D02*
X94000000Y-51048000D01*
X94000000Y-51048000D02*
X94000000Y-51810000D01*
X94000000Y-51048000D02*
X95016000Y-51048000D01*
X95016000Y-51048000D02*
X95016000Y-44952000D01*
X95016000Y-44952000D02*
X94000000Y-44952000D01*
X92984000Y-45460000D02*
X95016000Y-45460000D01*
X95016000Y-45714000D02*
X92984000Y-45714000D01*
X88686000Y-45801000D02*
X88886000Y-45801000D01*
X91280000Y-45801000D02*
X91100000Y-45801000D01*
X90969643Y-49028744D02*
G75*
G03X91286000Y-45801000I-1003643J1727744D01*
G01*
X91099068Y-48353006D02*
G75*
G03X91100000Y-46250000I-1133068J1052006D01*
G01*
X88659274Y-45813780D02*
G75*
G03X89006000Y-49051000I1306726J-1497220D01*
G01*
X88886747Y-46287111D02*
G75*
G03X88906000Y-48335000I1079253J-1013889D01*
G01*
X88686000Y-34801000D02*
X88886000Y-34801000D01*
X91280000Y-34801000D02*
X91100000Y-34801000D01*
X90969643Y-38028744D02*
G75*
G03X91286000Y-34801000I-1003643J1727744D01*
G01*
X91099068Y-37353006D02*
G75*
G03X91100000Y-35250000I-1133068J1052006D01*
G01*
X88659274Y-34813780D02*
G75*
G03X89006000Y-38051000I1306726J-1497220D01*
G01*
X88886747Y-35287111D02*
G75*
G03X88906000Y-37335000I1079253J-1013889D01*
G01*
X94000000Y-40810000D02*
X94000000Y-40048000D01*
X94000000Y-40048000D02*
X95016000Y-40048000D01*
X95016000Y-40048000D02*
X95016000Y-33952000D01*
X95016000Y-33952000D02*
X94000000Y-33952000D01*
X94000000Y-33952000D02*
X94000000Y-33190000D01*
X94000000Y-33952000D02*
X92984000Y-33952000D01*
X92984000Y-33952000D02*
X92984000Y-40048000D01*
X92984000Y-40048000D02*
X94000000Y-40048000D01*
X95016000Y-39540000D02*
X92984000Y-39540000D01*
X92984000Y-39286000D02*
X95016000Y-39286000D01*
X109909495Y-33520000D02*
G75*
G03X109909495Y-33520000I-5656854J0D01*
G01*
X83190000Y-64000000D02*
X83952000Y-64000000D01*
X83952000Y-64000000D02*
X83952000Y-65016000D01*
X83952000Y-65016000D02*
X90048000Y-65016000D01*
X90048000Y-65016000D02*
X90048000Y-64000000D01*
X90048000Y-64000000D02*
X90810000Y-64000000D01*
X90048000Y-64000000D02*
X90048000Y-62984000D01*
X90048000Y-62984000D02*
X83952000Y-62984000D01*
X83952000Y-62984000D02*
X83952000Y-64000000D01*
X84460000Y-65016000D02*
X84460000Y-62984000D01*
X84714000Y-62984000D02*
X84714000Y-65016000D01*
X109500000Y-68500000D02*
X107500000Y-68500000D01*
D13*
X111029200Y-71117600D02*
X110165600Y-71981200D01*
X110572000Y-72032000D02*
X111080000Y-71524000D01*
X111080000Y-72032000D02*
X100920000Y-72032000D01*
X111080000Y-72540000D02*
X111080000Y-67460000D01*
X111080000Y-67460000D02*
X100920000Y-67460000D01*
X100920000Y-67460000D02*
X100920000Y-72540000D01*
X100920000Y-72540000D02*
X111080000Y-72540000D01*
D12*
X51950140Y-36145120D02*
X51950140Y-22048120D01*
X66936140Y-22048120D02*
X66936140Y-36145120D01*
X51950140Y-36145120D02*
X66936140Y-36145120D01*
X51950140Y-22048120D02*
X66936140Y-22048120D01*
X88445000Y-55000000D02*
G75*
G03X88445000Y-55000000I-4445000J0D01*
G01*
X109000000Y-80500000D02*
X97000000Y-80500000D01*
X97000000Y-80500000D02*
X97000000Y-73500000D01*
X97000000Y-73500000D02*
X109000000Y-73500000D01*
X109000000Y-80500000D02*
X109000000Y-79500000D01*
X109000000Y-73500000D02*
X109000000Y-74500000D01*
X109000000Y-79500000D02*
X109000000Y-74500000D01*
X85420000Y-27730000D02*
X85420000Y-30270000D01*
X85420000Y-30270000D02*
X95580000Y-30270000D01*
X95580000Y-30270000D02*
X95580000Y-27730000D01*
X95580000Y-27730000D02*
X85420000Y-27730000D01*
X96730000Y-29000000D02*
X95580000Y-29000000D01*
X84270000Y-29000000D02*
X85420000Y-29000000D01*
X92420000Y-56730000D02*
X92420000Y-59270000D01*
X92420000Y-59270000D02*
X102580000Y-59270000D01*
X102580000Y-59270000D02*
X102580000Y-56730000D01*
X102580000Y-56730000D02*
X92420000Y-56730000D01*
X103730000Y-58000000D02*
X102580000Y-58000000D01*
X91270000Y-58000000D02*
X92420000Y-58000000D01*
X113420000Y-27730000D02*
X113420000Y-30270000D01*
X113420000Y-30270000D02*
X123580000Y-30270000D01*
X123580000Y-30270000D02*
X123580000Y-27730000D01*
X123580000Y-27730000D02*
X113420000Y-27730000D01*
X124730000Y-29000000D02*
X123580000Y-29000000D01*
X112270000Y-29000000D02*
X113420000Y-29000000D01*
X114420000Y-53730000D02*
X114420000Y-56270000D01*
X114420000Y-56270000D02*
X124580000Y-56270000D01*
X124580000Y-56270000D02*
X124580000Y-53730000D01*
X124580000Y-53730000D02*
X114420000Y-53730000D01*
X125730000Y-55000000D02*
X124580000Y-55000000D01*
X113270000Y-55000000D02*
X114420000Y-55000000D01*
X95420000Y-62730000D02*
X95420000Y-65270000D01*
X95420000Y-65270000D02*
X105580000Y-65270000D01*
X105580000Y-65270000D02*
X105580000Y-62730000D01*
X105580000Y-62730000D02*
X95420000Y-62730000D01*
X106730000Y-64000000D02*
X105580000Y-64000000D01*
X94270000Y-64000000D02*
X95420000Y-64000000D01*
X105580000Y-62270000D02*
X105580000Y-59730000D01*
X105580000Y-59730000D02*
X95420000Y-59730000D01*
X95420000Y-59730000D02*
X95420000Y-62270000D01*
X95420000Y-62270000D02*
X105580000Y-62270000D01*
X94270000Y-61000000D02*
X95420000Y-61000000D01*
X106730000Y-61000000D02*
X105580000Y-61000000D01*
X78000000Y-41000000D02*
X78000000Y-63000000D01*
X78000000Y-63000000D02*
X34000000Y-63000000D01*
X34000000Y-63000000D02*
X34000000Y-41000000D01*
X34000000Y-41000000D02*
X78000000Y-41000000D01*
X130874000Y-49620000D02*
X130874000Y-34380000D01*
X130874000Y-34380000D02*
X112840000Y-34380000D01*
X112840000Y-34380000D02*
X112840000Y-49620000D01*
X112840000Y-49620000D02*
X130874000Y-49620000D01*
X109000358Y-55821541D02*
X108293251Y-55114434D01*
X108461610Y-54946075D01*
X108596297Y-54878731D01*
X108730984Y-54878731D01*
X108831999Y-54912403D01*
X109000358Y-55013418D01*
X109101374Y-55114434D01*
X109202389Y-55282792D01*
X109236060Y-55383808D01*
X109236060Y-55518494D01*
X109168716Y-55653182D01*
X109000358Y-55821541D01*
X110077854Y-54744044D02*
X109673793Y-55148106D01*
X109875823Y-54946075D02*
X109168716Y-54238969D01*
X109202388Y-54407327D01*
X109202388Y-54542014D01*
X109168716Y-54643029D01*
X101205348Y-50349882D02*
X101744096Y-49811133D01*
X101744096Y-50349881D02*
X101205348Y-49811133D01*
X106862202Y-50349882D02*
X107400950Y-49811133D01*
X97452381Y-48738095D02*
X96452381Y-48738095D01*
X96452381Y-48500000D01*
X96500000Y-48357142D01*
X96595238Y-48261904D01*
X96690476Y-48214285D01*
X96880952Y-48166666D01*
X97023810Y-48166666D01*
X97214286Y-48214285D01*
X97309524Y-48261904D01*
X97404762Y-48357142D01*
X97452381Y-48500000D01*
X97452381Y-48738095D01*
X96785714Y-47309523D02*
X97452381Y-47309523D01*
X96404762Y-47547619D02*
X97119048Y-47785714D01*
X97119048Y-47166666D01*
X97452381Y-37738095D02*
X96452381Y-37738095D01*
X96452381Y-37500000D01*
X96500000Y-37357142D01*
X96595238Y-37261904D01*
X96690476Y-37214285D01*
X96880952Y-37166666D01*
X97023810Y-37166666D01*
X97214286Y-37214285D01*
X97309524Y-37261904D01*
X97404762Y-37357142D01*
X97452381Y-37500000D01*
X97452381Y-37738095D01*
X96452381Y-36261904D02*
X96452381Y-36738095D01*
X96928571Y-36785714D01*
X96880952Y-36738095D01*
X96833333Y-36642857D01*
X96833333Y-36404761D01*
X96880952Y-36309523D01*
X96928571Y-36261904D01*
X97023810Y-36214285D01*
X97261905Y-36214285D01*
X97357143Y-36261904D01*
X97404762Y-36309523D01*
X97452381Y-36404761D01*
X97452381Y-36642857D01*
X97404762Y-36738095D01*
X97357143Y-36785714D01*
X94452381Y-48738095D02*
X93452381Y-48738095D01*
X93452381Y-48500000D01*
X93500000Y-48357142D01*
X93595238Y-48261904D01*
X93690476Y-48214285D01*
X93880952Y-48166666D01*
X94023810Y-48166666D01*
X94214286Y-48214285D01*
X94309524Y-48261904D01*
X94404762Y-48357142D01*
X94452381Y-48500000D01*
X94452381Y-48738095D01*
X93452381Y-47309523D02*
X93452381Y-47500000D01*
X93500000Y-47595238D01*
X93547619Y-47642857D01*
X93690476Y-47738095D01*
X93880952Y-47785714D01*
X94261905Y-47785714D01*
X94357143Y-47738095D01*
X94404762Y-47690476D01*
X94452381Y-47595238D01*
X94452381Y-47404761D01*
X94404762Y-47309523D01*
X94357143Y-47261904D01*
X94261905Y-47214285D01*
X94023810Y-47214285D01*
X93928571Y-47261904D01*
X93880952Y-47309523D01*
X93833333Y-47404761D01*
X93833333Y-47595238D01*
X93880952Y-47690476D01*
X93928571Y-47738095D01*
X94023810Y-47785714D01*
X87392381Y-48648095D02*
X86392381Y-48648095D01*
X86392381Y-48410000D01*
X86440000Y-48267142D01*
X86535238Y-48171904D01*
X86630476Y-48124285D01*
X86820952Y-48076666D01*
X86963810Y-48076666D01*
X87154286Y-48124285D01*
X87249524Y-48171904D01*
X87344762Y-48267142D01*
X87392381Y-48410000D01*
X87392381Y-48648095D01*
X86820952Y-47505238D02*
X86773333Y-47600476D01*
X86725714Y-47648095D01*
X86630476Y-47695714D01*
X86582857Y-47695714D01*
X86487619Y-47648095D01*
X86440000Y-47600476D01*
X86392381Y-47505238D01*
X86392381Y-47314761D01*
X86440000Y-47219523D01*
X86487619Y-47171904D01*
X86582857Y-47124285D01*
X86630476Y-47124285D01*
X86725714Y-47171904D01*
X86773333Y-47219523D01*
X86820952Y-47314761D01*
X86820952Y-47505238D01*
X86868571Y-47600476D01*
X86916190Y-47648095D01*
X87011429Y-47695714D01*
X87201905Y-47695714D01*
X87297143Y-47648095D01*
X87344762Y-47600476D01*
X87392381Y-47505238D01*
X87392381Y-47314761D01*
X87344762Y-47219523D01*
X87297143Y-47171904D01*
X87201905Y-47124285D01*
X87011429Y-47124285D01*
X86916190Y-47171904D01*
X86868571Y-47219523D01*
X86820952Y-47314761D01*
X88712381Y-44571905D02*
X87712381Y-44571905D01*
X88712381Y-44000476D02*
X88140952Y-44429048D01*
X87712381Y-44000476D02*
X88283810Y-44571905D01*
X87392381Y-37648095D02*
X86392381Y-37648095D01*
X86392381Y-37410000D01*
X86440000Y-37267142D01*
X86535238Y-37171904D01*
X86630476Y-37124285D01*
X86820952Y-37076666D01*
X86963810Y-37076666D01*
X87154286Y-37124285D01*
X87249524Y-37171904D01*
X87344762Y-37267142D01*
X87392381Y-37410000D01*
X87392381Y-37648095D01*
X87392381Y-36600476D02*
X87392381Y-36410000D01*
X87344762Y-36314761D01*
X87297143Y-36267142D01*
X87154286Y-36171904D01*
X86963810Y-36124285D01*
X86582857Y-36124285D01*
X86487619Y-36171904D01*
X86440000Y-36219523D01*
X86392381Y-36314761D01*
X86392381Y-36505238D01*
X86440000Y-36600476D01*
X86487619Y-36648095D01*
X86582857Y-36695714D01*
X86820952Y-36695714D01*
X86916190Y-36648095D01*
X86963810Y-36600476D01*
X87011429Y-36505238D01*
X87011429Y-36314761D01*
X86963810Y-36219523D01*
X86916190Y-36171904D01*
X86820952Y-36124285D01*
X88712381Y-33571905D02*
X87712381Y-33571905D01*
X88712381Y-33000476D02*
X88140952Y-33429048D01*
X87712381Y-33000476D02*
X88283810Y-33571905D01*
X94452381Y-37738095D02*
X93452381Y-37738095D01*
X93452381Y-37500000D01*
X93500000Y-37357142D01*
X93595238Y-37261904D01*
X93690476Y-37214285D01*
X93880952Y-37166666D01*
X94023810Y-37166666D01*
X94214286Y-37214285D01*
X94309524Y-37261904D01*
X94404762Y-37357142D01*
X94452381Y-37500000D01*
X94452381Y-37738095D01*
X93452381Y-36833333D02*
X93452381Y-36166666D01*
X94452381Y-36595238D01*
X109000358Y-39311541D02*
X108293251Y-38604434D01*
X108461610Y-38436075D01*
X108596297Y-38368731D01*
X108730984Y-38368731D01*
X108831999Y-38402403D01*
X109000358Y-38503418D01*
X109101374Y-38604434D01*
X109202389Y-38772792D01*
X109236060Y-38873808D01*
X109236060Y-39008494D01*
X109168716Y-39143182D01*
X109000358Y-39311541D01*
X109034029Y-37998342D02*
X109034029Y-37930999D01*
X109067701Y-37829984D01*
X109236060Y-37661624D01*
X109337076Y-37627953D01*
X109404419Y-37627953D01*
X109505434Y-37661624D01*
X109572778Y-37728968D01*
X109640121Y-37863655D01*
X109640121Y-38671777D01*
X110077854Y-38234044D01*
X101205348Y-33839882D02*
X101744096Y-33301133D01*
X101744096Y-33839881D02*
X101205348Y-33301133D01*
X106862202Y-33839882D02*
X107400950Y-33301133D01*
X86261905Y-64452381D02*
X86261905Y-63452381D01*
X86500000Y-63452381D01*
X86642858Y-63500000D01*
X86738096Y-63595238D01*
X86785715Y-63690476D01*
X86833334Y-63880952D01*
X86833334Y-64023810D01*
X86785715Y-64214286D01*
X86738096Y-64309524D01*
X86642858Y-64404762D01*
X86500000Y-64452381D01*
X86261905Y-64452381D01*
X87166667Y-63452381D02*
X87785715Y-63452381D01*
X87452381Y-63833333D01*
X87595239Y-63833333D01*
X87690477Y-63880952D01*
X87738096Y-63928571D01*
X87785715Y-64023810D01*
X87785715Y-64261905D01*
X87738096Y-64357143D01*
X87690477Y-64404762D01*
X87595239Y-64452381D01*
X87309524Y-64452381D01*
X87214286Y-64404762D01*
X87166667Y-64357143D01*
X105923810Y-70438095D02*
X105847619Y-70400000D01*
X105771429Y-70323810D01*
X105657143Y-70209524D01*
X105580952Y-70171429D01*
X105504762Y-70171429D01*
X105542857Y-70361905D02*
X105466667Y-70323810D01*
X105390476Y-70247619D01*
X105352381Y-70095238D01*
X105352381Y-69828571D01*
X105390476Y-69676190D01*
X105466667Y-69600000D01*
X105542857Y-69561905D01*
X105695238Y-69561905D01*
X105771429Y-69600000D01*
X105847619Y-69676190D01*
X105885714Y-69828571D01*
X105885714Y-70095238D01*
X105847619Y-70247619D01*
X105771429Y-70323810D01*
X105695238Y-70361905D01*
X105542857Y-70361905D01*
X106647619Y-70361905D02*
X106190476Y-70361905D01*
X106419047Y-70361905D02*
X106419047Y-69561905D01*
X106342857Y-69676190D01*
X106266666Y-69752381D01*
X106190476Y-69790476D01*
X75238095Y-34952381D02*
X75238095Y-35761905D01*
X75285714Y-35857143D01*
X75333333Y-35904762D01*
X75428571Y-35952381D01*
X75619048Y-35952381D01*
X75714286Y-35904762D01*
X75761905Y-35857143D01*
X75809524Y-35761905D01*
X75809524Y-34952381D01*
X76238095Y-35047619D02*
X76285714Y-35000000D01*
X76380952Y-34952381D01*
X76619048Y-34952381D01*
X76714286Y-35000000D01*
X76761905Y-35047619D01*
X76809524Y-35142857D01*
X76809524Y-35238095D01*
X76761905Y-35380952D01*
X76190476Y-35952381D01*
X76809524Y-35952381D01*
X37238095Y-34952381D02*
X37238095Y-35761905D01*
X37285714Y-35857143D01*
X37333333Y-35904762D01*
X37428571Y-35952381D01*
X37619048Y-35952381D01*
X37714286Y-35904762D01*
X37761905Y-35857143D01*
X37809524Y-35761905D01*
X37809524Y-34952381D01*
X38190476Y-34952381D02*
X38809524Y-34952381D01*
X38476190Y-35333333D01*
X38619048Y-35333333D01*
X38714286Y-35380952D01*
X38761905Y-35428571D01*
X38809524Y-35523810D01*
X38809524Y-35761905D01*
X38761905Y-35857143D01*
X38714286Y-35904762D01*
X38619048Y-35952381D01*
X38333333Y-35952381D01*
X38238095Y-35904762D01*
X38190476Y-35857143D01*
X75238095Y-73952381D02*
X75238095Y-74761905D01*
X75285714Y-74857143D01*
X75333333Y-74904762D01*
X75428571Y-74952381D01*
X75619048Y-74952381D01*
X75714286Y-74904762D01*
X75761905Y-74857143D01*
X75809524Y-74761905D01*
X75809524Y-73952381D01*
X76714286Y-74285714D02*
X76714286Y-74952381D01*
X76476190Y-73904762D02*
X76238095Y-74619048D01*
X76857143Y-74619048D01*
X37238095Y-73952381D02*
X37238095Y-74761905D01*
X37285714Y-74857143D01*
X37333333Y-74904762D01*
X37428571Y-74952381D01*
X37619048Y-74952381D01*
X37714286Y-74904762D01*
X37761905Y-74857143D01*
X37809524Y-74761905D01*
X37809524Y-73952381D01*
X38761905Y-73952381D02*
X38285714Y-73952381D01*
X38238095Y-74428571D01*
X38285714Y-74380952D01*
X38380952Y-74333333D01*
X38619048Y-74333333D01*
X38714286Y-74380952D01*
X38761905Y-74428571D01*
X38809524Y-74523810D01*
X38809524Y-74761905D01*
X38761905Y-74857143D01*
X38714286Y-74904762D01*
X38619048Y-74952381D01*
X38380952Y-74952381D01*
X38285714Y-74904762D01*
X38238095Y-74857143D01*
X62261905Y-37802381D02*
X62261905Y-36802381D01*
X62642858Y-36802381D01*
X62738096Y-36850000D01*
X62785715Y-36897619D01*
X62833334Y-36992857D01*
X62833334Y-37135714D01*
X62785715Y-37230952D01*
X62738096Y-37278571D01*
X62642858Y-37326190D01*
X62261905Y-37326190D01*
X63785715Y-37802381D02*
X63214286Y-37802381D01*
X63500000Y-37802381D02*
X63500000Y-36802381D01*
X63404762Y-36945238D01*
X63309524Y-37040476D01*
X63214286Y-37088095D01*
X86897143Y-55166666D02*
X86944762Y-55214285D01*
X86992381Y-55357142D01*
X86992381Y-55452380D01*
X86944762Y-55595238D01*
X86849524Y-55690476D01*
X86754286Y-55738095D01*
X86563810Y-55785714D01*
X86420952Y-55785714D01*
X86230476Y-55738095D01*
X86135238Y-55690476D01*
X86040000Y-55595238D01*
X85992381Y-55452380D01*
X85992381Y-55357142D01*
X86040000Y-55214285D01*
X86087619Y-55166666D01*
X86992381Y-54214285D02*
X86992381Y-54785714D01*
X86992381Y-54500000D02*
X85992381Y-54500000D01*
X86135238Y-54595238D01*
X86230476Y-54690476D01*
X86278095Y-54785714D01*
X107904762Y-78333333D02*
X107952381Y-78190476D01*
X107952381Y-77952380D01*
X107904762Y-77857142D01*
X107857143Y-77809523D01*
X107761905Y-77761904D01*
X107666667Y-77761904D01*
X107571429Y-77809523D01*
X107523810Y-77857142D01*
X107476190Y-77952380D01*
X107428571Y-78142857D01*
X107380952Y-78238095D01*
X107333333Y-78285714D01*
X107238095Y-78333333D01*
X107142857Y-78333333D01*
X107047619Y-78285714D01*
X107000000Y-78238095D01*
X106952381Y-78142857D01*
X106952381Y-77904761D01*
X107000000Y-77761904D01*
X106952381Y-77428571D02*
X107952381Y-77190476D01*
X107238095Y-76999999D01*
X107952381Y-76809523D01*
X106952381Y-76571428D01*
X107952381Y-75666666D02*
X107952381Y-76238095D01*
X107952381Y-75952381D02*
X106952381Y-75952381D01*
X107095238Y-76047619D01*
X107190476Y-76142857D01*
X107238095Y-76238095D01*
X90833334Y-29452381D02*
X90500000Y-28976190D01*
X90261905Y-29452381D02*
X90261905Y-28452381D01*
X90642858Y-28452381D01*
X90738096Y-28500000D01*
X90785715Y-28547619D01*
X90833334Y-28642857D01*
X90833334Y-28785714D01*
X90785715Y-28880952D01*
X90738096Y-28928571D01*
X90642858Y-28976190D01*
X90261905Y-28976190D01*
X91690477Y-28452381D02*
X91500000Y-28452381D01*
X91404762Y-28500000D01*
X91357143Y-28547619D01*
X91261905Y-28690476D01*
X91214286Y-28880952D01*
X91214286Y-29261905D01*
X91261905Y-29357143D01*
X91309524Y-29404762D01*
X91404762Y-29452381D01*
X91595239Y-29452381D01*
X91690477Y-29404762D01*
X91738096Y-29357143D01*
X91785715Y-29261905D01*
X91785715Y-29023810D01*
X91738096Y-28928571D01*
X91690477Y-28880952D01*
X91595239Y-28833333D01*
X91404762Y-28833333D01*
X91309524Y-28880952D01*
X91261905Y-28928571D01*
X91214286Y-29023810D01*
X97833334Y-58452381D02*
X97500000Y-57976190D01*
X97261905Y-58452381D02*
X97261905Y-57452381D01*
X97642858Y-57452381D01*
X97738096Y-57500000D01*
X97785715Y-57547619D01*
X97833334Y-57642857D01*
X97833334Y-57785714D01*
X97785715Y-57880952D01*
X97738096Y-57928571D01*
X97642858Y-57976190D01*
X97261905Y-57976190D01*
X98738096Y-57452381D02*
X98261905Y-57452381D01*
X98214286Y-57928571D01*
X98261905Y-57880952D01*
X98357143Y-57833333D01*
X98595239Y-57833333D01*
X98690477Y-57880952D01*
X98738096Y-57928571D01*
X98785715Y-58023810D01*
X98785715Y-58261905D01*
X98738096Y-58357143D01*
X98690477Y-58404762D01*
X98595239Y-58452381D01*
X98357143Y-58452381D01*
X98261905Y-58404762D01*
X98214286Y-58357143D01*
X118333334Y-25703341D02*
X118000000Y-25227150D01*
X117761905Y-25703341D02*
X117761905Y-24703341D01*
X118142858Y-24703341D01*
X118238096Y-24750960D01*
X118285715Y-24798579D01*
X118333334Y-24893817D01*
X118333334Y-25036674D01*
X118285715Y-25131912D01*
X118238096Y-25179531D01*
X118142858Y-25227150D01*
X117761905Y-25227150D01*
X119190477Y-25036674D02*
X119190477Y-25703341D01*
X118952381Y-24655722D02*
X118714286Y-25370008D01*
X119333334Y-25370008D01*
X119333334Y-51703341D02*
X119000000Y-51227150D01*
X118761905Y-51703341D02*
X118761905Y-50703341D01*
X119142858Y-50703341D01*
X119238096Y-50750960D01*
X119285715Y-50798579D01*
X119333334Y-50893817D01*
X119333334Y-51036674D01*
X119285715Y-51131912D01*
X119238096Y-51179531D01*
X119142858Y-51227150D01*
X118761905Y-51227150D01*
X119666667Y-50703341D02*
X120285715Y-50703341D01*
X119952381Y-51084293D01*
X120095239Y-51084293D01*
X120190477Y-51131912D01*
X120238096Y-51179531D01*
X120285715Y-51274770D01*
X120285715Y-51512865D01*
X120238096Y-51608103D01*
X120190477Y-51655722D01*
X120095239Y-51703341D01*
X119809524Y-51703341D01*
X119714286Y-51655722D01*
X119666667Y-51608103D01*
X100833334Y-61452381D02*
X100500000Y-60976190D01*
X100261905Y-61452381D02*
X100261905Y-60452381D01*
X100642858Y-60452381D01*
X100738096Y-60500000D01*
X100785715Y-60547619D01*
X100833334Y-60642857D01*
X100833334Y-60785714D01*
X100785715Y-60880952D01*
X100738096Y-60928571D01*
X100642858Y-60976190D01*
X100261905Y-60976190D01*
X101214286Y-60547619D02*
X101261905Y-60500000D01*
X101357143Y-60452381D01*
X101595239Y-60452381D01*
X101690477Y-60500000D01*
X101738096Y-60547619D01*
X101785715Y-60642857D01*
X101785715Y-60738095D01*
X101738096Y-60880952D01*
X101166667Y-61452381D01*
X101785715Y-61452381D01*
X100833334Y-64452381D02*
X100500000Y-63976190D01*
X100261905Y-64452381D02*
X100261905Y-63452381D01*
X100642858Y-63452381D01*
X100738096Y-63500000D01*
X100785715Y-63547619D01*
X100833334Y-63642857D01*
X100833334Y-63785714D01*
X100785715Y-63880952D01*
X100738096Y-63928571D01*
X100642858Y-63976190D01*
X100261905Y-63976190D01*
X101785715Y-64452381D02*
X101214286Y-64452381D01*
X101500000Y-64452381D02*
X101500000Y-63452381D01*
X101404762Y-63595238D01*
X101309524Y-63690476D01*
X101214286Y-63738095D01*
X55238095Y-50952381D02*
X55238095Y-51761905D01*
X55285714Y-51857143D01*
X55333333Y-51904762D01*
X55428571Y-51952381D01*
X55619048Y-51952381D01*
X55714286Y-51904762D01*
X55761905Y-51857143D01*
X55809524Y-51761905D01*
X55809524Y-50952381D01*
X56809524Y-51952381D02*
X56238095Y-51952381D01*
X56523809Y-51952381D02*
X56523809Y-50952381D01*
X56428571Y-51095238D01*
X56333333Y-51190476D01*
X56238095Y-51238095D01*
X31952381Y-44619048D02*
X31952381Y-44428571D01*
X32000000Y-44333333D01*
X32095238Y-44238095D01*
X32285714Y-44190476D01*
X32619048Y-44190476D01*
X32809524Y-44238095D01*
X32904762Y-44333333D01*
X32952381Y-44428571D01*
X32952381Y-44619048D01*
X32904762Y-44714286D01*
X32809524Y-44809524D01*
X32619048Y-44857143D01*
X32285714Y-44857143D01*
X32095238Y-44809524D01*
X32000000Y-44714286D01*
X31952381Y-44619048D01*
X31952381Y-43761905D02*
X32761905Y-43761905D01*
X32857143Y-43714286D01*
X32904762Y-43666667D01*
X32952381Y-43571429D01*
X32952381Y-43380952D01*
X32904762Y-43285714D01*
X32857143Y-43238095D01*
X32761905Y-43190476D01*
X31952381Y-43190476D01*
X31952381Y-42857143D02*
X31952381Y-42285714D01*
X32952381Y-42571429D02*
X31952381Y-42571429D01*
X32571429Y-41952381D02*
X32571429Y-41190476D01*
X31952381Y-62619048D02*
X31952381Y-62428571D01*
X32000000Y-62333333D01*
X32095238Y-62238095D01*
X32285714Y-62190476D01*
X32619048Y-62190476D01*
X32809524Y-62238095D01*
X32904762Y-62333333D01*
X32952381Y-62428571D01*
X32952381Y-62619048D01*
X32904762Y-62714286D01*
X32809524Y-62809524D01*
X32619048Y-62857143D01*
X32285714Y-62857143D01*
X32095238Y-62809524D01*
X32000000Y-62714286D01*
X31952381Y-62619048D01*
X31952381Y-61761905D02*
X32761905Y-61761905D01*
X32857143Y-61714286D01*
X32904762Y-61666667D01*
X32952381Y-61571429D01*
X32952381Y-61380952D01*
X32904762Y-61285714D01*
X32857143Y-61238095D01*
X32761905Y-61190476D01*
X31952381Y-61190476D01*
X31952381Y-60857143D02*
X31952381Y-60285714D01*
X32952381Y-60571429D02*
X31952381Y-60571429D01*
X32571429Y-59952381D02*
X32571429Y-59190476D01*
X32952381Y-59571428D02*
X32190476Y-59571428D01*
X79857143Y-61452381D02*
X79857143Y-60452381D01*
X80333333Y-61452381D02*
X80333333Y-60452381D01*
X80904762Y-61452381D01*
X80904762Y-60452381D01*
X81380952Y-61071429D02*
X82142857Y-61071429D01*
X81761905Y-61452381D02*
X81761905Y-60690476D01*
X79857143Y-43452381D02*
X79857143Y-42452381D01*
X80333333Y-43452381D02*
X80333333Y-42452381D01*
X80904762Y-43452381D01*
X80904762Y-42452381D01*
X81380952Y-43071429D02*
X82142857Y-43071429D01*
X127278381Y-42079333D02*
X127992667Y-42079333D01*
X128135524Y-42126953D01*
X128230762Y-42222191D01*
X128278381Y-42365048D01*
X128278381Y-42460286D01*
X128278381Y-41079333D02*
X128278381Y-41650762D01*
X128278381Y-41365048D02*
X127278381Y-41365048D01*
X127421238Y-41460286D01*
X127516476Y-41555524D01*
X127564095Y-41650762D01*
X53166667Y-65482381D02*
X53166667Y-66196667D01*
X53119047Y-66339524D01*
X53023809Y-66434762D01*
X52880952Y-66482381D01*
X52785714Y-66482381D01*
X53642857Y-66482381D02*
X53642857Y-65482381D01*
X54023810Y-65482381D01*
X54119048Y-65530000D01*
X54166667Y-65577619D01*
X54214286Y-65672857D01*
X54214286Y-65815714D01*
X54166667Y-65910952D01*
X54119048Y-65958571D01*
X54023810Y-66006190D01*
X53642857Y-66006190D01*
X55166667Y-66482381D02*
X54595238Y-66482381D01*
X54880952Y-66482381D02*
X54880952Y-65482381D01*
X54785714Y-65625238D01*
X54690476Y-65720476D01*
X54595238Y-65768095D01*
X49095238Y-74952381D02*
X49333333Y-75952381D01*
X49523810Y-75238095D01*
X49714286Y-75952381D01*
X49952381Y-74952381D01*
X50857143Y-75952381D02*
X50285714Y-75952381D01*
X50571428Y-75952381D02*
X50571428Y-74952381D01*
X50476190Y-75095238D01*
X50380952Y-75190476D01*
X50285714Y-75238095D01*
X121095238Y-69952381D02*
X121333333Y-70952381D01*
X121523810Y-70238095D01*
X121714286Y-70952381D01*
X121952381Y-69952381D01*
X122285714Y-70047619D02*
X122333333Y-70000000D01*
X122428571Y-69952381D01*
X122666667Y-69952381D01*
X122761905Y-70000000D01*
X122809524Y-70047619D01*
X122857143Y-70142857D01*
X122857143Y-70238095D01*
X122809524Y-70380952D01*
X122238095Y-70952381D01*
X122857143Y-70952381D01*
M02*
