M48
INCH,TZ
T1C0.016
T2C0.030
T3C0.032
T4C0.035
T5C0.039
T6C0.039
T7C0.040
T8C0.050
T9C0.059
T10C0.091
T11C0.256
T12C0.128
T13C0.157
%
G90
G05
T1
X12953Y-15157
X27598Y-11378
X31732Y-17520
X44291Y-26063
X45039Y-30551
T2
X21260Y-25799
X22260Y-25799
X39374Y-13197
X39374Y-19697
X41044Y-11527
X41044Y-14867
X41044Y-18027
X41044Y-21367
X42715Y-13197
X42715Y-19697
T3
X32752Y-25197
X35752Y-25197
X37008Y-13067
X37008Y-16067
X37008Y-17398
X37008Y-20398
X38189Y-13067
X38189Y-16067
X38189Y-17398
X38189Y-20398
T4
X44925Y-14785
X44925Y-15785
X44925Y-16785
X44925Y-17785
X45925Y-15285
X45925Y-16285
X45925Y-17285
X45925Y-18285
T6
X22003Y-13780
X23003Y-13780
X23803Y-13780
X24803Y-13780
X32677Y-11417
X35433Y-13780
X35433Y-14780
X35433Y-18110
X35433Y-19110
X35433Y-22835
X36614Y-24016
X36614Y-25197
X38583Y-11417
X41339Y-22835
X42520Y-24016
X42520Y-25197
X43701Y-11417
X44094Y-21654
X49606Y-11417
X50000Y-21654
T7
X33071Y-20654
X33071Y-22654
T8
X40732Y-27559
X41732Y-27559
X42732Y-27559
T10
X20803Y-12730
X26203Y-12730
T11
X14961Y-12992
X14961Y-28346
X29921Y-12992
X29921Y-28346
T12
X48425Y-14197
X48425Y-18870
T5
X49606Y-13484G85X50394Y-13484
G05
X49606Y-19587G85X50394Y-19587
G05
T9
X38976Y-30512G85X38976Y-30118
G05
X40551Y-30512G85X40551Y-30118
G05
X42126Y-30512G85X42126Y-30118
G05
T13
X20079Y-23228G85X18110Y-23228
G05
T0
M30
